<?xml version="1.0" encoding="UTF-8"?>
<svg id="_图层_1" data-name="图层 1" xmlns="http://www.w3.org/2000/svg" xmlns:xlink="http://www.w3.org/1999/xlink" viewBox="0 0 1057.44 605.83">
  <defs>
    <style>
      .cls-1, .cls-2, .cls-3, .cls-4, .cls-5, .cls-6, .cls-7, .cls-8, .cls-9, .cls-10, .cls-11 {
        fill: none;
      }

      .cls-12 {
        fill: #fff;
        opacity: .8;
        stroke: #ccc;
      }

      .cls-12, .cls-13, .cls-14, .cls-15, .cls-16, .cls-17, .cls-18, .cls-19, .cls-20, .cls-21, .cls-22, .cls-23, .cls-24 {
        isolation: isolate;
      }

      .cls-2 {
        stroke: rgba(87, 171, 220, .7);
      }

      .cls-2, .cls-3, .cls-4, .cls-5, .cls-6, .cls-7, .cls-8, .cls-9, .cls-10, .cls-11 {
        stroke-linecap: square;
      }

      .cls-2, .cls-3, .cls-4, .cls-5, .cls-6, .cls-7, .cls-8, .cls-9, .cls-11 {
        stroke-linejoin: round;
      }

      .cls-2, .cls-5, .cls-6, .cls-8 {
        stroke-width: 1.5px;
      }

      .cls-3, .cls-4, .cls-9, .cls-11 {
        stroke-width: 2.5px;
      }

      .cls-3, .cls-13 {
        stroke: #de9b15;
      }

      .cls-4, .cls-14 {
        stroke: #8b64a8;
      }

      .cls-13 {
        fill: #de9b15;
      }

      .cls-13, .cls-14, .cls-20, .cls-22 {
        opacity: .25;
      }

      .cls-5 {
        stroke: rgba(21, 152, 112, .7);
      }

      .cls-6 {
        stroke: rgba(16, 110, 167, .7);
      }

      .cls-14 {
        fill: #8b64a8;
      }

      .cls-7 {
        stroke: #b0b0b0;
      }

      .cls-7, .cls-10 {
        stroke-width: .8px;
      }

      .cls-25, .cls-26, .cls-27, .cls-28, .cls-23, .cls-29, .cls-30 {
        font-family: AdobeSongStd-Light-GBpc-EUC-H, 'Adobe Song Std';
        font-weight: 300;
      }

      .cls-15 {
        fill: #57abdc;
        stroke: #57abdc;
      }

      .cls-15, .cls-16, .cls-17, .cls-24 {
        opacity: .1;
      }

      .cls-8 {
        stroke: rgba(137, 137, 137, .7);
      }

      .cls-16 {
        fill: #898989;
        stroke: #898989;
      }

      .cls-17 {
        fill: #106ea7;
        stroke: #106ea7;
      }

      .cls-18 {
        font-size: 16px;
      }

      .cls-18, .cls-21, .cls-23 {
        fill: #040000;
      }

      .cls-31 {
        clip-path: url(#clippath-17);
      }

      .cls-32 {
        clip-path: url(#clippath-19);
      }

      .cls-33 {
        clip-path: url(#clippath-11);
      }

      .cls-34 {
        clip-path: url(#clippath-16);
      }

      .cls-35 {
        clip-path: url(#clippath-18);
      }

      .cls-36 {
        clip-path: url(#clippath-10);
      }

      .cls-37 {
        clip-path: url(#clippath-15);
      }

      .cls-38 {
        clip-path: url(#clippath-13);
      }

      .cls-39 {
        clip-path: url(#clippath-14);
      }

      .cls-40 {
        clip-path: url(#clippath-12);
      }

      .cls-41 {
        clip-path: url(#clippath-31);
      }

      .cls-42 {
        clip-path: url(#clippath-32);
      }

      .cls-43 {
        clip-path: url(#clippath-33);
      }

      .cls-44 {
        clip-path: url(#clippath-34);
      }

      .cls-45 {
        clip-path: url(#clippath-35);
      }

      .cls-46 {
        clip-path: url(#clippath-30);
      }

      .cls-47 {
        clip-path: url(#clippath-36);
      }

      .cls-48 {
        clip-path: url(#clippath-37);
      }

      .cls-49 {
        clip-path: url(#clippath-38);
      }

      .cls-50 {
        clip-path: url(#clippath-27);
      }

      .cls-51 {
        clip-path: url(#clippath-29);
      }

      .cls-52 {
        clip-path: url(#clippath-26);
      }

      .cls-53 {
        clip-path: url(#clippath-28);
      }

      .cls-54 {
        clip-path: url(#clippath-20);
      }

      .cls-55 {
        clip-path: url(#clippath-21);
      }

      .cls-56 {
        clip-path: url(#clippath-22);
      }

      .cls-57 {
        clip-path: url(#clippath-23);
      }

      .cls-58 {
        clip-path: url(#clippath-24);
      }

      .cls-59 {
        clip-path: url(#clippath-25);
      }

      .cls-60 {
        clip-path: url(#clippath-1);
      }

      .cls-61 {
        clip-path: url(#clippath-3);
      }

      .cls-62 {
        clip-path: url(#clippath-4);
      }

      .cls-63 {
        clip-path: url(#clippath-2);
      }

      .cls-64 {
        clip-path: url(#clippath-7);
      }

      .cls-65 {
        clip-path: url(#clippath-6);
      }

      .cls-66 {
        clip-path: url(#clippath-9);
      }

      .cls-67 {
        clip-path: url(#clippath-8);
      }

      .cls-68 {
        clip-path: url(#clippath-5);
      }

      .cls-26, .cls-69 {
        letter-spacing: 0em;
      }

      .cls-27, .cls-70 {
        letter-spacing: 0em;
      }

      .cls-19 {
        fill: #7f8080;
      }

      .cls-19, .cls-28, .cls-21, .cls-23 {
        font-size: 12px;
      }

      .cls-71, .cls-72, .cls-69, .cls-70, .cls-73 {
        font-family: NotoSansAdlam-Regular, 'Noto Sans Adlam';
      }

      .cls-71, .cls-29 {
        letter-spacing: 0em;
      }

      .cls-20 {
        fill: #bf75ad;
      }

      .cls-20, .cls-11 {
        stroke: #bf75ad;
      }

      .cls-72, .cls-30 {
        letter-spacing: 0em;
      }

      .cls-28 {
        fill: #2ea7e0;
      }

      .cls-22 {
        fill: #cc5d17;
      }

      .cls-22, .cls-9 {
        stroke: #cc5d17;
      }

      .cls-24 {
        fill: #159870;
        stroke: #159870;
      }

      .cls-74 {
        clip-path: url(#clippath);
      }

      .cls-10 {
        stroke: #040000;
      }
    </style>
    <clipPath id="clippath">
      <path class="cls-1" d="M388.46,315.98c0-23.21-4.57-46.19-13.45-67.64-8.88-21.44-21.9-40.93-38.31-57.34-16.41-16.41-35.9-29.43-57.34-38.31-21.44-8.88-44.43-13.45-67.64-13.45s-46.19,4.57-67.64,13.45c-21.44,8.88-40.93,21.9-57.34,38.31-16.41,16.41-29.43,35.9-38.31,57.34s-13.45,44.43-13.45,67.64,4.57,46.19,13.45,67.64,21.9,40.93,38.31,57.34c16.41,16.41,35.9,29.43,57.34,38.31,21.44,8.88,44.43,13.45,67.64,13.45s46.19-4.57,67.64-13.45c21.44-8.88,40.93-21.9,57.34-38.31,16.41-16.41,29.43-35.9,38.31-57.34,8.88-21.44,13.45-44.43,13.45-67.64M211.72,315.98h0Z"/>
    </clipPath>
    <clipPath id="clippath-1">
      <path class="cls-1" d="M388.46,315.98c0-23.21-4.57-46.19-13.45-67.64-8.88-21.44-21.9-40.93-38.31-57.34-16.41-16.41-35.9-29.43-57.34-38.31-21.44-8.88-44.43-13.45-67.64-13.45s-46.19,4.57-67.64,13.45c-21.44,8.88-40.93,21.9-57.34,38.31-16.41,16.41-29.43,35.9-38.31,57.34s-13.45,44.43-13.45,67.64,4.57,46.19,13.45,67.64,21.9,40.93,38.31,57.34c16.41,16.41,35.9,29.43,57.34,38.31,21.44,8.88,44.43,13.45,67.64,13.45s46.19-4.57,67.64-13.45c21.44-8.88,40.93-21.9,57.34-38.31,16.41-16.41,29.43-35.9,38.31-57.34,8.88-21.44,13.45-44.43,13.45-67.64M211.72,315.98h0Z"/>
    </clipPath>
    <clipPath id="clippath-2">
      <path class="cls-1" d="M388.46,315.98c0-23.21-4.57-46.19-13.45-67.64-8.88-21.44-21.9-40.93-38.31-57.34-16.41-16.41-35.9-29.43-57.34-38.31-21.44-8.88-44.43-13.45-67.64-13.45s-46.19,4.57-67.64,13.45c-21.44,8.88-40.93,21.9-57.34,38.31-16.41,16.41-29.43,35.9-38.31,57.34s-13.45,44.43-13.45,67.64,4.57,46.19,13.45,67.64,21.9,40.93,38.31,57.34c16.41,16.41,35.9,29.43,57.34,38.31,21.44,8.88,44.43,13.45,67.64,13.45s46.19-4.57,67.64-13.45c21.44-8.88,40.93-21.9,57.34-38.31,16.41-16.41,29.43-35.9,38.31-57.34,8.88-21.44,13.45-44.43,13.45-67.64M211.72,315.98h0Z"/>
    </clipPath>
    <clipPath id="clippath-3">
      <path class="cls-1" d="M388.46,315.98c0-23.21-4.57-46.19-13.45-67.64-8.88-21.44-21.9-40.93-38.31-57.34-16.41-16.41-35.9-29.43-57.34-38.31-21.44-8.88-44.43-13.45-67.64-13.45s-46.19,4.57-67.64,13.45c-21.44,8.88-40.93,21.9-57.34,38.31-16.41,16.41-29.43,35.9-38.31,57.34s-13.45,44.43-13.45,67.64,4.57,46.19,13.45,67.64,21.9,40.93,38.31,57.34c16.41,16.41,35.9,29.43,57.34,38.31,21.44,8.88,44.43,13.45,67.64,13.45s46.19-4.57,67.64-13.45c21.44-8.88,40.93-21.9,57.34-38.31,16.41-16.41,29.43-35.9,38.31-57.34,8.88-21.44,13.45-44.43,13.45-67.64M211.72,315.98h0Z"/>
    </clipPath>
    <clipPath id="clippath-4">
      <path class="cls-1" d="M388.46,315.98c0-23.21-4.57-46.19-13.45-67.64-8.88-21.44-21.9-40.93-38.31-57.34-16.41-16.41-35.9-29.43-57.34-38.31-21.44-8.88-44.43-13.45-67.64-13.45s-46.19,4.57-67.64,13.45c-21.44,8.88-40.93,21.9-57.34,38.31-16.41,16.41-29.43,35.9-38.31,57.34s-13.45,44.43-13.45,67.64,4.57,46.19,13.45,67.64,21.9,40.93,38.31,57.34c16.41,16.41,35.9,29.43,57.34,38.31,21.44,8.88,44.43,13.45,67.64,13.45s46.19-4.57,67.64-13.45c21.44-8.88,40.93-21.9,57.34-38.31,16.41-16.41,29.43-35.9,38.31-57.34,8.88-21.44,13.45-44.43,13.45-67.64M211.72,315.98h0Z"/>
    </clipPath>
    <clipPath id="clippath-5">
      <path class="cls-1" d="M388.46,315.98c0-23.21-4.57-46.19-13.45-67.64-8.88-21.44-21.9-40.93-38.31-57.34-16.41-16.41-35.9-29.43-57.34-38.31-21.44-8.88-44.43-13.45-67.64-13.45s-46.19,4.57-67.64,13.45c-21.44,8.88-40.93,21.9-57.34,38.31-16.41,16.41-29.43,35.9-38.31,57.34s-13.45,44.43-13.45,67.64,4.57,46.19,13.45,67.64,21.9,40.93,38.31,57.34c16.41,16.41,35.9,29.43,57.34,38.31,21.44,8.88,44.43,13.45,67.64,13.45s46.19-4.57,67.64-13.45c21.44-8.88,40.93-21.9,57.34-38.31,16.41-16.41,29.43-35.9,38.31-57.34,8.88-21.44,13.45-44.43,13.45-67.64M211.72,315.98h0Z"/>
    </clipPath>
    <clipPath id="clippath-6">
      <path class="cls-1" d="M388.46,315.98c0-23.21-4.57-46.19-13.45-67.64-8.88-21.44-21.9-40.93-38.31-57.34-16.41-16.41-35.9-29.43-57.34-38.31-21.44-8.88-44.43-13.45-67.64-13.45s-46.19,4.57-67.64,13.45c-21.44,8.88-40.93,21.9-57.34,38.31-16.41,16.41-29.43,35.9-38.31,57.34s-13.45,44.43-13.45,67.64,4.57,46.19,13.45,67.64,21.9,40.93,38.31,57.34c16.41,16.41,35.9,29.43,57.34,38.31,21.44,8.88,44.43,13.45,67.64,13.45s46.19-4.57,67.64-13.45c21.44-8.88,40.93-21.9,57.34-38.31,16.41-16.41,29.43-35.9,38.31-57.34,8.88-21.44,13.45-44.43,13.45-67.64M211.72,315.98h0Z"/>
    </clipPath>
    <clipPath id="clippath-7">
      <path class="cls-1" d="M388.46,315.98c0-23.21-4.57-46.19-13.45-67.64-8.88-21.44-21.9-40.93-38.31-57.34-16.41-16.41-35.9-29.43-57.34-38.31-21.44-8.88-44.43-13.45-67.64-13.45s-46.19,4.57-67.64,13.45c-21.44,8.88-40.93,21.9-57.34,38.31-16.41,16.41-29.43,35.9-38.31,57.34s-13.45,44.43-13.45,67.64,4.57,46.19,13.45,67.64,21.9,40.93,38.31,57.34c16.41,16.41,35.9,29.43,57.34,38.31,21.44,8.88,44.43,13.45,67.64,13.45s46.19-4.57,67.64-13.45c21.44-8.88,40.93-21.9,57.34-38.31,16.41-16.41,29.43-35.9,38.31-57.34,8.88-21.44,13.45-44.43,13.45-67.64M211.72,315.98h0Z"/>
    </clipPath>
    <clipPath id="clippath-8">
      <path class="cls-1" d="M388.46,315.98c0-23.21-4.57-46.19-13.45-67.64-8.88-21.44-21.9-40.93-38.31-57.34-16.41-16.41-35.9-29.43-57.34-38.31-21.44-8.88-44.43-13.45-67.64-13.45s-46.19,4.57-67.64,13.45c-21.44,8.88-40.93,21.9-57.34,38.31-16.41,16.41-29.43,35.9-38.31,57.34s-13.45,44.43-13.45,67.64,4.57,46.19,13.45,67.64,21.9,40.93,38.31,57.34c16.41,16.41,35.9,29.43,57.34,38.31,21.44,8.88,44.43,13.45,67.64,13.45s46.19-4.57,67.64-13.45c21.44-8.88,40.93-21.9,57.34-38.31,16.41-16.41,29.43-35.9,38.31-57.34,8.88-21.44,13.45-44.43,13.45-67.64M211.72,315.98h0Z"/>
    </clipPath>
    <clipPath id="clippath-9">
      <path class="cls-1" d="M388.46,315.98c0-23.21-4.57-46.19-13.45-67.64-8.88-21.44-21.9-40.93-38.31-57.34-16.41-16.41-35.9-29.43-57.34-38.31-21.44-8.88-44.43-13.45-67.64-13.45s-46.19,4.57-67.64,13.45c-21.44,8.88-40.93,21.9-57.34,38.31-16.41,16.41-29.43,35.9-38.31,57.34s-13.45,44.43-13.45,67.64,4.57,46.19,13.45,67.64,21.9,40.93,38.31,57.34c16.41,16.41,35.9,29.43,57.34,38.31,21.44,8.88,44.43,13.45,67.64,13.45s46.19-4.57,67.64-13.45c21.44-8.88,40.93-21.9,57.34-38.31,16.41-16.41,29.43-35.9,38.31-57.34,8.88-21.44,13.45-44.43,13.45-67.64M211.72,315.98h0Z"/>
    </clipPath>
    <clipPath id="clippath-10">
      <path class="cls-1" d="M388.46,315.98c0-23.21-4.57-46.19-13.45-67.64-8.88-21.44-21.9-40.93-38.31-57.34-16.41-16.41-35.9-29.43-57.34-38.31-21.44-8.88-44.43-13.45-67.64-13.45s-46.19,4.57-67.64,13.45c-21.44,8.88-40.93,21.9-57.34,38.31-16.41,16.41-29.43,35.9-38.31,57.34s-13.45,44.43-13.45,67.64,4.57,46.19,13.45,67.64,21.9,40.93,38.31,57.34c16.41,16.41,35.9,29.43,57.34,38.31,21.44,8.88,44.43,13.45,67.64,13.45s46.19-4.57,67.64-13.45c21.44-8.88,40.93-21.9,57.34-38.31,16.41-16.41,29.43-35.9,38.31-57.34,8.88-21.44,13.45-44.43,13.45-67.64M211.72,315.98h0Z"/>
    </clipPath>
    <clipPath id="clippath-11">
      <path class="cls-1" d="M388.46,315.98c0-23.21-4.57-46.19-13.45-67.64-8.88-21.44-21.9-40.93-38.31-57.34-16.41-16.41-35.9-29.43-57.34-38.31-21.44-8.88-44.43-13.45-67.64-13.45s-46.19,4.57-67.64,13.45c-21.44,8.88-40.93,21.9-57.34,38.31-16.41,16.41-29.43,35.9-38.31,57.34s-13.45,44.43-13.45,67.64,4.57,46.19,13.45,67.64,21.9,40.93,38.31,57.34c16.41,16.41,35.9,29.43,57.34,38.31,21.44,8.88,44.43,13.45,67.64,13.45s46.19-4.57,67.64-13.45c21.44-8.88,40.93-21.9,57.34-38.31,16.41-16.41,29.43-35.9,38.31-57.34,8.88-21.44,13.45-44.43,13.45-67.64M211.72,315.98h0Z"/>
    </clipPath>
    <clipPath id="clippath-12">
      <path class="cls-1" d="M388.46,315.98c0-23.21-4.57-46.19-13.45-67.64-8.88-21.44-21.9-40.93-38.31-57.34-16.41-16.41-35.9-29.43-57.34-38.31-21.44-8.88-44.43-13.45-67.64-13.45s-46.19,4.57-67.64,13.45c-21.44,8.88-40.93,21.9-57.34,38.31-16.41,16.41-29.43,35.9-38.31,57.34s-13.45,44.43-13.45,67.64,4.57,46.19,13.45,67.64,21.9,40.93,38.31,57.34c16.41,16.41,35.9,29.43,57.34,38.31,21.44,8.88,44.43,13.45,67.64,13.45s46.19-4.57,67.64-13.45c21.44-8.88,40.93-21.9,57.34-38.31,16.41-16.41,29.43-35.9,38.31-57.34,8.88-21.44,13.45-44.43,13.45-67.64M211.72,315.98h0Z"/>
    </clipPath>
    <clipPath id="clippath-13">
      <path class="cls-1" d="M388.46,315.98c0-23.21-4.57-46.19-13.45-67.64-8.88-21.44-21.9-40.93-38.31-57.34-16.41-16.41-35.9-29.43-57.34-38.31-21.44-8.88-44.43-13.45-67.64-13.45s-46.19,4.57-67.64,13.45c-21.44,8.88-40.93,21.9-57.34,38.31-16.41,16.41-29.43,35.9-38.31,57.34s-13.45,44.43-13.45,67.64,4.57,46.19,13.45,67.64,21.9,40.93,38.31,57.34c16.41,16.41,35.9,29.43,57.34,38.31,21.44,8.88,44.43,13.45,67.64,13.45s46.19-4.57,67.64-13.45c21.44-8.88,40.93-21.9,57.34-38.31,16.41-16.41,29.43-35.9,38.31-57.34,8.88-21.44,13.45-44.43,13.45-67.64M211.72,315.98h0Z"/>
    </clipPath>
    <clipPath id="clippath-14">
      <path class="cls-1" d="M388.46,315.98c0-23.21-4.57-46.19-13.45-67.64-8.88-21.44-21.9-40.93-38.31-57.34-16.41-16.41-35.9-29.43-57.34-38.31-21.44-8.88-44.43-13.45-67.64-13.45s-46.19,4.57-67.64,13.45c-21.44,8.88-40.93,21.9-57.34,38.31-16.41,16.41-29.43,35.9-38.31,57.34s-13.45,44.43-13.45,67.64,4.57,46.19,13.45,67.64,21.9,40.93,38.31,57.34c16.41,16.41,35.9,29.43,57.34,38.31,21.44,8.88,44.43,13.45,67.64,13.45s46.19-4.57,67.64-13.45c21.44-8.88,40.93-21.9,57.34-38.31,16.41-16.41,29.43-35.9,38.31-57.34,8.88-21.44,13.45-44.43,13.45-67.64M211.72,315.98h0Z"/>
    </clipPath>
    <clipPath id="clippath-15">
      <path class="cls-1" d="M388.46,315.98c0-23.21-4.57-46.19-13.45-67.64-8.88-21.44-21.9-40.93-38.31-57.34-16.41-16.41-35.9-29.43-57.34-38.31-21.44-8.88-44.43-13.45-67.64-13.45s-46.19,4.57-67.64,13.45c-21.44,8.88-40.93,21.9-57.34,38.31-16.41,16.41-29.43,35.9-38.31,57.34s-13.45,44.43-13.45,67.64,4.57,46.19,13.45,67.64,21.9,40.93,38.31,57.34c16.41,16.41,35.9,29.43,57.34,38.31,21.44,8.88,44.43,13.45,67.64,13.45s46.19-4.57,67.64-13.45c21.44-8.88,40.93-21.9,57.34-38.31,16.41-16.41,29.43-35.9,38.31-57.34,8.88-21.44,13.45-44.43,13.45-67.64M211.72,315.98h0Z"/>
    </clipPath>
    <clipPath id="clippath-16">
      <path class="cls-1" d="M388.46,315.98c0-23.21-4.57-46.19-13.45-67.64-8.88-21.44-21.9-40.93-38.31-57.34-16.41-16.41-35.9-29.43-57.34-38.31-21.44-8.88-44.43-13.45-67.64-13.45s-46.19,4.57-67.64,13.45c-21.44,8.88-40.93,21.9-57.34,38.31-16.41,16.41-29.43,35.9-38.31,57.34s-13.45,44.43-13.45,67.64,4.57,46.19,13.45,67.64,21.9,40.93,38.31,57.34c16.41,16.41,35.9,29.43,57.34,38.31,21.44,8.88,44.43,13.45,67.64,13.45s46.19-4.57,67.64-13.45c21.44-8.88,40.93-21.9,57.34-38.31,16.41-16.41,29.43-35.9,38.31-57.34,8.88-21.44,13.45-44.43,13.45-67.64M211.72,315.98h0Z"/>
    </clipPath>
    <clipPath id="clippath-17">
      <path class="cls-1" d="M388.46,315.98c0-23.21-4.57-46.19-13.45-67.64-8.88-21.44-21.9-40.93-38.31-57.34-16.41-16.41-35.9-29.43-57.34-38.31-21.44-8.88-44.43-13.45-67.64-13.45s-46.19,4.57-67.64,13.45c-21.44,8.88-40.93,21.9-57.34,38.31-16.41,16.41-29.43,35.9-38.31,57.34s-13.45,44.43-13.45,67.64,4.57,46.19,13.45,67.64,21.9,40.93,38.31,57.34c16.41,16.41,35.9,29.43,57.34,38.31,21.44,8.88,44.43,13.45,67.64,13.45s46.19-4.57,67.64-13.45c21.44-8.88,40.93-21.9,57.34-38.31,16.41-16.41,29.43-35.9,38.31-57.34,8.88-21.44,13.45-44.43,13.45-67.64M211.72,315.98h0Z"/>
    </clipPath>
    <clipPath id="clippath-18">
      <path class="cls-1" d="M843.42,315.91c0-23.19-4.57-46.16-13.45-67.59-8.88-21.43-21.9-40.9-38.31-57.3-16.41-16.4-35.89-29.41-57.34-38.29-21.44-8.88-44.42-13.44-67.63-13.44s-46.19,4.57-67.63,13.44c-21.44,8.88-40.92,21.89-57.34,38.29-16.41,16.4-29.43,35.87-38.31,57.3-8.88,21.43-13.45,44.4-13.45,67.59s4.57,46.16,13.45,67.59c8.88,21.43,21.9,40.9,38.31,57.3,16.41,16.4,35.89,29.41,57.34,38.29,21.44,8.88,44.42,13.44,67.63,13.44s46.19-4.57,67.63-13.44c21.44-8.88,40.92-21.89,57.34-38.29,16.41-16.4,29.43-35.87,38.31-57.3,8.88-21.43,13.45-44.4,13.45-67.59M666.69,315.91h0Z"/>
    </clipPath>
    <clipPath id="clippath-19">
      <path class="cls-1" d="M843.42,315.91c0-23.19-4.57-46.16-13.45-67.59-8.88-21.43-21.9-40.9-38.31-57.3-16.41-16.4-35.89-29.41-57.34-38.29-21.44-8.88-44.42-13.44-67.63-13.44s-46.19,4.57-67.63,13.44c-21.44,8.88-40.92,21.89-57.34,38.29-16.41,16.4-29.43,35.87-38.31,57.3-8.88,21.43-13.45,44.4-13.45,67.59s4.57,46.16,13.45,67.59c8.88,21.43,21.9,40.9,38.31,57.3,16.41,16.4,35.89,29.41,57.34,38.29,21.44,8.88,44.42,13.44,67.63,13.44s46.19-4.57,67.63-13.44c21.44-8.88,40.92-21.89,57.34-38.29,16.41-16.4,29.43-35.87,38.31-57.3,8.88-21.43,13.45-44.4,13.45-67.59M666.69,315.91h0Z"/>
    </clipPath>
    <clipPath id="clippath-20">
      <path class="cls-1" d="M843.42,315.91c0-23.19-4.57-46.16-13.45-67.59-8.88-21.43-21.9-40.9-38.31-57.3-16.41-16.4-35.89-29.41-57.34-38.29-21.44-8.88-44.42-13.44-67.63-13.44s-46.19,4.57-67.63,13.44c-21.44,8.88-40.92,21.89-57.34,38.29-16.41,16.4-29.43,35.87-38.31,57.3-8.88,21.43-13.45,44.4-13.45,67.59s4.57,46.16,13.45,67.59c8.88,21.43,21.9,40.9,38.31,57.3,16.41,16.4,35.89,29.41,57.34,38.29,21.44,8.88,44.42,13.44,67.63,13.44s46.19-4.57,67.63-13.44c21.44-8.88,40.92-21.89,57.34-38.29,16.41-16.4,29.43-35.87,38.31-57.3,8.88-21.43,13.45-44.4,13.45-67.59M666.69,315.91h0Z"/>
    </clipPath>
    <clipPath id="clippath-21">
      <path class="cls-1" d="M843.42,315.91c0-23.19-4.57-46.16-13.45-67.59-8.88-21.43-21.9-40.9-38.31-57.3-16.41-16.4-35.89-29.41-57.34-38.29-21.44-8.88-44.42-13.44-67.63-13.44s-46.19,4.57-67.63,13.44c-21.44,8.88-40.92,21.89-57.34,38.29-16.41,16.4-29.43,35.87-38.31,57.3-8.88,21.43-13.45,44.4-13.45,67.59s4.57,46.16,13.45,67.59c8.88,21.43,21.9,40.9,38.31,57.3,16.41,16.4,35.89,29.41,57.34,38.29,21.44,8.88,44.42,13.44,67.63,13.44s46.19-4.57,67.63-13.44c21.44-8.88,40.92-21.89,57.34-38.29,16.41-16.4,29.43-35.87,38.31-57.3,8.88-21.43,13.45-44.4,13.45-67.59M666.69,315.91h0Z"/>
    </clipPath>
    <clipPath id="clippath-22">
      <path class="cls-1" d="M843.42,315.91c0-23.19-4.57-46.16-13.45-67.59-8.88-21.43-21.9-40.9-38.31-57.3-16.41-16.4-35.89-29.41-57.34-38.29-21.44-8.88-44.42-13.44-67.63-13.44s-46.19,4.57-67.63,13.44c-21.44,8.88-40.92,21.89-57.34,38.29-16.41,16.4-29.43,35.87-38.31,57.3-8.88,21.43-13.45,44.4-13.45,67.59s4.57,46.16,13.45,67.59c8.88,21.43,21.9,40.9,38.31,57.3,16.41,16.4,35.89,29.41,57.34,38.29,21.44,8.88,44.42,13.44,67.63,13.44s46.19-4.57,67.63-13.44c21.44-8.88,40.92-21.89,57.34-38.29,16.41-16.4,29.43-35.87,38.31-57.3,8.88-21.43,13.45-44.4,13.45-67.59M666.69,315.91h0Z"/>
    </clipPath>
    <clipPath id="clippath-23">
      <path class="cls-1" d="M843.42,315.91c0-23.19-4.57-46.16-13.45-67.59-8.88-21.43-21.9-40.9-38.31-57.3-16.41-16.4-35.89-29.41-57.34-38.29-21.44-8.88-44.42-13.44-67.63-13.44s-46.19,4.57-67.63,13.44c-21.44,8.88-40.92,21.89-57.34,38.29-16.41,16.4-29.43,35.87-38.31,57.3-8.88,21.43-13.45,44.4-13.45,67.59s4.57,46.16,13.45,67.59c8.88,21.43,21.9,40.9,38.31,57.3,16.41,16.4,35.89,29.41,57.34,38.29,21.44,8.88,44.42,13.44,67.63,13.44s46.19-4.57,67.63-13.44c21.44-8.88,40.92-21.89,57.34-38.29,16.41-16.4,29.43-35.87,38.31-57.3,8.88-21.43,13.45-44.4,13.45-67.59M666.69,315.91h0Z"/>
    </clipPath>
    <clipPath id="clippath-24">
      <path class="cls-1" d="M843.42,315.91c0-23.19-4.57-46.16-13.45-67.59-8.88-21.43-21.9-40.9-38.31-57.3-16.41-16.4-35.89-29.41-57.34-38.29-21.44-8.88-44.42-13.44-67.63-13.44s-46.19,4.57-67.63,13.44c-21.44,8.88-40.92,21.89-57.34,38.29-16.41,16.4-29.43,35.87-38.31,57.3-8.88,21.43-13.45,44.4-13.45,67.59s4.57,46.16,13.45,67.59c8.88,21.43,21.9,40.9,38.31,57.3,16.41,16.4,35.89,29.41,57.34,38.29,21.44,8.88,44.42,13.44,67.63,13.44s46.19-4.57,67.63-13.44c21.44-8.88,40.92-21.89,57.34-38.29,16.41-16.4,29.43-35.87,38.31-57.3,8.88-21.43,13.45-44.4,13.45-67.59M666.69,315.91h0Z"/>
    </clipPath>
    <clipPath id="clippath-25">
      <path class="cls-1" d="M843.42,315.91c0-23.19-4.57-46.16-13.45-67.59-8.88-21.43-21.9-40.9-38.31-57.3-16.41-16.4-35.89-29.41-57.34-38.29-21.44-8.88-44.42-13.44-67.63-13.44s-46.19,4.57-67.63,13.44c-21.44,8.88-40.92,21.89-57.34,38.29-16.41,16.4-29.43,35.87-38.31,57.3-8.88,21.43-13.45,44.4-13.45,67.59s4.57,46.16,13.45,67.59c8.88,21.43,21.9,40.9,38.31,57.3,16.41,16.4,35.89,29.41,57.34,38.29,21.44,8.88,44.42,13.44,67.63,13.44s46.19-4.57,67.63-13.44c21.44-8.88,40.92-21.89,57.34-38.29,16.41-16.4,29.43-35.87,38.31-57.3,8.88-21.43,13.45-44.4,13.45-67.59M666.69,315.91h0Z"/>
    </clipPath>
    <clipPath id="clippath-26">
      <path class="cls-1" d="M843.42,315.91c0-23.19-4.57-46.16-13.45-67.59-8.88-21.43-21.9-40.9-38.31-57.3-16.41-16.4-35.89-29.41-57.34-38.29-21.44-8.88-44.42-13.44-67.63-13.44s-46.19,4.57-67.63,13.44c-21.44,8.88-40.92,21.89-57.34,38.29-16.41,16.4-29.43,35.87-38.31,57.3-8.88,21.43-13.45,44.4-13.45,67.59s4.57,46.16,13.45,67.59c8.88,21.43,21.9,40.9,38.31,57.3,16.41,16.4,35.89,29.41,57.34,38.29,21.44,8.88,44.42,13.44,67.63,13.44s46.19-4.57,67.63-13.44c21.44-8.88,40.92-21.89,57.34-38.29,16.41-16.4,29.43-35.87,38.31-57.3,8.88-21.43,13.45-44.4,13.45-67.59M666.69,315.91h0Z"/>
    </clipPath>
    <clipPath id="clippath-27">
      <path class="cls-1" d="M843.42,315.91c0-23.19-4.57-46.16-13.45-67.59-8.88-21.43-21.9-40.9-38.31-57.3-16.41-16.4-35.89-29.41-57.34-38.29-21.44-8.88-44.42-13.44-67.63-13.44s-46.19,4.57-67.63,13.44c-21.44,8.88-40.92,21.89-57.34,38.29-16.41,16.4-29.43,35.87-38.31,57.3-8.88,21.43-13.45,44.4-13.45,67.59s4.57,46.16,13.45,67.59c8.88,21.43,21.9,40.9,38.31,57.3,16.41,16.4,35.89,29.41,57.34,38.29,21.44,8.88,44.42,13.44,67.63,13.44s46.19-4.57,67.63-13.44c21.44-8.88,40.92-21.89,57.34-38.29,16.41-16.4,29.43-35.87,38.31-57.3,8.88-21.43,13.45-44.4,13.45-67.59M666.69,315.91h0Z"/>
    </clipPath>
    <clipPath id="clippath-28">
      <path class="cls-1" d="M843.42,315.91c0-23.19-4.57-46.16-13.45-67.59-8.88-21.43-21.9-40.9-38.31-57.3-16.41-16.4-35.89-29.41-57.34-38.29-21.44-8.88-44.42-13.44-67.63-13.44s-46.19,4.57-67.63,13.44c-21.44,8.88-40.92,21.89-57.34,38.29-16.41,16.4-29.43,35.87-38.31,57.3-8.88,21.43-13.45,44.4-13.45,67.59s4.57,46.16,13.45,67.59c8.88,21.43,21.9,40.9,38.31,57.3,16.41,16.4,35.89,29.41,57.34,38.29,21.44,8.88,44.42,13.44,67.63,13.44s46.19-4.57,67.63-13.44c21.44-8.88,40.92-21.89,57.34-38.29,16.41-16.4,29.43-35.87,38.31-57.3,8.88-21.43,13.45-44.4,13.45-67.59M666.69,315.91h0Z"/>
    </clipPath>
    <clipPath id="clippath-29">
      <path class="cls-1" d="M843.42,315.91c0-23.19-4.57-46.16-13.45-67.59-8.88-21.43-21.9-40.9-38.31-57.3-16.41-16.4-35.89-29.41-57.34-38.29-21.44-8.88-44.42-13.44-67.63-13.44s-46.19,4.57-67.63,13.44c-21.44,8.88-40.92,21.89-57.34,38.29-16.41,16.4-29.43,35.87-38.31,57.3-8.88,21.43-13.45,44.4-13.45,67.59s4.57,46.16,13.45,67.59c8.88,21.43,21.9,40.9,38.31,57.3,16.41,16.4,35.89,29.41,57.34,38.29,21.44,8.88,44.42,13.44,67.63,13.44s46.19-4.57,67.63-13.44c21.44-8.88,40.92-21.89,57.34-38.29,16.41-16.4,29.43-35.87,38.31-57.3,8.88-21.43,13.45-44.4,13.45-67.59M666.69,315.91h0Z"/>
    </clipPath>
    <clipPath id="clippath-30">
      <path class="cls-1" d="M843.42,315.91c0-23.19-4.57-46.16-13.45-67.59-8.88-21.43-21.9-40.9-38.31-57.3-16.41-16.4-35.89-29.41-57.34-38.29-21.44-8.88-44.42-13.44-67.63-13.44s-46.19,4.57-67.63,13.44c-21.44,8.88-40.92,21.89-57.34,38.29-16.41,16.4-29.43,35.87-38.31,57.3-8.88,21.43-13.45,44.4-13.45,67.59s4.57,46.16,13.45,67.59c8.88,21.43,21.9,40.9,38.31,57.3,16.41,16.4,35.89,29.41,57.34,38.29,21.44,8.88,44.42,13.44,67.63,13.44s46.19-4.57,67.63-13.44c21.44-8.88,40.92-21.89,57.34-38.29,16.41-16.4,29.43-35.87,38.31-57.3,8.88-21.43,13.45-44.4,13.45-67.59M666.69,315.91h0Z"/>
    </clipPath>
    <clipPath id="clippath-31">
      <path class="cls-1" d="M843.42,315.91c0-23.19-4.57-46.16-13.45-67.59-8.88-21.43-21.9-40.9-38.31-57.3-16.41-16.4-35.89-29.41-57.34-38.29-21.44-8.88-44.42-13.44-67.63-13.44s-46.19,4.57-67.63,13.44c-21.44,8.88-40.92,21.89-57.34,38.29-16.41,16.4-29.43,35.87-38.31,57.3-8.88,21.43-13.45,44.4-13.45,67.59s4.57,46.16,13.45,67.59c8.88,21.43,21.9,40.9,38.31,57.3,16.41,16.4,35.89,29.41,57.34,38.29,21.44,8.88,44.42,13.44,67.63,13.44s46.19-4.57,67.63-13.44c21.44-8.88,40.92-21.89,57.34-38.29,16.41-16.4,29.43-35.87,38.31-57.3,8.88-21.43,13.45-44.4,13.45-67.59M666.69,315.91h0Z"/>
    </clipPath>
    <clipPath id="clippath-32">
      <path class="cls-1" d="M843.42,315.91c0-23.19-4.57-46.16-13.45-67.59-8.88-21.43-21.9-40.9-38.31-57.3-16.41-16.4-35.89-29.41-57.34-38.29-21.44-8.88-44.42-13.44-67.63-13.44s-46.19,4.57-67.63,13.44c-21.44,8.88-40.92,21.89-57.34,38.29-16.41,16.4-29.43,35.87-38.31,57.3-8.88,21.43-13.45,44.4-13.45,67.59s4.57,46.16,13.45,67.59c8.88,21.43,21.9,40.9,38.31,57.3,16.41,16.4,35.89,29.41,57.34,38.29,21.44,8.88,44.42,13.44,67.63,13.44s46.19-4.57,67.63-13.44c21.44-8.88,40.92-21.89,57.34-38.29,16.41-16.4,29.43-35.87,38.31-57.3,8.88-21.43,13.45-44.4,13.45-67.59M666.69,315.91h0Z"/>
    </clipPath>
    <clipPath id="clippath-33">
      <path class="cls-1" d="M843.42,315.91c0-23.19-4.57-46.16-13.45-67.59-8.88-21.43-21.9-40.9-38.31-57.3-16.41-16.4-35.89-29.41-57.34-38.29-21.44-8.88-44.42-13.44-67.63-13.44s-46.19,4.57-67.63,13.44c-21.44,8.88-40.92,21.89-57.34,38.29-16.41,16.4-29.43,35.87-38.31,57.3-8.88,21.43-13.45,44.4-13.45,67.59s4.57,46.16,13.45,67.59c8.88,21.43,21.9,40.9,38.31,57.3,16.41,16.4,35.89,29.41,57.34,38.29,21.44,8.88,44.42,13.44,67.63,13.44s46.19-4.57,67.63-13.44c21.44-8.88,40.92-21.89,57.34-38.29,16.41-16.4,29.43-35.87,38.31-57.3,8.88-21.43,13.45-44.4,13.45-67.59M666.69,315.91h0Z"/>
    </clipPath>
    <clipPath id="clippath-34">
      <path class="cls-1" d="M843.42,315.91c0-23.19-4.57-46.16-13.45-67.59-8.88-21.43-21.9-40.9-38.31-57.3-16.41-16.4-35.89-29.41-57.34-38.29-21.44-8.88-44.42-13.44-67.63-13.44s-46.19,4.57-67.63,13.44c-21.44,8.88-40.92,21.89-57.34,38.29-16.41,16.4-29.43,35.87-38.31,57.3-8.88,21.43-13.45,44.4-13.45,67.59s4.57,46.16,13.45,67.59c8.88,21.43,21.9,40.9,38.31,57.3,16.41,16.4,35.89,29.41,57.34,38.29,21.44,8.88,44.42,13.44,67.63,13.44s46.19-4.57,67.63-13.44c21.44-8.88,40.92-21.89,57.34-38.29,16.41-16.4,29.43-35.87,38.31-57.3,8.88-21.43,13.45-44.4,13.45-67.59M666.69,315.91h0Z"/>
    </clipPath>
    <clipPath id="clippath-35">
      <path class="cls-1" d="M843.42,315.91c0-23.19-4.57-46.16-13.45-67.59-8.88-21.43-21.9-40.9-38.31-57.3-16.41-16.4-35.89-29.41-57.34-38.29-21.44-8.88-44.42-13.44-67.63-13.44s-46.19,4.57-67.63,13.44c-21.44,8.88-40.92,21.89-57.34,38.29-16.41,16.4-29.43,35.87-38.31,57.3-8.88,21.43-13.45,44.4-13.45,67.59s4.57,46.16,13.45,67.59c8.88,21.43,21.9,40.9,38.31,57.3,16.41,16.4,35.89,29.41,57.34,38.29,21.44,8.88,44.42,13.44,67.63,13.44s46.19-4.57,67.63-13.44c21.44-8.88,40.92-21.89,57.34-38.29,16.41-16.4,29.43-35.87,38.31-57.3,8.88-21.43,13.45-44.4,13.45-67.59M666.69,315.91h0Z"/>
    </clipPath>
    <clipPath id="clippath-36">
      <path class="cls-1" d="M843.42,315.91c0-23.19-4.57-46.16-13.45-67.59-8.88-21.43-21.9-40.9-38.31-57.3-16.41-16.4-35.89-29.41-57.34-38.29-21.44-8.88-44.42-13.44-67.63-13.44s-46.19,4.57-67.63,13.44c-21.44,8.88-40.92,21.89-57.34,38.29-16.41,16.4-29.43,35.87-38.31,57.3-8.88,21.43-13.45,44.4-13.45,67.59s4.57,46.16,13.45,67.59c8.88,21.43,21.9,40.9,38.31,57.3,16.41,16.4,35.89,29.41,57.34,38.29,21.44,8.88,44.42,13.44,67.63,13.44s46.19-4.57,67.63-13.44c21.44-8.88,40.92-21.89,57.34-38.29,16.41-16.4,29.43-35.87,38.31-57.3,8.88-21.43,13.45-44.4,13.45-67.59M666.69,315.91h0Z"/>
    </clipPath>
    <clipPath id="clippath-37">
      <path class="cls-1" d="M843.42,315.91c0-23.19-4.57-46.16-13.45-67.59-8.88-21.43-21.9-40.9-38.31-57.3-16.41-16.4-35.89-29.41-57.34-38.29-21.44-8.88-44.42-13.44-67.63-13.44s-46.19,4.57-67.63,13.44c-21.44,8.88-40.92,21.89-57.34,38.29-16.41,16.4-29.43,35.87-38.31,57.3-8.88,21.43-13.45,44.4-13.45,67.59s4.57,46.16,13.45,67.59c8.88,21.43,21.9,40.9,38.31,57.3,16.41,16.4,35.89,29.41,57.34,38.29,21.44,8.88,44.42,13.44,67.63,13.44s46.19-4.57,67.63-13.44c21.44-8.88,40.92-21.89,57.34-38.29,16.41-16.4,29.43-35.87,38.31-57.3,8.88-21.43,13.45-44.4,13.45-67.59M666.69,315.91h0Z"/>
    </clipPath>
    <clipPath id="clippath-38">
      <path class="cls-1" d="M843.42,315.91c0-23.19-4.57-46.16-13.45-67.59-8.88-21.43-21.9-40.9-38.31-57.3-16.41-16.4-35.89-29.41-57.34-38.29-21.44-8.88-44.42-13.44-67.63-13.44s-46.19,4.57-67.63,13.44c-21.44,8.88-40.92,21.89-57.34,38.29-16.41,16.4-29.43,35.87-38.31,57.3-8.88,21.43-13.45,44.4-13.45,67.59s4.57,46.16,13.45,67.59c8.88,21.43,21.9,40.9,38.31,57.3,16.41,16.4,35.89,29.41,57.34,38.29,21.44,8.88,44.42,13.44,67.63,13.44s46.19-4.57,67.63-13.44c21.44-8.88,40.92-21.89,57.34-38.29,16.41-16.4,29.43-35.87,38.31-57.3,8.88-21.43,13.45-44.4,13.45-67.59M666.69,315.91h0Z"/>
    </clipPath>
  </defs>
  <g id="patch_2" data-name="patch 2">
    <path class="cls-1" d="M388.46,315.98c0-23.21-4.57-46.19-13.45-67.64-8.88-21.44-21.9-40.93-38.31-57.34-16.41-16.41-35.9-29.43-57.34-38.31-21.44-8.88-44.43-13.45-67.64-13.45s-46.19,4.57-67.64,13.45c-21.44,8.88-40.93,21.9-57.34,38.31-16.41,16.41-29.43,35.9-38.31,57.34-8.88,21.44-13.45,44.43-13.45,67.64s4.57,46.19,13.45,67.64c8.88,21.44,21.9,40.93,38.31,57.34,16.41,16.41,35.9,29.43,57.34,38.31,21.44,8.88,44.43,13.45,67.64,13.45s46.19-4.57,67.64-13.45c21.44-8.88,40.93-21.9,57.34-38.31,16.41-16.41,29.43-35.9,38.31-57.34,8.88-21.44,13.45-44.43,13.45-67.64M211.72,315.98h0Z"/>
  </g>
  <g id="patch_3" data-name="patch 3">
    <g class="cls-74">
      <path class="cls-16" d="M211.72,299.15l112.98,82.06-127.55-56.81,14.58-25.25Z"/>
    </g>
  </g>
  <g id="patch_4" data-name="patch 4">
    <g class="cls-60">
      <path class="cls-24" d="M211.72,160.29l75.59,199.33-194.18,24.83,118.6-224.16Z"/>
    </g>
  </g>
  <g id="patch_5" data-name="patch 5">
    <g class="cls-63">
      <path class="cls-17" d="M211.72,191.86l98.22,180.83-141.27-31.85,43.05-148.98Z"/>
    </g>
  </g>
  <g id="patch_6" data-name="patch 6">
    <g class="cls-61">
      <path class="cls-22" d="M211.72,177.95l105.76,199.09-198.29-7.64,92.53-191.46Z"/>
    </g>
  </g>
  <g id="patch_7" data-name="patch 7">
    <g class="cls-62">
      <path class="cls-14" d="M211.72,156.8l90.67,211.53-236.45,31.81,145.78-243.35Z"/>
    </g>
  </g>
  <g id="line2d_1" data-name="line2d 1">
    <g class="cls-68">
      <path class="cls-7" d="M211.72,315.98v-176.74"/>
    </g>
  </g>
  <g id="text_1" data-name="text 1">
    <text class="cls-23" transform="translate(199.43 104.92)"><tspan x="0" y="0">Size</tspan></text>
    <text class="cls-21" transform="translate(198.18 118.6)"><tspan class="cls-73" x="0" y="0">(</tspan><tspan class="cls-25" x="3.6" y="0">MB</tspan><tspan class="cls-73" x="21.07" y="0">)</tspan></text>
  </g>
  <g id="xtick_2" data-name="xtick 2">
    <g id="line2d_2" data-name="line2d 2">
      <g class="cls-65">
        <path class="cls-7" d="M211.72,315.98l153.07,88.37"/>
      </g>
    </g>
    <g id="text_2" data-name="text 2">
      <text class="cls-23" transform="translate(365.17 419.39)"><tspan x="0" y="0">Accuracy</tspan></text>
      <text class="cls-21" transform="translate(378.74 433.07)"><tspan class="cls-73" x="0" y="0">(</tspan><tspan class="cls-30" x="3.6" y="0">CPU</tspan><tspan class="cls-73" x="27.5" y="0">)</tspan></text>
    </g>
  </g>
  <g id="xtick_3" data-name="xtick 3">
    <g id="line2d_3" data-name="line2d 3">
      <g class="cls-64">
        <path class="cls-7" d="M211.72,315.98l-153.07,88.37"/>
      </g>
    </g>
    <g id="text_3" data-name="text 3">
      <text class="cls-23" transform="translate(2.84 419.33)"><tspan x="0" y="0">Latency</tspan></text>
      <text class="cls-21" transform="translate(0 433)"><tspan class="cls-73" x="0" y="0">(</tspan><tspan class="cls-30" x="3.6" y="0">CPU</tspan><tspan class="cls-73" x="27.5" y="0">, </tspan><tspan class="cls-25" x="33.72" y="0">ms</tspan><tspan class="cls-73" x="47.27" y="0">)</tspan></text>
    </g>
  </g>
  <g id="matplotlib.axis_2" data-name="matplotlib.axis 2">
    <g id="ytick_1" data-name="ytick 1">
      <g id="line2d_4" data-name="line2d 4">
        <g class="cls-67">
          <path class="cls-7" d="M211.72,282.32c4.42,0,8.8.87,12.88,2.56,4.08,1.69,7.8,4.17,10.92,7.3s5.61,6.84,7.3,10.92c1.69,4.08,2.56,8.46,2.56,12.88s-.87,8.8-2.56,12.88c-1.69,4.08-4.17,7.8-7.3,10.92s-6.84,5.61-10.92,7.3c-4.08,1.69-8.46,2.56-12.88,2.56s-8.8-.87-12.88-2.56c-4.08-1.69-7.8-4.17-10.92-7.3s-5.61-6.84-7.3-10.92c-1.69-4.08-2.56-8.46-2.56-12.88s.87-8.8,2.56-12.88c1.69-4.08,4.17-7.8,7.3-10.92s6.84-5.61,10.92-7.3c4.08-1.69,8.46-2.56,12.88-2.56"/>
        </g>
      </g>
      <g id="text_4" data-name="text 4">
        <text class="cls-19" transform="translate(211.72 280.99)"><tspan class="cls-25" x="0" y="0">0</tspan><tspan class="cls-73" x="5.54" y="0">.</tspan><tspan class="cls-25" x="8.76" y="0">2</tspan></text>
      </g>
    </g>
    <g id="ytick_2" data-name="ytick 2">
      <g id="line2d_5" data-name="line2d 5">
        <g class="cls-66">
          <path class="cls-7" d="M211.72,248.65c8.84,0,17.6,1.74,25.77,5.13,8.17,3.38,15.59,8.34,21.84,14.6,6.25,6.25,11.21,13.68,14.6,21.84s5.13,16.92,5.13,25.77-1.74,17.6-5.13,25.77c-3.38,8.17-8.34,15.59-14.6,21.84-6.25,6.25-13.68,11.21-21.84,14.6-8.17,3.38-16.92,5.13-25.77,5.13s-17.6-1.74-25.77-5.13c-8.17-3.38-15.59-8.34-21.84-14.6-6.25-6.25-11.21-13.68-14.6-21.84-3.38-8.17-5.13-16.92-5.13-25.77s1.74-17.6,5.13-25.77,8.34-15.59,14.6-21.84c6.25-6.25,13.68-11.21,21.84-14.6,8.17-3.38,16.92-5.13,25.77-5.13"/>
        </g>
      </g>
      <g id="text_5" data-name="text 5">
        <text class="cls-19" transform="translate(211.72 247.32)"><tspan class="cls-25" x="0" y="0">0</tspan><tspan class="cls-73" x="5.54" y="0">.</tspan><tspan class="cls-25" x="8.76" y="0">4</tspan></text>
      </g>
    </g>
    <g id="ytick_3" data-name="ytick 3">
      <g id="line2d_6" data-name="line2d 6">
        <g class="cls-36">
          <path class="cls-7" d="M211.72,214.98c13.26,0,26.4,2.61,38.65,7.69,12.25,5.08,23.39,12.52,32.77,21.89,9.38,9.38,16.82,20.51,21.89,32.77,5.08,12.25,7.69,25.39,7.69,38.65s-2.61,26.4-7.69,38.65c-5.08,12.25-12.52,23.39-21.89,32.77-9.38,9.38-20.51,16.82-32.77,21.89-12.25,5.08-25.39,7.69-38.65,7.69s-26.4-2.61-38.65-7.69c-12.25-5.08-23.39-12.52-32.77-21.89s-16.82-20.51-21.89-32.77c-5.08-12.25-7.69-25.39-7.69-38.65s2.61-26.4,7.69-38.65c5.08-12.25,12.52-23.39,21.89-32.77s20.51-16.82,32.77-21.89c12.25-5.08,25.39-7.69,38.65-7.69"/>
        </g>
      </g>
      <g id="text_6" data-name="text 6">
        <text class="cls-19" transform="translate(211.72 213.65)"><tspan class="cls-25" x="0" y="0">0</tspan><tspan class="cls-73" x="5.54" y="0">.</tspan><tspan class="cls-25" x="8.76" y="0">6</tspan></text>
      </g>
    </g>
    <g id="ytick_4" data-name="ytick 4">
      <g id="line2d_7" data-name="line2d 7">
        <g class="cls-33">
          <path class="cls-7" d="M211.72,181.32c17.68,0,35.2,3.48,51.53,10.25,16.34,6.77,31.18,16.69,43.69,29.19s22.42,27.35,29.19,43.69c6.77,16.34,10.25,33.85,10.25,51.53s-3.48,35.2-10.25,51.53c-6.77,16.34-16.69,31.18-29.19,43.69s-27.35,22.42-43.69,29.19c-16.34,6.77-33.85,10.25-51.53,10.25s-35.2-3.48-51.53-10.25c-16.34-6.77-31.18-16.69-43.69-29.19-12.5-12.5-22.42-27.35-29.19-43.69-6.77-16.34-10.25-33.85-10.25-51.53s3.48-35.2,10.25-51.53c6.77-16.34,16.69-31.18,29.19-43.69,12.5-12.5,27.35-22.42,43.69-29.19s33.85-10.25,51.53-10.25"/>
        </g>
      </g>
      <g id="text_7" data-name="text 7">
        <text class="cls-19" transform="translate(211.72 179.99)"><tspan class="cls-25" x="0" y="0">0</tspan><tspan class="cls-73" x="5.54" y="0">.</tspan><tspan class="cls-25" x="8.76" y="0">8</tspan></text>
      </g>
    </g>
    <g id="ytick_5" data-name="ytick 5">
      <g id="line2d_8" data-name="line2d 8">
        <g class="cls-40">
          <path class="cls-7" d="M211.72,147.65c22.1,0,43.99,4.35,64.42,12.81s38.98,20.86,54.61,36.49c15.63,15.63,28.03,34.19,36.49,54.61,8.46,20.42,12.81,42.31,12.81,64.42s-4.35,43.99-12.81,64.42c-8.46,20.42-20.86,38.98-36.49,54.61s-34.19,28.03-54.61,36.49-42.31,12.81-64.42,12.81-43.99-4.35-64.42-12.81-38.98-20.86-54.61-36.49c-15.63-15.63-28.03-34.19-36.49-54.61-8.46-20.42-12.81-42.31-12.81-64.42s4.35-43.99,12.81-64.42c8.46-20.42,20.86-38.98,36.49-54.61,15.63-15.63,34.19-28.03,54.61-36.49s42.31-12.81,64.42-12.81"/>
        </g>
      </g>
      <g id="text_8" data-name="text 8">
        <text class="cls-19" transform="translate(211.72 146.32)"><tspan class="cls-25" x="0" y="0">1</tspan><tspan class="cls-73" x="5.54" y="0">.</tspan><tspan class="cls-25" x="8.76" y="0">0</tspan></text>
      </g>
    </g>
  </g>
  <g id="patch_8" data-name="patch 8">
    <path class="cls-10" d="M211.72,139.24c-23.21,0-46.19,4.57-67.64,13.45-21.44,8.88-40.93,21.9-57.34,38.31-16.41,16.41-29.43,35.9-38.31,57.34-8.88,21.44-13.45,44.43-13.45,67.64s4.57,46.19,13.45,67.64c8.88,21.44,21.9,40.93,38.31,57.34,16.41,16.41,35.9,29.43,57.34,38.31,21.44,8.88,44.43,13.45,67.64,13.45s46.19-4.57,67.64-13.45c21.44-8.88,40.93-21.9,57.34-38.31,16.41-16.41,29.43-35.9,38.31-57.34,8.88-21.44,13.45-44.43,13.45-67.64s-4.57-46.19-13.45-67.64c-8.88-21.44-21.9-40.93-38.31-57.34-16.41-16.41-35.9-29.43-57.34-38.31-21.44-8.88-44.43-13.45-67.64-13.45"/>
  </g>
  <g id="text_9" data-name="text 9">
    <text class="cls-18" transform="translate(114.62 80.21)"><tspan class="cls-25" x="0" y="0">CPU</tspan><tspan class="cls-73" x="31.87" y="0"> </tspan><tspan class="cls-25" x="35.87" y="0">综合性能对比</tspan><tspan class="cls-73" x="131.87" y="0" xml:space="preserve"> (</tspan><tspan class="cls-25" x="140.67" y="0">Base模型</tspan><tspan class="cls-73" x="200.32" y="0">)</tspan></text>
  </g>
  <g id="line2d_9" data-name="line2d 9">
    <g class="cls-38">
      <path class="cls-8" d="M211.72,299.15l112.98,82.06-127.55-56.81,14.58-25.25"/>
    </g>
  </g>
  <g id="line2d_10" data-name="line2d 10">
    <g class="cls-39">
      <path class="cls-5" d="M211.72,160.29l75.59,199.33-194.18,24.83,118.6-224.16"/>
    </g>
  </g>
  <g id="line2d_11" data-name="line2d 11">
    <g class="cls-37">
      <path class="cls-6" d="M211.72,191.86l98.22,180.83-141.27-31.85,43.05-148.98"/>
    </g>
  </g>
  <g id="legend_1" data-name="legend 1">
    <g id="patch_9" data-name="patch 9">
      <path class="cls-12" d="M284.74,584.19h197.46c1.47,0,2.2-.73,2.2-2.2v-79.86c0-1.47-.73-2.2-2.2-2.2h-197.46c-1.47,0-2.2.73-2.2,2.2v79.86c0,1.47.73,2.2,2.2,2.2Z"/>
    </g>
    <g id="line2d_12" data-name="line2d 12">
      <path class="cls-8" d="M286.94,509.71h22"/>
    </g>
    <g id="text_10" data-name="text 10">
      <text class="cls-21" transform="translate(317.74 513.56)"><tspan class="cls-25" x="0" y="0">1</tspan><tspan class="cls-73" x="5.54" y="0">. </tspan><tspan class="cls-25" x="11.76" y="0">Base</tspan><tspan class="cls-73" x="32.5" y="0"> </tspan><tspan class="cls-27" x="35.5" y="0">Baseline</tspan><tspan class="cls-73" x="73.16" y="0" xml:space="preserve"> (</tspan><tspan class="cls-25" x="79.76" y="0">12L</tspan><tspan class="cls-73" x="97.16" y="0">, </tspan><tspan class="cls-25" x="103.38" y="0">FP32</tspan><tspan class="cls-73" x="127.13" y="0">)</tspan></text>
    </g>
    <g id="line2d_13" data-name="line2d 13">
      <path class="cls-5" d="M286.94,525.9h22"/>
    </g>
    <g id="text_11" data-name="text 11">
      <text class="cls-21" transform="translate(317.74 529.75)"><tspan class="cls-25" x="0" y="0">3</tspan><tspan class="cls-73" x="5.54" y="0">. </tspan><tspan class="cls-25" x="11.76" y="0">Base</tspan><tspan class="cls-73" x="32.5" y="0"> </tspan><tspan class="cls-27" x="35.5" y="0">Baseline</tspan><tspan class="cls-73" x="73.16" y="0" xml:space="preserve"> (</tspan><tspan class="cls-25" x="79.76" y="0">12L</tspan><tspan class="cls-73" x="97.16" y="0">, </tspan><tspan class="cls-25" x="103.38" y="0">PTQ</tspan><tspan class="cls-73" x="126.45" y="0"> </tspan><tspan class="cls-25" x="129.45" y="0">INT8</tspan><tspan class="cls-70" x="155.19" y="0">)</tspan></text>
    </g>
    <g id="line2d_14" data-name="line2d 14">
      <path class="cls-6" d="M286.94,542.09h22"/>
    </g>
    <g id="text_12" data-name="text 12">
      <text class="cls-21" transform="translate(317.74 545.94)"><tspan class="cls-25" x="0" y="0">4</tspan><tspan class="cls-73" x="5.54" y="0">. </tspan><tspan class="cls-25" x="11.76" y="0">Base</tspan><tspan class="cls-73" x="32.5" y="0"> </tspan><tspan class="cls-27" x="35.5" y="0">Baseline</tspan><tspan class="cls-73" x="73.16" y="0" xml:space="preserve"> (</tspan><tspan class="cls-25" x="79.76" y="0">12L</tspan><tspan class="cls-73" x="97.16" y="0">, </tspan><tspan class="cls-25" x="103.38" y="0">QAT</tspan><tspan class="cls-70" x="128.13" y="0">)</tspan></text>
    </g>
    <g id="line2d_15" data-name="line2d 15">
      <path class="cls-9" d="M286.94,558.28h22"/>
    </g>
    <g id="text_13" data-name="text 13">
      <text class="cls-21" transform="translate(317.74 562.13)"><tspan class="cls-25" x="0" y="0">5</tspan><tspan class="cls-73" x="5.54" y="0">. </tspan><tspan class="cls-25" x="11.76" y="0">Base</tspan><tspan class="cls-73" x="32.5" y="0"> </tspan><tspan class="cls-25" x="35.5" y="0">Pruned</tspan><tspan class="cls-73" x="69.94" y="0" xml:space="preserve"> (</tspan><tspan class="cls-25" x="76.54" y="0">8L</tspan><tspan class="cls-73" x="88.39" y="0">, </tspan><tspan class="cls-25" x="94.61" y="0">FP32</tspan><tspan class="cls-73" x="118.35" y="0">)</tspan></text>
    </g>
    <g id="line2d_16" data-name="line2d 16">
      <path class="cls-4" d="M286.94,574.47h22"/>
    </g>
    <g id="text_14" data-name="text 14">
      <text class="cls-21" transform="translate(317.74 578.33)"><tspan class="cls-25" x="0" y="0">8</tspan><tspan class="cls-73" x="5.54" y="0">. </tspan><tspan class="cls-25" x="11.76" y="0">Base</tspan><tspan class="cls-73" x="32.5" y="0"> </tspan><tspan class="cls-25" x="35.5" y="0">Pruned</tspan><tspan class="cls-73" x="69.94" y="0" xml:space="preserve"> (</tspan><tspan class="cls-25" x="76.54" y="0">8L</tspan><tspan class="cls-73" x="88.39" y="0">, </tspan><tspan class="cls-25" x="94.61" y="0">PTQ</tspan><tspan class="cls-73" x="117.68" y="0"> </tspan><tspan class="cls-25" x="120.68" y="0">INT8</tspan><tspan class="cls-72" x="146.42" y="0">)</tspan></text>
    </g>
  </g>
  <g id="line2d_17" data-name="line2d 17">
    <g class="cls-34">
      <path class="cls-9" d="M211.72,177.95l105.76,199.09-198.29-7.64,92.53-191.46"/>
    </g>
  </g>
  <g id="line2d_18" data-name="line2d 18">
    <g class="cls-31">
      <path class="cls-4" d="M211.72,156.8l90.67,211.53-236.45,31.81,145.78-243.35"/>
    </g>
  </g>
  <g id="patch_1" data-name="patch 1">
    <path class="cls-1" d="M405.82,555.72h651.62V51.11H405.82v504.61Z"/>
  </g>
  <g id="patch_2-2" data-name="patch 2">
    <path class="cls-1" d="M843.42,315.91c0-23.19-4.57-46.16-13.45-67.59-8.88-21.43-21.9-40.9-38.31-57.3-16.41-16.4-35.89-29.41-57.34-38.29-21.44-8.88-44.42-13.44-67.63-13.44s-46.19,4.57-67.63,13.44c-21.44,8.88-40.92,21.89-57.34,38.29-16.41,16.4-29.43,35.87-38.31,57.3-8.88,21.43-13.45,44.4-13.45,67.59s4.57,46.16,13.45,67.59c8.88,21.43,21.9,40.9,38.31,57.3,16.41,16.4,35.89,29.41,57.34,38.29,21.44,8.88,44.42,13.44,67.63,13.44s46.19-4.57,67.63-13.44c21.44-8.88,40.92-21.89,57.34-38.29,16.41-16.4,29.43-35.87,38.31-57.3,8.88-21.43,13.45-44.4,13.45-67.59M666.69,315.91h0Z"/>
  </g>
  <g id="patch_3-2" data-name="patch 3">
    <g class="cls-35">
      <path class="cls-16" d="M666.69,299.09l130.44,16.82-130.44,147.84-35.85-147.84,35.85-16.82Z"/>
    </g>
  </g>
  <g id="patch_4-2" data-name="patch 4">
    <g class="cls-32">
      <path class="cls-15" d="M666.69,149.86l130.44,166.05-130.44,16.82-168.31-16.82,168.31-166.05Z"/>
    </g>
  </g>
  <g id="patch_5-2" data-name="patch 5">
    <g class="cls-54">
      <path class="cls-17" d="M666.69,191.87l113.4,124.04-113.4,147.41-16.83-147.41,16.83-124.04Z"/>
    </g>
  </g>
  <g id="patch_6-2" data-name="patch 6">
    <g class="cls-55">
      <path class="cls-22" d="M666.69,177.97l122.11,137.94-122.11,168.21-61.31-168.21,61.31-137.94Z"/>
    </g>
  </g>
  <g id="patch_7-2" data-name="patch 7">
    <g class="cls-56">
      <path class="cls-20" d="M666.69,158.09l117.57,157.82-117.57,167.78-124.03-167.78,124.03-157.82Z"/>
    </g>
  </g>
  <g id="patch_8-2" data-name="patch 8">
    <g class="cls-57">
      <path class="cls-13" d="M666.69,147.7l122.11,168.21-122.11,24.33-165.41-24.33,165.41-168.21Z"/>
    </g>
  </g>
  <g id="line2d_1-2" data-name="line2d 1">
    <g class="cls-58">
      <path class="cls-7" d="M666.69,315.91v-176.62"/>
    </g>
  </g>
  <g id="text_1-2" data-name="text 1">
    <text class="cls-23" transform="translate(654.12 103.3)"><tspan x="0" y="0">Size</tspan></text>
    <text class="cls-21" transform="translate(652.68 118.96)"><tspan class="cls-73" x="0" y="0">(</tspan><tspan class="cls-25" x="3.6" y="0">MB</tspan><tspan class="cls-73" x="21.07" y="0">)</tspan></text>
  </g>
  <g id="xtick_2-2" data-name="xtick 2">
    <g id="line2d_2-2" data-name="line2d 2">
      <g class="cls-59">
        <path class="cls-7" d="M666.69,315.91h176.73"/>
      </g>
    </g>
    <g id="text_2-2" data-name="text 2">
      <text class="cls-23" transform="translate(849.31 312.81)"><tspan x="0" y="0">Accuracy</tspan></text>
      <text class="cls-21" transform="translate(864.45 328.47)"><tspan class="cls-73" x="0" y="0">(</tspan><tspan class="cls-29" x="3.6" y="0">GPU</tspan><tspan class="cls-73" x="27.91" y="0">)</tspan></text>
    </g>
  </g>
  <g id="xtick_3-2" data-name="xtick 3">
    <g id="line2d_3-2" data-name="line2d 3">
      <g class="cls-52">
        <path class="cls-7" d="M666.69,315.91v176.62"/>
      </g>
    </g>
    <g id="text_3-2" data-name="text 3">
      <text class="cls-23" transform="translate(637.98 529.99)"><tspan x="0" y="0">Latency</tspan></text>
      <text class="cls-21" transform="translate(634.32 545.65)"><tspan class="cls-73" x="0" y="0">(</tspan><tspan class="cls-25" x="3.6" y="0">GPU</tspan><tspan class="cls-73" x="27.91" y="0">, </tspan><tspan class="cls-25" x="34.13" y="0">ms</tspan><tspan class="cls-73" x="47.68" y="0">)</tspan></text>
    </g>
  </g>
  <g id="xtick_4" data-name="xtick 4">
    <g id="line2d_4-2" data-name="line2d 4">
      <g class="cls-50">
        <path class="cls-7" d="M666.69,315.91h-176.73"/>
      </g>
    </g>
    <g id="text_4-2" data-name="text 4">
      <text class="cls-23" transform="translate(432.62 305.14)"><tspan x="0" y="0">Peak</tspan></text>
      <text class="cls-21" transform="translate(414.07 320.32)"><tspan class="cls-25" x="0" y="0">GPU</tspan><tspan class="cls-73" x="24.31" y="0"> </tspan><tspan class="cls-25" x="27.31" y="0">Mem</tspan></text>
      <text class="cls-21" transform="translate(433.96 335.98)"><tspan class="cls-73" x="0" y="0">(</tspan><tspan class="cls-25" x="3.6" y="0">MB</tspan><tspan class="cls-73" x="21.07" y="0">)</tspan></text>
    </g>
  </g>
  <g id="matplotlib.axis_2-2" data-name="matplotlib.axis 2">
    <g id="ytick_1-2" data-name="ytick 1">
      <g id="line2d_5-2" data-name="line2d 5">
        <g class="cls-53">
          <path class="cls-7" d="M666.69,282.27c4.42,0,8.8.87,12.88,2.56,4.08,1.69,7.8,4.17,10.92,7.29,3.13,3.12,5.61,6.83,7.3,10.91,1.69,4.08,2.56,8.46,2.56,12.87s-.87,8.79-2.56,12.87c-1.69,4.08-4.17,7.79-7.3,10.91-3.13,3.12-6.84,5.6-10.92,7.29-4.08,1.69-8.46,2.56-12.88,2.56s-8.8-.87-12.88-2.56c-4.08-1.69-7.8-4.17-10.92-7.29-3.13-3.12-5.61-6.83-7.3-10.91s-2.56-8.46-2.56-12.87.87-8.79,2.56-12.87,4.17-7.79,7.3-10.91c3.13-3.12,6.84-5.6,10.92-7.29s8.46-2.56,12.88-2.56"/>
        </g>
      </g>
      <g id="text_5-2" data-name="text 5">
        <text class="cls-19" transform="translate(666.69 280.75)"><tspan class="cls-25" x="0" y="0">0</tspan><tspan class="cls-73" x="5.54" y="0">.</tspan><tspan class="cls-25" x="8.76" y="0">2</tspan></text>
      </g>
    </g>
    <g id="ytick_2-2" data-name="ytick 2">
      <g id="line2d_6-2" data-name="line2d 6">
        <g class="cls-51">
          <path class="cls-7" d="M666.69,248.63c8.84,0,17.6,1.74,25.76,5.12,8.17,3.38,15.59,8.34,21.84,14.59,6.25,6.25,11.21,13.67,14.59,21.83,3.38,8.16,5.12,16.91,5.12,25.75s-1.74,17.59-5.12,25.75c-3.38,8.16-8.34,15.58-14.59,21.83-6.25,6.25-13.67,11.2-21.84,14.59-8.17,3.38-16.92,5.12-25.76,5.12s-17.6-1.74-25.76-5.12c-8.17-3.38-15.59-8.34-21.84-14.59-6.25-6.25-11.21-13.67-14.59-21.83-3.38-8.16-5.12-16.91-5.12-25.75s1.74-17.59,5.12-25.75c3.38-8.16,8.34-15.58,14.59-21.83,6.25-6.25,13.67-11.2,21.84-14.59,8.17-3.38,16.92-5.12,25.76-5.12"/>
        </g>
      </g>
      <g id="text_6-2" data-name="text 6">
        <text class="cls-19" transform="translate(666.69 247.1)"><tspan class="cls-25" x="0" y="0">0</tspan><tspan class="cls-73" x="5.54" y="0">.</tspan><tspan class="cls-25" x="8.76" y="0">4</tspan></text>
      </g>
    </g>
    <g id="ytick_3-2" data-name="ytick 3">
      <g id="line2d_7-2" data-name="line2d 7">
        <g class="cls-46">
          <path class="cls-7" d="M666.69,214.98c13.26,0,26.39,2.61,38.65,7.68,12.25,5.07,23.39,12.51,32.76,21.88,9.38,9.37,16.82,20.5,21.89,32.74,5.08,12.24,7.69,25.37,7.69,38.62s-2.61,26.38-7.69,38.62c-5.08,12.24-12.51,23.37-21.89,32.74-9.38,9.37-20.51,16.81-32.76,21.88-12.25,5.07-25.38,7.68-38.65,7.68s-26.39-2.61-38.65-7.68c-12.25-5.07-23.39-12.51-32.76-21.88-9.38-9.37-16.82-20.5-21.89-32.74-5.08-12.24-7.69-25.37-7.69-38.62s2.61-26.38,7.69-38.62c5.08-12.24,12.51-23.37,21.89-32.74,9.38-9.37,20.51-16.81,32.76-21.88,12.25-5.07,25.38-7.68,38.65-7.68"/>
        </g>
      </g>
      <g id="text_7-2" data-name="text 7">
        <text class="cls-19" transform="translate(666.69 213.46)"><tspan class="cls-25" x="0" y="0">0</tspan><tspan class="cls-73" x="5.54" y="0">.</tspan><tspan class="cls-25" x="8.76" y="0">6</tspan></text>
      </g>
    </g>
    <g id="ytick_4-2" data-name="ytick 4">
      <g id="line2d_8-2" data-name="line2d 8">
        <g class="cls-41">
          <path class="cls-7" d="M666.69,181.34c17.68,0,35.19,3.48,51.53,10.24,16.34,6.76,31.18,16.68,43.68,29.17,12.5,12.5,22.42,27.33,29.19,43.66,6.77,16.33,10.25,33.83,10.25,51.5s-3.48,35.17-10.25,51.5c-6.77,16.33-16.69,31.16-29.19,43.66-12.5,12.5-27.35,22.41-43.68,29.17-16.34,6.76-33.85,10.24-51.53,10.24s-35.19-3.48-51.53-10.24c-16.34-6.76-31.18-16.68-43.68-29.17-12.5-12.5-22.42-27.33-29.19-43.66-6.77-16.33-10.25-33.83-10.25-51.5s3.48-35.17,10.25-51.5c6.77-16.33,16.69-31.16,29.19-43.66s27.35-22.41,43.68-29.17,33.85-10.24,51.53-10.24"/>
        </g>
      </g>
      <g id="text_8-2" data-name="text 8">
        <text class="cls-19" transform="translate(666.69 179.82)"><tspan class="cls-25" x="0" y="0">0</tspan><tspan class="cls-73" x="5.54" y="0">.</tspan><tspan class="cls-25" x="8.76" y="0">8</tspan></text>
      </g>
    </g>
    <g id="ytick_5-2" data-name="ytick 5">
      <g id="line2d_9-2" data-name="line2d 9">
        <g class="cls-42">
          <path class="cls-7" d="M666.69,147.7c22.1,0,43.99,4.35,64.41,12.8,20.42,8.45,38.98,20.84,54.6,36.46,15.63,15.62,28.03,34.16,36.49,54.57,8.46,20.41,12.81,42.28,12.81,64.37s-4.35,43.96-12.81,64.37c-8.46,20.41-20.86,38.95-36.49,54.57-15.63,15.62-34.18,28.01-54.6,36.46-20.42,8.45-42.31,12.8-64.41,12.8s-43.99-4.35-64.41-12.8c-20.42-8.45-38.98-20.84-54.6-36.46-15.63-15.62-28.03-34.16-36.49-54.57-8.46-20.41-12.81-42.28-12.81-64.37s4.35-43.96,12.81-64.37c8.46-20.41,20.86-38.95,36.49-54.57,15.63-15.62,34.18-28.01,54.6-36.46,20.42-8.45,42.31-12.8,64.41-12.8"/>
        </g>
      </g>
      <g id="text_9-2" data-name="text 9">
        <text class="cls-19" transform="translate(666.69 146.18)"><tspan class="cls-25" x="0" y="0">1</tspan><tspan class="cls-73" x="5.54" y="0">.</tspan><tspan class="cls-25" x="8.76" y="0">0</tspan></text>
      </g>
    </g>
  </g>
  <g id="patch_9-2" data-name="patch 9">
    <path class="cls-10" d="M666.69,139.29c-23.21,0-46.19,4.57-67.63,13.44-21.44,8.88-40.92,21.89-57.34,38.29-16.41,16.4-29.43,35.87-38.31,57.3-8.88,21.43-13.45,44.4-13.45,67.59s4.57,46.16,13.45,67.59c8.88,21.43,21.9,40.9,38.31,57.3,16.41,16.4,35.89,29.41,57.34,38.29,21.44,8.88,44.42,13.44,67.63,13.44s46.19-4.57,67.63-13.44c21.44-8.88,40.92-21.89,57.34-38.29,16.41-16.4,29.43-35.87,38.31-57.3,8.88-21.43,13.45-44.4,13.45-67.59s-4.57-46.16-13.45-67.59c-8.88-21.43-21.9-40.9-38.31-57.3-16.41-16.4-35.89-29.41-57.34-38.29-21.44-8.88-44.42-13.44-67.63-13.44"/>
  </g>
  <text class="cls-18" transform="translate(565.82 79.43)"><tspan class="cls-25" x="0" y="0">GPU</tspan><tspan class="cls-73" x="32.42" y="0"> </tspan><tspan class="cls-25" x="36.42" y="0">综合性能对比</tspan><tspan class="cls-73" x="132.42" y="0" xml:space="preserve"> (</tspan><tspan class="cls-25" x="141.22" y="0">Base模型</tspan><tspan class="cls-73" x="200.86" y="0">)</tspan></text>
  <g id="line2d_10-2" data-name="line2d 10">
    <g class="cls-43">
      <path class="cls-8" d="M666.69,299.09l130.44,16.82-130.44,147.84-35.85-147.84,35.85-16.82"/>
    </g>
  </g>
  <g id="line2d_11-2" data-name="line2d 11">
    <g class="cls-44">
      <path class="cls-2" d="M666.69,149.86l130.44,166.05-130.44,16.82-168.31-16.82,168.31-166.05"/>
    </g>
  </g>
  <g id="line2d_12-2" data-name="line2d 12">
    <g class="cls-45">
      <path class="cls-6" d="M666.69,191.87l113.4,124.04-113.4,147.41-16.83-147.41,16.83-124.04"/>
    </g>
  </g>
  <g id="legend_1-2" data-name="legend 1">
    <g id="patch_10" data-name="patch 10">
      <path class="cls-12" d="M816.31,605.33h202.25c1.68,0,2.52-.84,2.52-2.52v-109.96c0-1.68-.84-2.52-2.52-2.52h-202.25c-1.68,0-2.52.84-2.52,2.52v109.96c0,1.68.84,2.52,2.52,2.52Z"/>
    </g>
    <g id="line2d_13-2" data-name="line2d 13">
      <path class="cls-8" d="M818.83,501.53h25.2"/>
    </g>
    <g id="text_11-2" data-name="text 11">
      <text class="cls-21" transform="translate(854.11 505.94)"><tspan class="cls-25" x="0" y="0">1</tspan><tspan class="cls-73" x="5.54" y="0">. </tspan><tspan class="cls-29" x="11.76" y="0">Base</tspan><tspan class="cls-69" x="32.5" y="0"> </tspan><tspan class="cls-29" x="35.5" y="0">Baseline</tspan><tspan class="cls-73" x="73.16" y="0" xml:space="preserve"> (</tspan><tspan class="cls-25" x="79.76" y="0">12L</tspan><tspan class="cls-71" x="97.16" y="0">, </tspan><tspan class="cls-25" x="103.38" y="0">FP32</tspan><tspan class="cls-71" x="127.13" y="0">)</tspan></text>
    </g>
    <g id="line2d_14-2" data-name="line2d 14">
      <path class="cls-2" d="M818.83,520.07h25.2"/>
    </g>
    <g id="text_12-2" data-name="text 12">
      <text class="cls-21" transform="translate(854.11 524.48)"><tspan class="cls-25" x="0" y="0">2</tspan><tspan class="cls-73" x="5.54" y="0">. </tspan><tspan class="cls-29" x="11.76" y="0">Base</tspan><tspan class="cls-69" x="32.5" y="0"> </tspan><tspan class="cls-29" x="35.5" y="0">Baseline</tspan><tspan class="cls-73" x="73.16" y="0" xml:space="preserve"> (</tspan><tspan class="cls-25" x="79.76" y="0">12L</tspan><tspan class="cls-71" x="97.16" y="0">, </tspan><tspan class="cls-25" x="103.38" y="0">INT4</tspan><tspan class="cls-73" x="129.12" y="0">)</tspan></text>
    </g>
    <g id="line2d_15-2" data-name="line2d 15">
      <path class="cls-6" d="M818.83,538.61h25.2"/>
    </g>
    <g id="text_13-2" data-name="text 13">
      <text class="cls-21" transform="translate(854.11 543.01)"><tspan class="cls-25" x="0" y="0">4</tspan><tspan class="cls-73" x="5.54" y="0">. </tspan><tspan class="cls-29" x="11.76" y="0">Base</tspan><tspan class="cls-69" x="32.5" y="0"> </tspan><tspan class="cls-29" x="35.5" y="0">Baseline</tspan><tspan class="cls-73" x="73.16" y="0" xml:space="preserve"> (</tspan><tspan class="cls-25" x="79.76" y="0">12L</tspan><tspan class="cls-71" x="97.16" y="0">, </tspan><tspan class="cls-25" x="103.38" y="0">QAT</tspan><tspan class="cls-71" x="128.13" y="0">)</tspan></text>
    </g>
    <g id="line2d_16-2" data-name="line2d 16">
      <path class="cls-9" d="M818.83,557.14h25.2"/>
    </g>
    <g id="text_14-2" data-name="text 14">
      <text class="cls-21" transform="translate(854.11 561.55)"><tspan class="cls-25" x="0" y="0">5</tspan><tspan class="cls-73" x="5.54" y="0">. </tspan><tspan class="cls-29" x="11.76" y="0">Base</tspan><tspan class="cls-69" x="32.5" y="0"> </tspan><tspan class="cls-25" x="35.5" y="0">Pruned</tspan><tspan class="cls-73" x="69.94" y="0" xml:space="preserve"> (</tspan><tspan class="cls-25" x="76.53" y="0">8L</tspan><tspan class="cls-73" x="88.39" y="0">, </tspan><tspan class="cls-26" x="94.61" y="0">FP32</tspan><tspan class="cls-73" x="118.35" y="0">)</tspan></text>
    </g>
    <g id="line2d_17-2" data-name="line2d 17">
      <path class="cls-11" d="M818.83,575.68h25.2"/>
    </g>
    <g id="text_15" data-name="text 15">
      <text class="cls-21" transform="translate(854.11 580.09)"><tspan class="cls-25" x="0" y="0">6</tspan><tspan class="cls-73" x="5.54" y="0">. </tspan><tspan class="cls-29" x="11.76" y="0">Base</tspan><tspan class="cls-69" x="32.5" y="0"> </tspan><tspan class="cls-25" x="35.5" y="0">Pruned</tspan><tspan class="cls-73" x="69.94" y="0" xml:space="preserve"> (</tspan><tspan class="cls-25" x="76.53" y="0">8L</tspan><tspan class="cls-73" x="88.39" y="0">, </tspan><tspan class="cls-26" x="94.61" y="0">FP16</tspan><tspan class="cls-73" x="118.35" y="0">)</tspan></text>
    </g>
    <g id="line2d_18-2" data-name="line2d 18">
      <path class="cls-3" d="M818.83,594.21h25.2"/>
    </g>
    <g id="text_16" data-name="text 16">
      <text class="cls-21" transform="translate(854.11 598.62)"><tspan class="cls-25" x="0" y="0">7</tspan><tspan class="cls-73" x="5.54" y="0">. </tspan><tspan class="cls-29" x="11.76" y="0">Base</tspan><tspan class="cls-69" x="32.5" y="0"> </tspan><tspan class="cls-25" x="35.5" y="0">Pruned</tspan><tspan class="cls-73" x="69.94" y="0" xml:space="preserve"> (</tspan><tspan class="cls-25" x="76.53" y="0">8L</tspan><tspan class="cls-73" x="88.39" y="0">, </tspan><tspan class="cls-26" x="94.61" y="0">INT4</tspan><tspan class="cls-73" x="120.35" y="0">)</tspan></text>
    </g>
  </g>
  <g id="line2d_19" data-name="line2d 19">
    <g class="cls-47">
      <path class="cls-9" d="M666.69,177.97l122.11,137.94-122.11,168.21-61.31-168.21,61.31-137.94"/>
    </g>
  </g>
  <g id="line2d_20" data-name="line2d 20">
    <g class="cls-48">
      <path class="cls-11" d="M666.69,158.09l117.57,157.82-117.57,167.78-124.03-167.78,124.03-157.82"/>
    </g>
  </g>
  <g id="line2d_21" data-name="line2d 21">
    <g class="cls-49">
      <path class="cls-3" d="M666.69,147.7l122.11,168.21-122.11,24.33-165.41-24.33,165.41-168.21"/>
    </g>
  </g>
  <text class="cls-28" transform="translate(809.81 10.56)"><tspan x="0" y="0">*所有均已归一化，数值越大越好</tspan></text>
</svg>