<?xml version="1.0" encoding="UTF-8"?>
<svg id="_图层_1" data-name="图层 1" xmlns="http://www.w3.org/2000/svg" xmlns:xlink="http://www.w3.org/1999/xlink" viewBox="0 0 1060.29 603.21">
  <defs>
    <style>
      .cls-1, .cls-2, .cls-3, .cls-4, .cls-5, .cls-6, .cls-7, .cls-8, .cls-9, .cls-10, .cls-11 {
        fill: none;
      }

      .cls-12 {
        fill: #fff;
        opacity: .8;
        stroke: #ccc;
      }

      .cls-12, .cls-13, .cls-14, .cls-15, .cls-16, .cls-17, .cls-18, .cls-19, .cls-20, .cls-21, .cls-22, .cls-23, .cls-24 {
        isolation: isolate;
      }

      .cls-2 {
        stroke: rgba(87, 171, 220, .7);
      }

      .cls-2, .cls-3, .cls-4, .cls-5, .cls-6, .cls-7, .cls-8, .cls-9, .cls-10, .cls-11 {
        stroke-linecap: square;
      }

      .cls-2, .cls-3, .cls-4, .cls-5, .cls-6, .cls-7, .cls-8, .cls-9, .cls-11 {
        stroke-linejoin: round;
      }

      .cls-2, .cls-5, .cls-6, .cls-8 {
        stroke-width: 1.5px;
      }

      .cls-3, .cls-4, .cls-9, .cls-11 {
        stroke-width: 2.5px;
      }

      .cls-3, .cls-13 {
        stroke: #de9b15;
      }

      .cls-4, .cls-14 {
        stroke: #8b64a8;
      }

      .cls-13 {
        fill: #de9b15;
      }

      .cls-13, .cls-14, .cls-20, .cls-22 {
        opacity: .25;
      }

      .cls-5 {
        stroke: rgba(21, 152, 112, .7);
      }

      .cls-6 {
        stroke: rgba(16, 110, 167, .7);
      }

      .cls-14 {
        fill: #8b64a8;
      }

      .cls-7 {
        stroke: #b0b0b0;
      }

      .cls-7, .cls-10 {
        stroke-width: .8px;
      }

      .cls-25, .cls-26, .cls-27, .cls-28, .cls-23, .cls-29, .cls-30 {
        font-family: AdobeSongStd-Light-GBpc-EUC-H, 'Adobe Song Std';
        font-weight: 300;
      }

      .cls-15 {
        fill: #57abdc;
        stroke: #57abdc;
      }

      .cls-15, .cls-16, .cls-17, .cls-24 {
        opacity: .1;
      }

      .cls-8 {
        stroke: rgba(137, 137, 137, .7);
      }

      .cls-26 {
        fill: #2ea7e0;
      }

      .cls-26, .cls-18 {
        font-size: 16px;
      }

      .cls-16 {
        fill: #898989;
        stroke: #898989;
      }

      .cls-17 {
        fill: #106ea7;
        stroke: #106ea7;
      }

      .cls-18, .cls-21, .cls-23 {
        fill: #040000;
      }

      .cls-31 {
        clip-path: url(#clippath-17);
      }

      .cls-32 {
        clip-path: url(#clippath-19);
      }

      .cls-33 {
        clip-path: url(#clippath-11);
      }

      .cls-34 {
        clip-path: url(#clippath-16);
      }

      .cls-35 {
        clip-path: url(#clippath-18);
      }

      .cls-36 {
        clip-path: url(#clippath-10);
      }

      .cls-37 {
        clip-path: url(#clippath-15);
      }

      .cls-38 {
        clip-path: url(#clippath-13);
      }

      .cls-39 {
        clip-path: url(#clippath-14);
      }

      .cls-40 {
        clip-path: url(#clippath-12);
      }

      .cls-41 {
        clip-path: url(#clippath-31);
      }

      .cls-42 {
        clip-path: url(#clippath-32);
      }

      .cls-43 {
        clip-path: url(#clippath-33);
      }

      .cls-44 {
        clip-path: url(#clippath-34);
      }

      .cls-45 {
        clip-path: url(#clippath-35);
      }

      .cls-46 {
        clip-path: url(#clippath-30);
      }

      .cls-47 {
        clip-path: url(#clippath-36);
      }

      .cls-48 {
        clip-path: url(#clippath-37);
      }

      .cls-49 {
        clip-path: url(#clippath-38);
      }

      .cls-50 {
        clip-path: url(#clippath-27);
      }

      .cls-51 {
        clip-path: url(#clippath-29);
      }

      .cls-52 {
        clip-path: url(#clippath-26);
      }

      .cls-53 {
        clip-path: url(#clippath-28);
      }

      .cls-54 {
        clip-path: url(#clippath-20);
      }

      .cls-55 {
        clip-path: url(#clippath-21);
      }

      .cls-56 {
        clip-path: url(#clippath-22);
      }

      .cls-57 {
        clip-path: url(#clippath-23);
      }

      .cls-58 {
        clip-path: url(#clippath-24);
      }

      .cls-59 {
        clip-path: url(#clippath-25);
      }

      .cls-60 {
        clip-path: url(#clippath-1);
      }

      .cls-61 {
        clip-path: url(#clippath-3);
      }

      .cls-62 {
        clip-path: url(#clippath-4);
      }

      .cls-63 {
        clip-path: url(#clippath-2);
      }

      .cls-64 {
        clip-path: url(#clippath-7);
      }

      .cls-65 {
        clip-path: url(#clippath-6);
      }

      .cls-66 {
        clip-path: url(#clippath-9);
      }

      .cls-67 {
        clip-path: url(#clippath-8);
      }

      .cls-68 {
        clip-path: url(#clippath-5);
      }

      .cls-27, .cls-69 {
        letter-spacing: 0em;
      }

      .cls-28, .cls-70 {
        letter-spacing: 0em;
      }

      .cls-19 {
        fill: #7f8080;
      }

      .cls-19, .cls-21, .cls-23 {
        font-size: 12px;
      }

      .cls-71 {
        letter-spacing: 0em;
      }

      .cls-71, .cls-72, .cls-73, .cls-70, .cls-69, .cls-74 {
        font-family: NotoSansAdlam-Regular, 'Noto Sans Adlam';
      }

      .cls-20 {
        fill: #bf75ad;
      }

      .cls-20, .cls-11 {
        stroke: #bf75ad;
      }

      .cls-72, .cls-30 {
        letter-spacing: 0em;
      }

      .cls-73 {
        letter-spacing: 0em;
      }

      .cls-22 {
        fill: #cc5d17;
      }

      .cls-22, .cls-9 {
        stroke: #cc5d17;
      }

      .cls-24 {
        fill: #159870;
        stroke: #159870;
      }

      .cls-29 {
        letter-spacing: 0em;
      }

      .cls-75 {
        clip-path: url(#clippath);
      }

      .cls-10 {
        stroke: #040000;
      }
    </style>
    <clipPath id="clippath">
      <path class="cls-1" d="M395.66,313.42c0-23.21-4.57-46.19-13.45-67.64-8.88-21.44-21.9-40.93-38.31-57.34-16.41-16.41-35.9-29.43-57.34-38.31-21.44-8.88-44.43-13.45-67.64-13.45s-46.19,4.57-67.64,13.45c-21.44,8.88-40.93,21.9-57.34,38.31-16.41,16.41-29.43,35.9-38.31,57.34s-13.45,44.43-13.45,67.64,4.57,46.19,13.45,67.64,21.9,40.93,38.31,57.34c16.41,16.41,35.9,29.43,57.34,38.31,21.44,8.88,44.43,13.45,67.64,13.45s46.19-4.57,67.64-13.45c21.44-8.88,40.93-21.9,57.34-38.31,16.41-16.41,29.43-35.9,38.31-57.34,8.88-21.44,13.45-44.43,13.45-67.64M218.92,313.42h0Z"/>
    </clipPath>
    <clipPath id="clippath-1">
      <path class="cls-1" d="M395.66,313.42c0-23.21-4.57-46.19-13.45-67.64-8.88-21.44-21.9-40.93-38.31-57.34-16.41-16.41-35.9-29.43-57.34-38.31-21.44-8.88-44.43-13.45-67.64-13.45s-46.19,4.57-67.64,13.45c-21.44,8.88-40.93,21.9-57.34,38.31-16.41,16.41-29.43,35.9-38.31,57.34s-13.45,44.43-13.45,67.64,4.57,46.19,13.45,67.64,21.9,40.93,38.31,57.34c16.41,16.41,35.9,29.43,57.34,38.31,21.44,8.88,44.43,13.45,67.64,13.45s46.19-4.57,67.64-13.45c21.44-8.88,40.93-21.9,57.34-38.31,16.41-16.41,29.43-35.9,38.31-57.34,8.88-21.44,13.45-44.43,13.45-67.64M218.92,313.42h0Z"/>
    </clipPath>
    <clipPath id="clippath-2">
      <path class="cls-1" d="M395.66,313.42c0-23.21-4.57-46.19-13.45-67.64-8.88-21.44-21.9-40.93-38.31-57.34-16.41-16.41-35.9-29.43-57.34-38.31-21.44-8.88-44.43-13.45-67.64-13.45s-46.19,4.57-67.64,13.45c-21.44,8.88-40.93,21.9-57.34,38.31-16.41,16.41-29.43,35.9-38.31,57.34s-13.45,44.43-13.45,67.64,4.57,46.19,13.45,67.64,21.9,40.93,38.31,57.34c16.41,16.41,35.9,29.43,57.34,38.31,21.44,8.88,44.43,13.45,67.64,13.45s46.19-4.57,67.64-13.45c21.44-8.88,40.93-21.9,57.34-38.31,16.41-16.41,29.43-35.9,38.31-57.34,8.88-21.44,13.45-44.43,13.45-67.64M218.92,313.42h0Z"/>
    </clipPath>
    <clipPath id="clippath-3">
      <path class="cls-1" d="M395.66,313.42c0-23.21-4.57-46.19-13.45-67.64-8.88-21.44-21.9-40.93-38.31-57.34-16.41-16.41-35.9-29.43-57.34-38.31-21.44-8.88-44.43-13.45-67.64-13.45s-46.19,4.57-67.64,13.45c-21.44,8.88-40.93,21.9-57.34,38.31-16.41,16.41-29.43,35.9-38.31,57.34s-13.45,44.43-13.45,67.64,4.57,46.19,13.45,67.64,21.9,40.93,38.31,57.34c16.41,16.41,35.9,29.43,57.34,38.31,21.44,8.88,44.43,13.45,67.64,13.45s46.19-4.57,67.64-13.45c21.44-8.88,40.93-21.9,57.34-38.31,16.41-16.41,29.43-35.9,38.31-57.34,8.88-21.44,13.45-44.43,13.45-67.64M218.92,313.42h0Z"/>
    </clipPath>
    <clipPath id="clippath-4">
      <path class="cls-1" d="M395.66,313.42c0-23.21-4.57-46.19-13.45-67.64-8.88-21.44-21.9-40.93-38.31-57.34-16.41-16.41-35.9-29.43-57.34-38.31-21.44-8.88-44.43-13.45-67.64-13.45s-46.19,4.57-67.64,13.45c-21.44,8.88-40.93,21.9-57.34,38.31-16.41,16.41-29.43,35.9-38.31,57.34s-13.45,44.43-13.45,67.64,4.57,46.19,13.45,67.64,21.9,40.93,38.31,57.34c16.41,16.41,35.9,29.43,57.34,38.31,21.44,8.88,44.43,13.45,67.64,13.45s46.19-4.57,67.64-13.45c21.44-8.88,40.93-21.9,57.34-38.31,16.41-16.41,29.43-35.9,38.31-57.34,8.88-21.44,13.45-44.43,13.45-67.64M218.92,313.42h0Z"/>
    </clipPath>
    <clipPath id="clippath-5">
      <path class="cls-1" d="M395.66,313.42c0-23.21-4.57-46.19-13.45-67.64-8.88-21.44-21.9-40.93-38.31-57.34-16.41-16.41-35.9-29.43-57.34-38.31-21.44-8.88-44.43-13.45-67.64-13.45s-46.19,4.57-67.64,13.45c-21.44,8.88-40.93,21.9-57.34,38.31-16.41,16.41-29.43,35.9-38.31,57.34s-13.45,44.43-13.45,67.64,4.57,46.19,13.45,67.64,21.9,40.93,38.31,57.34c16.41,16.41,35.9,29.43,57.34,38.31,21.44,8.88,44.43,13.45,67.64,13.45s46.19-4.57,67.64-13.45c21.44-8.88,40.93-21.9,57.34-38.31,16.41-16.41,29.43-35.9,38.31-57.34,8.88-21.44,13.45-44.43,13.45-67.64M218.92,313.42h0Z"/>
    </clipPath>
    <clipPath id="clippath-6">
      <path class="cls-1" d="M395.66,313.42c0-23.21-4.57-46.19-13.45-67.64-8.88-21.44-21.9-40.93-38.31-57.34-16.41-16.41-35.9-29.43-57.34-38.31-21.44-8.88-44.43-13.45-67.64-13.45s-46.19,4.57-67.64,13.45c-21.44,8.88-40.93,21.9-57.34,38.31-16.41,16.41-29.43,35.9-38.31,57.34s-13.45,44.43-13.45,67.64,4.57,46.19,13.45,67.64,21.9,40.93,38.31,57.34c16.41,16.41,35.9,29.43,57.34,38.31,21.44,8.88,44.43,13.45,67.64,13.45s46.19-4.57,67.64-13.45c21.44-8.88,40.93-21.9,57.34-38.31,16.41-16.41,29.43-35.9,38.31-57.34,8.88-21.44,13.45-44.43,13.45-67.64M218.92,313.42h0Z"/>
    </clipPath>
    <clipPath id="clippath-7">
      <path class="cls-1" d="M395.66,313.42c0-23.21-4.57-46.19-13.45-67.64-8.88-21.44-21.9-40.93-38.31-57.34-16.41-16.41-35.9-29.43-57.34-38.31-21.44-8.88-44.43-13.45-67.64-13.45s-46.19,4.57-67.64,13.45c-21.44,8.88-40.93,21.9-57.34,38.31-16.41,16.41-29.43,35.9-38.31,57.34s-13.45,44.43-13.45,67.64,4.57,46.19,13.45,67.64,21.9,40.93,38.31,57.34c16.41,16.41,35.9,29.43,57.34,38.31,21.44,8.88,44.43,13.45,67.64,13.45s46.19-4.57,67.64-13.45c21.44-8.88,40.93-21.9,57.34-38.31,16.41-16.41,29.43-35.9,38.31-57.34,8.88-21.44,13.45-44.43,13.45-67.64M218.92,313.42h0Z"/>
    </clipPath>
    <clipPath id="clippath-8">
      <path class="cls-1" d="M395.66,313.42c0-23.21-4.57-46.19-13.45-67.64-8.88-21.44-21.9-40.93-38.31-57.34-16.41-16.41-35.9-29.43-57.34-38.31-21.44-8.88-44.43-13.45-67.64-13.45s-46.19,4.57-67.64,13.45c-21.44,8.88-40.93,21.9-57.34,38.31-16.41,16.41-29.43,35.9-38.31,57.34s-13.45,44.43-13.45,67.64,4.57,46.19,13.45,67.64,21.9,40.93,38.31,57.34c16.41,16.41,35.9,29.43,57.34,38.31,21.44,8.88,44.43,13.45,67.64,13.45s46.19-4.57,67.64-13.45c21.44-8.88,40.93-21.9,57.34-38.31,16.41-16.41,29.43-35.9,38.31-57.34,8.88-21.44,13.45-44.43,13.45-67.64M218.92,313.42h0Z"/>
    </clipPath>
    <clipPath id="clippath-9">
      <path class="cls-1" d="M395.66,313.42c0-23.21-4.57-46.19-13.45-67.64-8.88-21.44-21.9-40.93-38.31-57.34-16.41-16.41-35.9-29.43-57.34-38.31-21.44-8.88-44.43-13.45-67.64-13.45s-46.19,4.57-67.64,13.45c-21.44,8.88-40.93,21.9-57.34,38.31-16.41,16.41-29.43,35.9-38.31,57.34s-13.45,44.43-13.45,67.64,4.57,46.19,13.45,67.64,21.9,40.93,38.31,57.34c16.41,16.41,35.9,29.43,57.34,38.31,21.44,8.88,44.43,13.45,67.64,13.45s46.19-4.57,67.64-13.45c21.44-8.88,40.93-21.9,57.34-38.31,16.41-16.41,29.43-35.9,38.31-57.34,8.88-21.44,13.45-44.43,13.45-67.64M218.92,313.42h0Z"/>
    </clipPath>
    <clipPath id="clippath-10">
      <path class="cls-1" d="M395.66,313.42c0-23.21-4.57-46.19-13.45-67.64-8.88-21.44-21.9-40.93-38.31-57.34-16.41-16.41-35.9-29.43-57.34-38.31-21.44-8.88-44.43-13.45-67.64-13.45s-46.19,4.57-67.64,13.45c-21.44,8.88-40.93,21.9-57.34,38.31-16.41,16.41-29.43,35.9-38.31,57.34s-13.45,44.43-13.45,67.64,4.57,46.19,13.45,67.64,21.9,40.93,38.31,57.34c16.41,16.41,35.9,29.43,57.34,38.31,21.44,8.88,44.43,13.45,67.64,13.45s46.19-4.57,67.64-13.45c21.44-8.88,40.93-21.9,57.34-38.31,16.41-16.41,29.43-35.9,38.31-57.34,8.88-21.44,13.45-44.43,13.45-67.64M218.92,313.42h0Z"/>
    </clipPath>
    <clipPath id="clippath-11">
      <path class="cls-1" d="M395.66,313.42c0-23.21-4.57-46.19-13.45-67.64-8.88-21.44-21.9-40.93-38.31-57.34-16.41-16.41-35.9-29.43-57.34-38.31-21.44-8.88-44.43-13.45-67.64-13.45s-46.19,4.57-67.64,13.45c-21.44,8.88-40.93,21.9-57.34,38.31-16.41,16.41-29.43,35.9-38.31,57.34s-13.45,44.43-13.45,67.64,4.57,46.19,13.45,67.64,21.9,40.93,38.31,57.34c16.41,16.41,35.9,29.43,57.34,38.31,21.44,8.88,44.43,13.45,67.64,13.45s46.19-4.57,67.64-13.45c21.44-8.88,40.93-21.9,57.34-38.31,16.41-16.41,29.43-35.9,38.31-57.34,8.88-21.44,13.45-44.43,13.45-67.64M218.92,313.42h0Z"/>
    </clipPath>
    <clipPath id="clippath-12">
      <path class="cls-1" d="M395.66,313.42c0-23.21-4.57-46.19-13.45-67.64-8.88-21.44-21.9-40.93-38.31-57.34-16.41-16.41-35.9-29.43-57.34-38.31-21.44-8.88-44.43-13.45-67.64-13.45s-46.19,4.57-67.64,13.45c-21.44,8.88-40.93,21.9-57.34,38.31-16.41,16.41-29.43,35.9-38.31,57.34s-13.45,44.43-13.45,67.64,4.57,46.19,13.45,67.64,21.9,40.93,38.31,57.34c16.41,16.41,35.9,29.43,57.34,38.31,21.44,8.88,44.43,13.45,67.64,13.45s46.19-4.57,67.64-13.45c21.44-8.88,40.93-21.9,57.34-38.31,16.41-16.41,29.43-35.9,38.31-57.34,8.88-21.44,13.45-44.43,13.45-67.64M218.92,313.42h0Z"/>
    </clipPath>
    <clipPath id="clippath-13">
      <path class="cls-1" d="M395.66,313.42c0-23.21-4.57-46.19-13.45-67.64-8.88-21.44-21.9-40.93-38.31-57.34-16.41-16.41-35.9-29.43-57.34-38.31-21.44-8.88-44.43-13.45-67.64-13.45s-46.19,4.57-67.64,13.45c-21.44,8.88-40.93,21.9-57.34,38.31-16.41,16.41-29.43,35.9-38.31,57.34s-13.45,44.43-13.45,67.64,4.57,46.19,13.45,67.64,21.9,40.93,38.31,57.34c16.41,16.41,35.9,29.43,57.34,38.31,21.44,8.88,44.43,13.45,67.64,13.45s46.19-4.57,67.64-13.45c21.44-8.88,40.93-21.9,57.34-38.31,16.41-16.41,29.43-35.9,38.31-57.34,8.88-21.44,13.45-44.43,13.45-67.64M218.92,313.42h0Z"/>
    </clipPath>
    <clipPath id="clippath-14">
      <path class="cls-1" d="M395.66,313.42c0-23.21-4.57-46.19-13.45-67.64-8.88-21.44-21.9-40.93-38.31-57.34-16.41-16.41-35.9-29.43-57.34-38.31-21.44-8.88-44.43-13.45-67.64-13.45s-46.19,4.57-67.64,13.45c-21.44,8.88-40.93,21.9-57.34,38.31-16.41,16.41-29.43,35.9-38.31,57.34s-13.45,44.43-13.45,67.64,4.57,46.19,13.45,67.64,21.9,40.93,38.31,57.34c16.41,16.41,35.9,29.43,57.34,38.31,21.44,8.88,44.43,13.45,67.64,13.45s46.19-4.57,67.64-13.45c21.44-8.88,40.93-21.9,57.34-38.31,16.41-16.41,29.43-35.9,38.31-57.34,8.88-21.44,13.45-44.43,13.45-67.64M218.92,313.42h0Z"/>
    </clipPath>
    <clipPath id="clippath-15">
      <path class="cls-1" d="M395.66,313.42c0-23.21-4.57-46.19-13.45-67.64-8.88-21.44-21.9-40.93-38.31-57.34-16.41-16.41-35.9-29.43-57.34-38.31-21.44-8.88-44.43-13.45-67.64-13.45s-46.19,4.57-67.64,13.45c-21.44,8.88-40.93,21.9-57.34,38.31-16.41,16.41-29.43,35.9-38.31,57.34s-13.45,44.43-13.45,67.64,4.57,46.19,13.45,67.64,21.9,40.93,38.31,57.34c16.41,16.41,35.9,29.43,57.34,38.31,21.44,8.88,44.43,13.45,67.64,13.45s46.19-4.57,67.64-13.45c21.44-8.88,40.93-21.9,57.34-38.31,16.41-16.41,29.43-35.9,38.31-57.34,8.88-21.44,13.45-44.43,13.45-67.64M218.92,313.42h0Z"/>
    </clipPath>
    <clipPath id="clippath-16">
      <path class="cls-1" d="M395.66,313.42c0-23.21-4.57-46.19-13.45-67.64-8.88-21.44-21.9-40.93-38.31-57.34-16.41-16.41-35.9-29.43-57.34-38.31-21.44-8.88-44.43-13.45-67.64-13.45s-46.19,4.57-67.64,13.45c-21.44,8.88-40.93,21.9-57.34,38.31-16.41,16.41-29.43,35.9-38.31,57.34s-13.45,44.43-13.45,67.64,4.57,46.19,13.45,67.64,21.9,40.93,38.31,57.34c16.41,16.41,35.9,29.43,57.34,38.31,21.44,8.88,44.43,13.45,67.64,13.45s46.19-4.57,67.64-13.45c21.44-8.88,40.93-21.9,57.34-38.31,16.41-16.41,29.43-35.9,38.31-57.34,8.88-21.44,13.45-44.43,13.45-67.64M218.92,313.42h0Z"/>
    </clipPath>
    <clipPath id="clippath-17">
      <path class="cls-1" d="M395.66,313.42c0-23.21-4.57-46.19-13.45-67.64-8.88-21.44-21.9-40.93-38.31-57.34-16.41-16.41-35.9-29.43-57.34-38.31-21.44-8.88-44.43-13.45-67.64-13.45s-46.19,4.57-67.64,13.45c-21.44,8.88-40.93,21.9-57.34,38.31-16.41,16.41-29.43,35.9-38.31,57.34s-13.45,44.43-13.45,67.64,4.57,46.19,13.45,67.64,21.9,40.93,38.31,57.34c16.41,16.41,35.9,29.43,57.34,38.31,21.44,8.88,44.43,13.45,67.64,13.45s46.19-4.57,67.64-13.45c21.44-8.88,40.93-21.9,57.34-38.31,16.41-16.41,29.43-35.9,38.31-57.34,8.88-21.44,13.45-44.43,13.45-67.64M218.92,313.42h0Z"/>
    </clipPath>
    <clipPath id="clippath-18">
      <path class="cls-1" d="M847.29,312.28c0-23.17-4.55-46.11-13.39-67.51-8.84-21.4-21.8-40.85-38.13-57.23-16.33-16.38-35.72-29.38-57.06-38.24-21.34-8.87-44.21-13.43-67.31-13.43s-45.97,4.56-67.31,13.43c-21.34,8.87-40.73,21.86-57.06,38.24-16.33,16.38-29.29,35.83-38.13,57.23-8.84,21.4-13.39,44.34-13.39,67.51s4.55,46.11,13.39,67.51c8.84,21.4,21.8,40.85,38.13,57.23,16.33,16.38,35.72,29.38,57.06,38.24,21.34,8.87,44.21,13.43,67.31,13.43s45.97-4.56,67.31-13.43c21.34-8.87,40.73-21.86,57.06-38.24,16.33-16.38,29.29-35.83,38.13-57.23,8.84-21.4,13.39-44.34,13.39-67.51M671.39,312.28h0Z"/>
    </clipPath>
    <clipPath id="clippath-19">
      <path class="cls-1" d="M847.29,312.28c0-23.17-4.55-46.11-13.39-67.51-8.84-21.4-21.8-40.85-38.13-57.23-16.33-16.38-35.72-29.38-57.06-38.24-21.34-8.87-44.21-13.43-67.31-13.43s-45.97,4.56-67.31,13.43c-21.34,8.87-40.73,21.86-57.06,38.24-16.33,16.38-29.29,35.83-38.13,57.23-8.84,21.4-13.39,44.34-13.39,67.51s4.55,46.11,13.39,67.51c8.84,21.4,21.8,40.85,38.13,57.23,16.33,16.38,35.72,29.38,57.06,38.24,21.34,8.87,44.21,13.43,67.31,13.43s45.97-4.56,67.31-13.43c21.34-8.87,40.73-21.86,57.06-38.24,16.33-16.38,29.29-35.83,38.13-57.23,8.84-21.4,13.39-44.34,13.39-67.51M671.39,312.28h0Z"/>
    </clipPath>
    <clipPath id="clippath-20">
      <path class="cls-1" d="M847.29,312.28c0-23.17-4.55-46.11-13.39-67.51-8.84-21.4-21.8-40.85-38.13-57.23-16.33-16.38-35.72-29.38-57.06-38.24-21.34-8.87-44.21-13.43-67.31-13.43s-45.97,4.56-67.31,13.43c-21.34,8.87-40.73,21.86-57.06,38.24-16.33,16.38-29.29,35.83-38.13,57.23-8.84,21.4-13.39,44.34-13.39,67.51s4.55,46.11,13.39,67.51c8.84,21.4,21.8,40.85,38.13,57.23,16.33,16.38,35.72,29.38,57.06,38.24,21.34,8.87,44.21,13.43,67.31,13.43s45.97-4.56,67.31-13.43c21.34-8.87,40.73-21.86,57.06-38.24,16.33-16.38,29.29-35.83,38.13-57.23,8.84-21.4,13.39-44.34,13.39-67.51M671.39,312.28h0Z"/>
    </clipPath>
    <clipPath id="clippath-21">
      <path class="cls-1" d="M847.29,312.28c0-23.17-4.55-46.11-13.39-67.51-8.84-21.4-21.8-40.85-38.13-57.23-16.33-16.38-35.72-29.38-57.06-38.24-21.34-8.87-44.21-13.43-67.31-13.43s-45.97,4.56-67.31,13.43c-21.34,8.87-40.73,21.86-57.06,38.24-16.33,16.38-29.29,35.83-38.13,57.23-8.84,21.4-13.39,44.34-13.39,67.51s4.55,46.11,13.39,67.51c8.84,21.4,21.8,40.85,38.13,57.23,16.33,16.38,35.72,29.38,57.06,38.24,21.34,8.87,44.21,13.43,67.31,13.43s45.97-4.56,67.31-13.43c21.34-8.87,40.73-21.86,57.06-38.24,16.33-16.38,29.29-35.83,38.13-57.23,8.84-21.4,13.39-44.34,13.39-67.51M671.39,312.28h0Z"/>
    </clipPath>
    <clipPath id="clippath-22">
      <path class="cls-1" d="M847.29,312.28c0-23.17-4.55-46.11-13.39-67.51-8.84-21.4-21.8-40.85-38.13-57.23-16.33-16.38-35.72-29.38-57.06-38.24-21.34-8.87-44.21-13.43-67.31-13.43s-45.97,4.56-67.31,13.43c-21.34,8.87-40.73,21.86-57.06,38.24-16.33,16.38-29.29,35.83-38.13,57.23-8.84,21.4-13.39,44.34-13.39,67.51s4.55,46.11,13.39,67.51c8.84,21.4,21.8,40.85,38.13,57.23,16.33,16.38,35.72,29.38,57.06,38.24,21.34,8.87,44.21,13.43,67.31,13.43s45.97-4.56,67.31-13.43c21.34-8.87,40.73-21.86,57.06-38.24,16.33-16.38,29.29-35.83,38.13-57.23,8.84-21.4,13.39-44.34,13.39-67.51M671.39,312.28h0Z"/>
    </clipPath>
    <clipPath id="clippath-23">
      <path class="cls-1" d="M847.29,312.28c0-23.17-4.55-46.11-13.39-67.51-8.84-21.4-21.8-40.85-38.13-57.23-16.33-16.38-35.72-29.38-57.06-38.24-21.34-8.87-44.21-13.43-67.31-13.43s-45.97,4.56-67.31,13.43c-21.34,8.87-40.73,21.86-57.06,38.24-16.33,16.38-29.29,35.83-38.13,57.23-8.84,21.4-13.39,44.34-13.39,67.51s4.55,46.11,13.39,67.51c8.84,21.4,21.8,40.85,38.13,57.23,16.33,16.38,35.72,29.38,57.06,38.24,21.34,8.87,44.21,13.43,67.31,13.43s45.97-4.56,67.31-13.43c21.34-8.87,40.73-21.86,57.06-38.24,16.33-16.38,29.29-35.83,38.13-57.23,8.84-21.4,13.39-44.34,13.39-67.51M671.39,312.28h0Z"/>
    </clipPath>
    <clipPath id="clippath-24">
      <path class="cls-1" d="M847.29,312.28c0-23.17-4.55-46.11-13.39-67.51-8.84-21.4-21.8-40.85-38.13-57.23-16.33-16.38-35.72-29.38-57.06-38.24-21.34-8.87-44.21-13.43-67.31-13.43s-45.97,4.56-67.31,13.43c-21.34,8.87-40.73,21.86-57.06,38.24-16.33,16.38-29.29,35.83-38.13,57.23-8.84,21.4-13.39,44.34-13.39,67.51s4.55,46.11,13.39,67.51c8.84,21.4,21.8,40.85,38.13,57.23,16.33,16.38,35.72,29.38,57.06,38.24,21.34,8.87,44.21,13.43,67.31,13.43s45.97-4.56,67.31-13.43c21.34-8.87,40.73-21.86,57.06-38.24,16.33-16.38,29.29-35.83,38.13-57.23,8.84-21.4,13.39-44.34,13.39-67.51M671.39,312.28h0Z"/>
    </clipPath>
    <clipPath id="clippath-25">
      <path class="cls-1" d="M847.29,312.28c0-23.17-4.55-46.11-13.39-67.51-8.84-21.4-21.8-40.85-38.13-57.23-16.33-16.38-35.72-29.38-57.06-38.24-21.34-8.87-44.21-13.43-67.31-13.43s-45.97,4.56-67.31,13.43c-21.34,8.87-40.73,21.86-57.06,38.24-16.33,16.38-29.29,35.83-38.13,57.23-8.84,21.4-13.39,44.34-13.39,67.51s4.55,46.11,13.39,67.51c8.84,21.4,21.8,40.85,38.13,57.23,16.33,16.38,35.72,29.38,57.06,38.24,21.34,8.87,44.21,13.43,67.31,13.43s45.97-4.56,67.31-13.43c21.34-8.87,40.73-21.86,57.06-38.24,16.33-16.38,29.29-35.83,38.13-57.23,8.84-21.4,13.39-44.34,13.39-67.51M671.39,312.28h0Z"/>
    </clipPath>
    <clipPath id="clippath-26">
      <path class="cls-1" d="M847.29,312.28c0-23.17-4.55-46.11-13.39-67.51-8.84-21.4-21.8-40.85-38.13-57.23-16.33-16.38-35.72-29.38-57.06-38.24-21.34-8.87-44.21-13.43-67.31-13.43s-45.97,4.56-67.31,13.43c-21.34,8.87-40.73,21.86-57.06,38.24-16.33,16.38-29.29,35.83-38.13,57.23-8.84,21.4-13.39,44.34-13.39,67.51s4.55,46.11,13.39,67.51c8.84,21.4,21.8,40.85,38.13,57.23,16.33,16.38,35.72,29.38,57.06,38.24,21.34,8.87,44.21,13.43,67.31,13.43s45.97-4.56,67.31-13.43c21.34-8.87,40.73-21.86,57.06-38.24,16.33-16.38,29.29-35.83,38.13-57.23,8.84-21.4,13.39-44.34,13.39-67.51M671.39,312.28h0Z"/>
    </clipPath>
    <clipPath id="clippath-27">
      <path class="cls-1" d="M847.29,312.28c0-23.17-4.55-46.11-13.39-67.51-8.84-21.4-21.8-40.85-38.13-57.23-16.33-16.38-35.72-29.38-57.06-38.24-21.34-8.87-44.21-13.43-67.31-13.43s-45.97,4.56-67.31,13.43c-21.34,8.87-40.73,21.86-57.06,38.24-16.33,16.38-29.29,35.83-38.13,57.23-8.84,21.4-13.39,44.34-13.39,67.51s4.55,46.11,13.39,67.51c8.84,21.4,21.8,40.85,38.13,57.23,16.33,16.38,35.72,29.38,57.06,38.24,21.34,8.87,44.21,13.43,67.31,13.43s45.97-4.56,67.31-13.43c21.34-8.87,40.73-21.86,57.06-38.24,16.33-16.38,29.29-35.83,38.13-57.23,8.84-21.4,13.39-44.34,13.39-67.51M671.39,312.28h0Z"/>
    </clipPath>
    <clipPath id="clippath-28">
      <path class="cls-1" d="M847.29,312.28c0-23.17-4.55-46.11-13.39-67.51-8.84-21.4-21.8-40.85-38.13-57.23-16.33-16.38-35.72-29.38-57.06-38.24-21.34-8.87-44.21-13.43-67.31-13.43s-45.97,4.56-67.31,13.43c-21.34,8.87-40.73,21.86-57.06,38.24-16.33,16.38-29.29,35.83-38.13,57.23-8.84,21.4-13.39,44.34-13.39,67.51s4.55,46.11,13.39,67.51c8.84,21.4,21.8,40.85,38.13,57.23,16.33,16.38,35.72,29.38,57.06,38.24,21.34,8.87,44.21,13.43,67.31,13.43s45.97-4.56,67.31-13.43c21.34-8.87,40.73-21.86,57.06-38.24,16.33-16.38,29.29-35.83,38.13-57.23,8.84-21.4,13.39-44.34,13.39-67.51M671.39,312.28h0Z"/>
    </clipPath>
    <clipPath id="clippath-29">
      <path class="cls-1" d="M847.29,312.28c0-23.17-4.55-46.11-13.39-67.51-8.84-21.4-21.8-40.85-38.13-57.23-16.33-16.38-35.72-29.38-57.06-38.24-21.34-8.87-44.21-13.43-67.31-13.43s-45.97,4.56-67.31,13.43c-21.34,8.87-40.73,21.86-57.06,38.24-16.33,16.38-29.29,35.83-38.13,57.23-8.84,21.4-13.39,44.34-13.39,67.51s4.55,46.11,13.39,67.51c8.84,21.4,21.8,40.85,38.13,57.23,16.33,16.38,35.72,29.38,57.06,38.24,21.34,8.87,44.21,13.43,67.31,13.43s45.97-4.56,67.31-13.43c21.34-8.87,40.73-21.86,57.06-38.24,16.33-16.38,29.29-35.83,38.13-57.23,8.84-21.4,13.39-44.34,13.39-67.51M671.39,312.28h0Z"/>
    </clipPath>
    <clipPath id="clippath-30">
      <path class="cls-1" d="M847.29,312.28c0-23.17-4.55-46.11-13.39-67.51-8.84-21.4-21.8-40.85-38.13-57.23-16.33-16.38-35.72-29.38-57.06-38.24-21.34-8.87-44.21-13.43-67.31-13.43s-45.97,4.56-67.31,13.43c-21.34,8.87-40.73,21.86-57.06,38.24-16.33,16.38-29.29,35.83-38.13,57.23-8.84,21.4-13.39,44.34-13.39,67.51s4.55,46.11,13.39,67.51c8.84,21.4,21.8,40.85,38.13,57.23,16.33,16.38,35.72,29.38,57.06,38.24,21.34,8.87,44.21,13.43,67.31,13.43s45.97-4.56,67.31-13.43c21.34-8.87,40.73-21.86,57.06-38.24,16.33-16.38,29.29-35.83,38.13-57.23,8.84-21.4,13.39-44.34,13.39-67.51M671.39,312.28h0Z"/>
    </clipPath>
    <clipPath id="clippath-31">
      <path class="cls-1" d="M847.29,312.28c0-23.17-4.55-46.11-13.39-67.51-8.84-21.4-21.8-40.85-38.13-57.23-16.33-16.38-35.72-29.38-57.06-38.24-21.34-8.87-44.21-13.43-67.31-13.43s-45.97,4.56-67.31,13.43c-21.34,8.87-40.73,21.86-57.06,38.24-16.33,16.38-29.29,35.83-38.13,57.23-8.84,21.4-13.39,44.34-13.39,67.51s4.55,46.11,13.39,67.51c8.84,21.4,21.8,40.85,38.13,57.23,16.33,16.38,35.72,29.38,57.06,38.24,21.34,8.87,44.21,13.43,67.31,13.43s45.97-4.56,67.31-13.43c21.34-8.87,40.73-21.86,57.06-38.24,16.33-16.38,29.29-35.83,38.13-57.23,8.84-21.4,13.39-44.34,13.39-67.51M671.39,312.28h0Z"/>
    </clipPath>
    <clipPath id="clippath-32">
      <path class="cls-1" d="M847.29,312.28c0-23.17-4.55-46.11-13.39-67.51-8.84-21.4-21.8-40.85-38.13-57.23-16.33-16.38-35.72-29.38-57.06-38.24-21.34-8.87-44.21-13.43-67.31-13.43s-45.97,4.56-67.31,13.43c-21.34,8.87-40.73,21.86-57.06,38.24-16.33,16.38-29.29,35.83-38.13,57.23-8.84,21.4-13.39,44.34-13.39,67.51s4.55,46.11,13.39,67.51c8.84,21.4,21.8,40.85,38.13,57.23,16.33,16.38,35.72,29.38,57.06,38.24,21.34,8.87,44.21,13.43,67.31,13.43s45.97-4.56,67.31-13.43c21.34-8.87,40.73-21.86,57.06-38.24,16.33-16.38,29.29-35.83,38.13-57.23,8.84-21.4,13.39-44.34,13.39-67.51M671.39,312.28h0Z"/>
    </clipPath>
    <clipPath id="clippath-33">
      <path class="cls-1" d="M847.29,312.28c0-23.17-4.55-46.11-13.39-67.51-8.84-21.4-21.8-40.85-38.13-57.23-16.33-16.38-35.72-29.38-57.06-38.24-21.34-8.87-44.21-13.43-67.31-13.43s-45.97,4.56-67.31,13.43c-21.34,8.87-40.73,21.86-57.06,38.24-16.33,16.38-29.29,35.83-38.13,57.23-8.84,21.4-13.39,44.34-13.39,67.51s4.55,46.11,13.39,67.51c8.84,21.4,21.8,40.85,38.13,57.23,16.33,16.38,35.72,29.38,57.06,38.24,21.34,8.87,44.21,13.43,67.31,13.43s45.97-4.56,67.31-13.43c21.34-8.87,40.73-21.86,57.06-38.24,16.33-16.38,29.29-35.83,38.13-57.23,8.84-21.4,13.39-44.34,13.39-67.51M671.39,312.28h0Z"/>
    </clipPath>
    <clipPath id="clippath-34">
      <path class="cls-1" d="M847.29,312.28c0-23.17-4.55-46.11-13.39-67.51-8.84-21.4-21.8-40.85-38.13-57.23-16.33-16.38-35.72-29.38-57.06-38.24-21.34-8.87-44.21-13.43-67.31-13.43s-45.97,4.56-67.31,13.43c-21.34,8.87-40.73,21.86-57.06,38.24-16.33,16.38-29.29,35.83-38.13,57.23-8.84,21.4-13.39,44.34-13.39,67.51s4.55,46.11,13.39,67.51c8.84,21.4,21.8,40.85,38.13,57.23,16.33,16.38,35.72,29.38,57.06,38.24,21.34,8.87,44.21,13.43,67.31,13.43s45.97-4.56,67.31-13.43c21.34-8.87,40.73-21.86,57.06-38.24,16.33-16.38,29.29-35.83,38.13-57.23,8.84-21.4,13.39-44.34,13.39-67.51M671.39,312.28h0Z"/>
    </clipPath>
    <clipPath id="clippath-35">
      <path class="cls-1" d="M847.29,312.28c0-23.17-4.55-46.11-13.39-67.51-8.84-21.4-21.8-40.85-38.13-57.23-16.33-16.38-35.72-29.38-57.06-38.24-21.34-8.87-44.21-13.43-67.31-13.43s-45.97,4.56-67.31,13.43c-21.34,8.87-40.73,21.86-57.06,38.24-16.33,16.38-29.29,35.83-38.13,57.23-8.84,21.4-13.39,44.34-13.39,67.51s4.55,46.11,13.39,67.51c8.84,21.4,21.8,40.85,38.13,57.23,16.33,16.38,35.72,29.38,57.06,38.24,21.34,8.87,44.21,13.43,67.31,13.43s45.97-4.56,67.31-13.43c21.34-8.87,40.73-21.86,57.06-38.24,16.33-16.38,29.29-35.83,38.13-57.23,8.84-21.4,13.39-44.34,13.39-67.51M671.39,312.28h0Z"/>
    </clipPath>
    <clipPath id="clippath-36">
      <path class="cls-1" d="M847.29,312.28c0-23.17-4.55-46.11-13.39-67.51-8.84-21.4-21.8-40.85-38.13-57.23-16.33-16.38-35.72-29.38-57.06-38.24-21.34-8.87-44.21-13.43-67.31-13.43s-45.97,4.56-67.31,13.43c-21.34,8.87-40.73,21.86-57.06,38.24-16.33,16.38-29.29,35.83-38.13,57.23-8.84,21.4-13.39,44.34-13.39,67.51s4.55,46.11,13.39,67.51c8.84,21.4,21.8,40.85,38.13,57.23,16.33,16.38,35.72,29.38,57.06,38.24,21.34,8.87,44.21,13.43,67.31,13.43s45.97-4.56,67.31-13.43c21.34-8.87,40.73-21.86,57.06-38.24,16.33-16.38,29.29-35.83,38.13-57.23,8.84-21.4,13.39-44.34,13.39-67.51M671.39,312.28h0Z"/>
    </clipPath>
    <clipPath id="clippath-37">
      <path class="cls-1" d="M847.29,312.28c0-23.17-4.55-46.11-13.39-67.51-8.84-21.4-21.8-40.85-38.13-57.23-16.33-16.38-35.72-29.38-57.06-38.24-21.34-8.87-44.21-13.43-67.31-13.43s-45.97,4.56-67.31,13.43c-21.34,8.87-40.73,21.86-57.06,38.24-16.33,16.38-29.29,35.83-38.13,57.23-8.84,21.4-13.39,44.34-13.39,67.51s4.55,46.11,13.39,67.51c8.84,21.4,21.8,40.85,38.13,57.23,16.33,16.38,35.72,29.38,57.06,38.24,21.34,8.87,44.21,13.43,67.31,13.43s45.97-4.56,67.31-13.43c21.34-8.87,40.73-21.86,57.06-38.24,16.33-16.38,29.29-35.83,38.13-57.23,8.84-21.4,13.39-44.34,13.39-67.51M671.39,312.28h0Z"/>
    </clipPath>
    <clipPath id="clippath-38">
      <path class="cls-1" d="M847.29,312.28c0-23.17-4.55-46.11-13.39-67.51-8.84-21.4-21.8-40.85-38.13-57.23-16.33-16.38-35.72-29.38-57.06-38.24-21.34-8.87-44.21-13.43-67.31-13.43s-45.97,4.56-67.31,13.43c-21.34,8.87-40.73,21.86-57.06,38.24-16.33,16.38-29.29,35.83-38.13,57.23-8.84,21.4-13.39,44.34-13.39,67.51s4.55,46.11,13.39,67.51c8.84,21.4,21.8,40.85,38.13,57.23,16.33,16.38,35.72,29.38,57.06,38.24,21.34,8.87,44.21,13.43,67.31,13.43s45.97-4.56,67.31-13.43c21.34-8.87,40.73-21.86,57.06-38.24,16.33-16.38,29.29-35.83,38.13-57.23,8.84-21.4,13.39-44.34,13.39-67.51M671.39,312.28h0Z"/>
    </clipPath>
  </defs>
  <g id="patch_1" data-name="patch 1">
    <path class="cls-1" d="M0,497.37h609.45V52.91H0v444.45Z"/>
  </g>
  <g id="patch_2" data-name="patch 2">
    <path class="cls-1" d="M395.66,313.42c0-23.21-4.57-46.19-13.45-67.64-8.88-21.44-21.9-40.93-38.31-57.34-16.41-16.41-35.9-29.43-57.34-38.31-21.44-8.88-44.43-13.45-67.64-13.45s-46.19,4.57-67.64,13.45c-21.44,8.88-40.93,21.9-57.34,38.31-16.41,16.41-29.43,35.9-38.31,57.34-8.88,21.44-13.45,44.43-13.45,67.64s4.57,46.19,13.45,67.64c8.88,21.44,21.9,40.93,38.31,57.34,16.41,16.41,35.9,29.43,57.34,38.31,21.44,8.88,44.43,13.45,67.64,13.45s46.19-4.57,67.64-13.45c21.44-8.88,40.93-21.9,57.34-38.31,16.41-16.41,29.43-35.9,38.31-57.34,8.88-21.44,13.45-44.43,13.45-67.64M218.92,313.42h0Z"/>
  </g>
  <g id="patch_3" data-name="patch 3">
    <g class="cls-75">
      <path class="cls-16" d="M218.92,296.59l112.98,82.06-127.55-56.81,14.58-25.25Z"/>
    </g>
  </g>
  <g id="patch_4" data-name="patch 4">
    <g class="cls-60">
      <path class="cls-24" d="M218.92,157.73l75.59,199.33-194.18,24.83,118.6-224.16Z"/>
    </g>
  </g>
  <g id="patch_5" data-name="patch 5">
    <g class="cls-63">
      <path class="cls-17" d="M218.92,189.3l98.22,180.83-141.27-31.85,43.05-148.98Z"/>
    </g>
  </g>
  <g id="patch_6" data-name="patch 6">
    <g class="cls-61">
      <path class="cls-22" d="M218.92,175.39l105.76,199.09-198.29-7.64,92.53-191.46Z"/>
    </g>
  </g>
  <g id="patch_7" data-name="patch 7">
    <g class="cls-62">
      <path class="cls-14" d="M218.92,154.24l90.67,211.53-236.45,31.81,145.78-243.35Z"/>
    </g>
  </g>
  <g id="matplotlib.axis_1" data-name="matplotlib.axis 1">
    <g id="xtick_1" data-name="xtick 1">
      <g id="line2d_1" data-name="line2d 1">
        <g class="cls-68">
          <path class="cls-7" d="M218.92,313.42v-176.74"/>
        </g>
      </g>
      <g id="text_1" data-name="text 1">
        <text class="cls-23" transform="translate(206.78 98.4)"><tspan x="0" y="0">Size</tspan></text>
        <text class="cls-21" transform="translate(205.53 112.08)"><tspan class="cls-74" x="0" y="0">(</tspan><tspan class="cls-25" x="3.6" y="0">MB</tspan><tspan class="cls-74" x="21.07" y="0">)</tspan></text>
      </g>
    </g>
    <g id="xtick_2" data-name="xtick 2">
      <g id="line2d_2" data-name="line2d 2">
        <g class="cls-65">
          <path class="cls-7" d="M218.92,313.42l153.07,88.37"/>
        </g>
      </g>
      <g id="text_2" data-name="text 2">
        <text class="cls-23" transform="translate(372.37 416.83)"><tspan x="0" y="0">Accuracy</tspan></text>
        <text class="cls-21" transform="translate(385.94 430.51)"><tspan class="cls-74" x="0" y="0">(</tspan><tspan class="cls-30" x="3.6" y="0">CPU</tspan><tspan class="cls-74" x="27.5" y="0">)</tspan></text>
      </g>
    </g>
    <g id="xtick_3" data-name="xtick 3">
      <g id="line2d_3" data-name="line2d 3">
        <g class="cls-64">
          <path class="cls-7" d="M218.92,313.42l-153.07,88.37"/>
        </g>
      </g>
      <g id="text_3" data-name="text 3">
        <text class="cls-23" transform="translate(10.04 416.77)"><tspan x="0" y="0">Latency</tspan></text>
        <text class="cls-21" transform="translate(7.2 430.45)"><tspan class="cls-74" x="0" y="0">(</tspan><tspan class="cls-30" x="3.6" y="0">CPU</tspan><tspan class="cls-74" x="27.5" y="0">, </tspan><tspan class="cls-25" x="33.72" y="0">ms</tspan><tspan class="cls-74" x="47.27" y="0">)</tspan></text>
      </g>
    </g>
  </g>
  <g id="matplotlib.axis_2" data-name="matplotlib.axis 2">
    <g id="ytick_1" data-name="ytick 1">
      <g id="line2d_4" data-name="line2d 4">
        <g class="cls-67">
          <path class="cls-7" d="M218.92,279.76c4.42,0,8.8.87,12.88,2.56,4.08,1.69,7.8,4.17,10.92,7.3s5.61,6.84,7.3,10.92c1.69,4.08,2.56,8.46,2.56,12.88s-.87,8.8-2.56,12.88c-1.69,4.08-4.17,7.8-7.3,10.92s-6.84,5.61-10.92,7.3c-4.08,1.69-8.46,2.56-12.88,2.56s-8.8-.87-12.88-2.56c-4.08-1.69-7.8-4.17-10.92-7.3s-5.61-6.84-7.3-10.92c-1.69-4.08-2.56-8.46-2.56-12.88s.87-8.8,2.56-12.88c1.69-4.08,4.17-7.8,7.3-10.92s6.84-5.61,10.92-7.3c4.08-1.69,8.46-2.56,12.88-2.56"/>
        </g>
      </g>
      <g id="text_4" data-name="text 4">
        <text class="cls-19" transform="translate(218.92 278.43)"><tspan class="cls-25" x="0" y="0">0</tspan><tspan class="cls-74" x="5.54" y="0">.</tspan><tspan class="cls-25" x="8.76" y="0">2</tspan></text>
      </g>
    </g>
    <g id="ytick_2" data-name="ytick 2">
      <g id="line2d_5" data-name="line2d 5">
        <g class="cls-66">
          <path class="cls-7" d="M218.92,246.09c8.84,0,17.6,1.74,25.77,5.13,8.17,3.38,15.59,8.34,21.84,14.6,6.25,6.25,11.21,13.68,14.6,21.84s5.13,16.92,5.13,25.77-1.74,17.6-5.13,25.77c-3.38,8.17-8.34,15.59-14.6,21.84-6.25,6.25-13.68,11.21-21.84,14.6-8.17,3.38-16.92,5.13-25.77,5.13s-17.6-1.74-25.77-5.13c-8.17-3.38-15.59-8.34-21.84-14.6-6.25-6.25-11.21-13.68-14.6-21.84-3.38-8.17-5.13-16.92-5.13-25.77s1.74-17.6,5.13-25.77,8.34-15.59,14.6-21.84c6.25-6.25,13.68-11.21,21.84-14.6,8.17-3.38,16.92-5.13,25.77-5.13"/>
        </g>
      </g>
      <g id="text_5" data-name="text 5">
        <text class="cls-19" transform="translate(218.92 244.76)"><tspan class="cls-25" x="0" y="0">0</tspan><tspan class="cls-74" x="5.54" y="0">.</tspan><tspan class="cls-25" x="8.76" y="0">4</tspan></text>
      </g>
    </g>
    <g id="ytick_3" data-name="ytick 3">
      <g id="line2d_6" data-name="line2d 6">
        <g class="cls-36">
          <path class="cls-7" d="M218.92,212.43c13.26,0,26.4,2.61,38.65,7.69,12.25,5.08,23.39,12.52,32.77,21.89,9.38,9.38,16.82,20.51,21.89,32.77,5.08,12.25,7.69,25.39,7.69,38.65s-2.61,26.4-7.69,38.65c-5.08,12.25-12.52,23.39-21.89,32.77-9.38,9.38-20.51,16.82-32.77,21.89-12.25,5.08-25.39,7.69-38.65,7.69s-26.4-2.61-38.65-7.69c-12.25-5.08-23.39-12.52-32.77-21.89s-16.82-20.51-21.89-32.77c-5.08-12.25-7.69-25.39-7.69-38.65s2.61-26.4,7.69-38.65c5.08-12.25,12.52-23.39,21.89-32.77s20.51-16.82,32.77-21.89c12.25-5.08,25.39-7.69,38.65-7.69"/>
        </g>
      </g>
      <g id="text_6" data-name="text 6">
        <text class="cls-19" transform="translate(218.92 211.1)"><tspan class="cls-25" x="0" y="0">0</tspan><tspan class="cls-74" x="5.54" y="0">.</tspan><tspan class="cls-25" x="8.76" y="0">6</tspan></text>
      </g>
    </g>
    <g id="ytick_4" data-name="ytick 4">
      <g id="line2d_7" data-name="line2d 7">
        <g class="cls-33">
          <path class="cls-7" d="M218.92,178.76c17.68,0,35.2,3.48,51.53,10.25,16.34,6.77,31.18,16.69,43.69,29.19s22.42,27.35,29.19,43.69c6.77,16.34,10.25,33.85,10.25,51.53s-3.48,35.2-10.25,51.53c-6.77,16.34-16.69,31.18-29.19,43.69s-27.35,22.42-43.69,29.19c-16.34,6.77-33.85,10.25-51.53,10.25s-35.2-3.48-51.53-10.25c-16.34-6.77-31.18-16.69-43.69-29.19-12.5-12.5-22.42-27.35-29.19-43.69-6.77-16.34-10.25-33.85-10.25-51.53s3.48-35.2,10.25-51.53c6.77-16.34,16.69-31.18,29.19-43.69,12.5-12.5,27.35-22.42,43.69-29.19s33.85-10.25,51.53-10.25"/>
        </g>
      </g>
      <g id="text_7" data-name="text 7">
        <text class="cls-19" transform="translate(218.92 177.43)"><tspan class="cls-25" x="0" y="0">0</tspan><tspan class="cls-74" x="5.54" y="0">.</tspan><tspan class="cls-25" x="8.76" y="0">8</tspan></text>
      </g>
    </g>
    <g id="ytick_5" data-name="ytick 5">
      <g id="line2d_8" data-name="line2d 8">
        <g class="cls-40">
          <path class="cls-7" d="M218.92,145.09c22.1,0,43.99,4.35,64.42,12.81s38.98,20.86,54.61,36.49c15.63,15.63,28.03,34.19,36.49,54.61,8.46,20.42,12.81,42.31,12.81,64.42s-4.35,43.99-12.81,64.42c-8.46,20.42-20.86,38.98-36.49,54.61s-34.19,28.03-54.61,36.49-42.31,12.81-64.42,12.81-43.99-4.35-64.42-12.81-38.98-20.86-54.61-36.49c-15.63-15.63-28.03-34.19-36.49-54.61-8.46-20.42-12.81-42.31-12.81-64.42s4.35-43.99,12.81-64.42c8.46-20.42,20.86-38.98,36.49-54.61,15.63-15.63,34.19-28.03,54.61-36.49s42.31-12.81,64.42-12.81"/>
        </g>
      </g>
      <g id="text_8" data-name="text 8">
        <text class="cls-19" transform="translate(218.92 143.77)"><tspan class="cls-25" x="0" y="0">1</tspan><tspan class="cls-74" x="5.54" y="0">.</tspan><tspan class="cls-25" x="8.76" y="0">0</tspan></text>
      </g>
    </g>
  </g>
  <g id="patch_8" data-name="patch 8">
    <path class="cls-10" d="M218.92,136.68c-23.21,0-46.19,4.57-67.64,13.45-21.44,8.88-40.93,21.9-57.34,38.31-16.41,16.41-29.43,35.9-38.31,57.34-8.88,21.44-13.45,44.43-13.45,67.64s4.57,46.19,13.45,67.64c8.88,21.44,21.9,40.93,38.31,57.34,16.41,16.41,35.9,29.43,57.34,38.31,21.44,8.88,44.43,13.45,67.64,13.45s46.19-4.57,67.64-13.45c21.44-8.88,40.93-21.9,57.34-38.31,16.41-16.41,29.43-35.9,38.31-57.34,8.88-21.44,13.45-44.43,13.45-67.64s-4.57-46.19-13.45-67.64c-8.88-21.44-21.9-40.93-38.31-57.34-16.41-16.41-35.9-29.43-57.34-38.31-21.44-8.88-44.43-13.45-67.64-13.45"/>
  </g>
  <g id="text_9" data-name="text 9">
    <text class="cls-18" transform="translate(121.82 77.66)"><tspan class="cls-25" x="0" y="0">CPU</tspan><tspan class="cls-74" x="31.87" y="0"> </tspan><tspan class="cls-25" x="35.87" y="0">综合性能对比</tspan><tspan class="cls-74" x="131.87" y="0" xml:space="preserve"> (</tspan><tspan class="cls-25" x="140.67" y="0">Base模型</tspan><tspan class="cls-74" x="200.32" y="0">)</tspan></text>
  </g>
  <g id="line2d_9" data-name="line2d 9">
    <g class="cls-38">
      <path class="cls-8" d="M218.92,296.59l112.98,82.06-127.55-56.81,14.58-25.25"/>
    </g>
  </g>
  <g id="line2d_10" data-name="line2d 10">
    <g class="cls-39">
      <path class="cls-5" d="M218.92,157.73l75.59,199.33-194.18,24.83,118.6-224.16"/>
    </g>
  </g>
  <g id="line2d_11" data-name="line2d 11">
    <g class="cls-37">
      <path class="cls-6" d="M218.92,189.3l98.22,180.83-141.27-31.85,43.05-148.98"/>
    </g>
  </g>
  <g id="legend_1" data-name="legend 1">
    <g id="patch_9" data-name="patch 9">
      <path class="cls-12" d="M291.94,581.63h197.46c1.47,0,2.2-.73,2.2-2.2v-79.86c0-1.47-.73-2.2-2.2-2.2h-197.46c-1.47,0-2.2.73-2.2,2.2v79.86c0,1.47.73,2.2,2.2,2.2Z"/>
    </g>
    <g id="line2d_12" data-name="line2d 12">
      <path class="cls-8" d="M294.14,507.15h22"/>
    </g>
    <g id="text_10" data-name="text 10">
      <text class="cls-21" transform="translate(324.94 511)"><tspan class="cls-25" x="0" y="0">1</tspan><tspan class="cls-74" x="5.54" y="0">. </tspan><tspan class="cls-25" x="11.76" y="0">Base</tspan><tspan class="cls-74" x="32.5" y="0"> </tspan><tspan class="cls-28" x="35.5" y="0">Baseline</tspan><tspan class="cls-74" x="73.16" y="0" xml:space="preserve"> (</tspan><tspan class="cls-25" x="79.76" y="0">12L</tspan><tspan class="cls-74" x="97.16" y="0">, </tspan><tspan class="cls-25" x="103.38" y="0">FP32</tspan><tspan class="cls-74" x="127.13" y="0">)</tspan></text>
    </g>
    <g id="line2d_13" data-name="line2d 13">
      <path class="cls-5" d="M294.14,523.34h22"/>
    </g>
    <g id="text_11" data-name="text 11">
      <text class="cls-21" transform="translate(324.94 527.19)"><tspan class="cls-25" x="0" y="0">3</tspan><tspan class="cls-74" x="5.54" y="0">. </tspan><tspan class="cls-25" x="11.76" y="0">Base</tspan><tspan class="cls-74" x="32.5" y="0"> </tspan><tspan class="cls-28" x="35.5" y="0">Baseline</tspan><tspan class="cls-74" x="73.16" y="0" xml:space="preserve"> (</tspan><tspan class="cls-25" x="79.76" y="0">12L</tspan><tspan class="cls-74" x="97.16" y="0">, </tspan><tspan class="cls-25" x="103.38" y="0">PTQ</tspan><tspan class="cls-74" x="126.45" y="0"> </tspan><tspan class="cls-25" x="129.45" y="0">INT8</tspan><tspan class="cls-70" x="155.19" y="0">)</tspan></text>
    </g>
    <g id="line2d_14" data-name="line2d 14">
      <path class="cls-6" d="M294.14,539.53h22"/>
    </g>
    <g id="text_12" data-name="text 12">
      <text class="cls-21" transform="translate(324.94 543.38)"><tspan class="cls-25" x="0" y="0">4</tspan><tspan class="cls-74" x="5.54" y="0">. </tspan><tspan class="cls-25" x="11.76" y="0">Base</tspan><tspan class="cls-74" x="32.5" y="0"> </tspan><tspan class="cls-28" x="35.5" y="0">Baseline</tspan><tspan class="cls-74" x="73.16" y="0" xml:space="preserve"> (</tspan><tspan class="cls-25" x="79.76" y="0">12L</tspan><tspan class="cls-74" x="97.16" y="0">, </tspan><tspan class="cls-25" x="103.38" y="0">QAT</tspan><tspan class="cls-70" x="128.13" y="0">)</tspan></text>
    </g>
    <g id="line2d_15" data-name="line2d 15">
      <path class="cls-9" d="M294.14,555.72h22"/>
    </g>
    <g id="text_13" data-name="text 13">
      <text class="cls-21" transform="translate(324.94 559.57)"><tspan class="cls-25" x="0" y="0">5</tspan><tspan class="cls-74" x="5.54" y="0">. </tspan><tspan class="cls-25" x="11.76" y="0">Base</tspan><tspan class="cls-74" x="32.5" y="0"> </tspan><tspan class="cls-25" x="35.5" y="0">Pruned</tspan><tspan class="cls-74" x="69.94" y="0" xml:space="preserve"> (</tspan><tspan class="cls-25" x="76.54" y="0">8L</tspan><tspan class="cls-74" x="88.39" y="0">, </tspan><tspan class="cls-25" x="94.61" y="0">FP32</tspan><tspan class="cls-74" x="118.35" y="0">)</tspan></text>
    </g>
    <g id="line2d_16" data-name="line2d 16">
      <path class="cls-4" d="M294.14,571.92h22"/>
    </g>
    <g id="text_14" data-name="text 14">
      <text class="cls-21" transform="translate(324.94 575.77)"><tspan class="cls-25" x="0" y="0">8</tspan><tspan class="cls-74" x="5.54" y="0">. </tspan><tspan class="cls-25" x="11.76" y="0">Base</tspan><tspan class="cls-74" x="32.5" y="0"> </tspan><tspan class="cls-25" x="35.5" y="0">Pruned</tspan><tspan class="cls-74" x="69.94" y="0" xml:space="preserve"> (</tspan><tspan class="cls-25" x="76.54" y="0">8L</tspan><tspan class="cls-74" x="88.39" y="0">, </tspan><tspan class="cls-25" x="94.61" y="0">PTQ</tspan><tspan class="cls-74" x="117.68" y="0"> </tspan><tspan class="cls-25" x="120.68" y="0">INT8</tspan><tspan class="cls-72" x="146.42" y="0">)</tspan></text>
    </g>
  </g>
  <g id="line2d_17" data-name="line2d 17">
    <g class="cls-34">
      <path class="cls-9" d="M218.92,175.39l105.76,199.09-198.29-7.64,92.53-191.46"/>
    </g>
  </g>
  <g id="line2d_18" data-name="line2d 18">
    <g class="cls-31">
      <path class="cls-4" d="M218.92,154.24l90.67,211.53-236.45,31.81,145.78-243.35"/>
    </g>
  </g>
  <g id="patch_1-2" data-name="patch 1">
    <path class="cls-1" d="M411.76,551.8h648.54V47.8H411.76v504Z"/>
  </g>
  <g id="patch_2-2" data-name="patch 2">
    <path class="cls-1" d="M847.29,312.28c0-23.17-4.55-46.11-13.39-67.51-8.84-21.4-21.8-40.85-38.13-57.23-16.33-16.38-35.72-29.38-57.06-38.24-21.34-8.87-44.21-13.43-67.31-13.43s-45.97,4.56-67.31,13.43c-21.34,8.87-40.73,21.86-57.06,38.24-16.33,16.38-29.29,35.83-38.13,57.23s-13.39,44.34-13.39,67.51,4.55,46.11,13.39,67.51c8.84,21.4,21.8,40.85,38.13,57.23,16.33,16.38,35.72,29.38,57.06,38.24,21.34,8.87,44.21,13.43,67.31,13.43s45.97-4.56,67.31-13.43c21.34-8.87,40.73-21.86,57.06-38.24,16.33-16.38,29.29-35.83,38.13-57.23,8.84-21.4,13.39-44.34,13.39-67.51M671.39,312.28h0Z"/>
  </g>
  <g id="patch_3-2" data-name="patch 3">
    <g class="cls-35">
      <path class="cls-16" d="M671.39,295.48l129.83,16.8-129.83,147.66-35.68-147.66,35.68-16.8Z"/>
    </g>
  </g>
  <g id="patch_4-2" data-name="patch 4">
    <g class="cls-32">
      <path class="cls-15" d="M671.39,146.44l129.83,165.85-129.83,16.8-167.52-16.8,167.52-165.85Z"/>
    </g>
  </g>
  <g id="patch_5-2" data-name="patch 5">
    <g class="cls-54">
      <path class="cls-17" d="M671.39,188.39l112.86,123.89-112.86,147.23-16.75-147.23,16.75-123.89Z"/>
    </g>
  </g>
  <g id="patch_6-2" data-name="patch 6">
    <g class="cls-55">
      <path class="cls-22" d="M671.39,174.51l121.53,137.77-121.53,168.01-61.02-168.01,61.02-137.77Z"/>
    </g>
  </g>
  <g id="patch_7-2" data-name="patch 7">
    <g class="cls-56">
      <path class="cls-20" d="M671.39,154.65l117.01,157.63-117.01,167.58-123.44-167.58,123.44-157.63Z"/>
    </g>
  </g>
  <g id="patch_8-2" data-name="patch 8">
    <g class="cls-57">
      <path class="cls-13" d="M671.39,144.27l121.53,168.01-121.53,24.3-164.63-24.3,164.63-168.01Z"/>
    </g>
  </g>
  <g id="xtick_1-2" data-name="xtick 1">
    <g id="line2d_1-2" data-name="line2d 1">
      <g class="cls-58">
        <path class="cls-7" d="M671.39,312.28v-176.41"/>
      </g>
    </g>
    <g id="text_1-2" data-name="text 1">
      <text class="cls-23" transform="translate(657.55 92.11)"><tspan x="0" y="0">Size</tspan></text>
      <text class="cls-21" transform="translate(656.13 107.75)"><tspan class="cls-74" x="0" y="0">(</tspan><tspan class="cls-25" x="3.6" y="0">MB</tspan><tspan class="cls-74" x="21.07" y="0">)</tspan></text>
    </g>
  </g>
  <g id="xtick_2-2" data-name="xtick 2">
    <g id="line2d_2-2" data-name="line2d 2">
      <g class="cls-59">
        <path class="cls-7" d="M671.39,312.28h175.89"/>
      </g>
    </g>
    <g id="text_2-2" data-name="text 2">
      <text class="cls-23" transform="translate(853.15 309.18)"><tspan x="0" y="0">Accuracy</tspan></text>
      <text class="cls-21" transform="translate(868.21 324.82)"><tspan class="cls-74" x="0" y="0">(</tspan><tspan class="cls-25" x="3.6" y="0">GPU</tspan><tspan class="cls-74" x="27.91" y="0">)</tspan></text>
    </g>
  </g>
  <g id="xtick_3-2" data-name="xtick 3">
    <g id="line2d_3-2" data-name="line2d 3">
      <g class="cls-52">
        <path class="cls-7" d="M671.39,312.28v176.41"/>
      </g>
    </g>
    <g id="text_3-2" data-name="text 3">
      <text class="cls-23" transform="translate(642.82 526.11)"><tspan x="0" y="0">Latency</tspan></text>
      <text class="cls-21" transform="translate(639.17 541.75)"><tspan class="cls-74" x="0" y="0">(</tspan><tspan class="cls-25" x="3.6" y="0">GPU</tspan><tspan class="cls-74" x="27.91" y="0">, </tspan><tspan class="cls-27" x="34.13" y="0">ms</tspan><tspan class="cls-74" x="47.68" y="0">)</tspan></text>
    </g>
  </g>
  <g id="line2d_4-2" data-name="line2d 4">
    <g class="cls-50">
      <path class="cls-7" d="M671.39,312.28h-175.89"/>
    </g>
  </g>
  <g id="text_4-2" data-name="text 4">
    <text class="cls-23" transform="translate(447.46 301.47)"><tspan x="0" y="0">Peak</tspan></text>
    <text class="cls-21" transform="translate(428.99 316.63)"><tspan class="cls-25" x="0" y="0">GPU</tspan><tspan class="cls-74" x="24.31" y="0"> </tspan><tspan class="cls-29" x="27.31" y="0">Mem</tspan></text>
    <text class="cls-21" transform="translate(448.79 332.27)"><tspan class="cls-74" x="0" y="0">(</tspan><tspan class="cls-25" x="3.6" y="0">MB</tspan><tspan class="cls-74" x="21.07" y="0">)</tspan></text>
  </g>
  <g id="matplotlib.axis_2-2" data-name="matplotlib.axis 2">
    <g id="ytick_1-2" data-name="ytick 1">
      <g id="line2d_5-2" data-name="line2d 5">
        <g class="cls-53">
          <path class="cls-7" d="M671.39,278.68c4.4,0,8.76.87,12.82,2.56,4.06,1.69,7.76,4.16,10.87,7.28,3.11,3.12,5.58,6.82,7.26,10.9,1.68,4.08,2.55,8.45,2.55,12.86s-.87,8.78-2.55,12.86c-1.68,4.08-4.15,7.78-7.26,10.9-3.11,3.12-6.8,5.6-10.87,7.28-4.06,1.69-8.42,2.56-12.82,2.56s-8.76-.87-12.82-2.56c-4.06-1.69-7.76-4.16-10.87-7.28-3.11-3.12-5.58-6.82-7.26-10.9s-2.55-8.45-2.55-12.86.87-8.78,2.55-12.86,4.15-7.78,7.26-10.9,6.8-5.6,10.87-7.28,8.42-2.56,12.82-2.56"/>
        </g>
      </g>
      <g id="text_5-2" data-name="text 5">
        <text class="cls-19" transform="translate(671.39 277.16)"><tspan class="cls-25" x="0" y="0">0</tspan><tspan class="cls-69" x="5.54" y="0">.</tspan><tspan class="cls-25" x="8.76" y="0">2</tspan></text>
      </g>
    </g>
    <g id="ytick_2-2" data-name="ytick 2">
      <g id="line2d_6-2" data-name="line2d 6">
        <g class="cls-51">
          <path class="cls-7" d="M671.39,245.08c8.8,0,17.51,1.74,25.64,5.12,8.13,3.38,15.52,8.33,21.74,14.57,6.22,6.24,11.16,13.65,14.53,21.8,3.37,8.15,5.1,16.89,5.1,25.72s-1.73,17.56-5.1,25.72c-3.37,8.15-8.3,15.56-14.53,21.8-6.22,6.24-13.61,11.19-21.74,14.57-8.13,3.38-16.84,5.12-25.64,5.12s-17.51-1.74-25.64-5.12c-8.13-3.38-15.52-8.33-21.74-14.57-6.22-6.24-11.16-13.65-14.53-21.8-3.37-8.15-5.1-16.89-5.1-25.72s1.73-17.56,5.1-25.72c3.37-8.15,8.3-15.56,14.53-21.8,6.22-6.24,13.61-11.19,21.74-14.57,8.13-3.38,16.84-5.12,25.64-5.12"/>
        </g>
      </g>
      <g id="text_6-2" data-name="text 6">
        <text class="cls-19" transform="translate(671.39 243.56)"><tspan class="cls-25" x="0" y="0">0</tspan><tspan class="cls-69" x="5.54" y="0">.</tspan><tspan class="cls-25" x="8.76" y="0">4</tspan></text>
      </g>
    </g>
    <g id="ytick_3-2" data-name="ytick 3">
      <g id="line2d_7-2" data-name="line2d 7">
        <g class="cls-46">
          <path class="cls-7" d="M671.39,211.48c13.2,0,26.27,2.61,38.46,7.67,12.19,5.07,23.27,12.49,32.61,21.85,9.33,9.36,16.74,20.47,21.79,32.7,5.05,12.23,7.65,25.34,7.65,38.58s-2.6,26.35-7.65,38.58c-5.05,12.23-12.45,23.34-21.79,32.7s-20.41,16.79-32.61,21.85c-12.19,5.07-25.26,7.67-38.46,7.67s-26.27-2.61-38.46-7.67c-12.19-5.07-23.27-12.49-32.61-21.85-9.33-9.36-16.74-20.47-21.79-32.7-5.05-12.23-7.65-25.34-7.65-38.58s2.6-26.35,7.65-38.58c5.05-12.23,12.45-23.34,21.79-32.7,9.33-9.36,20.41-16.79,32.61-21.85,12.19-5.07,25.26-7.67,38.46-7.67"/>
        </g>
      </g>
      <g id="text_7-2" data-name="text 7">
        <text class="cls-19" transform="translate(671.39 209.96)"><tspan class="cls-25" x="0" y="0">0</tspan><tspan class="cls-69" x="5.54" y="0">.</tspan><tspan class="cls-25" x="8.76" y="0">6</tspan></text>
      </g>
    </g>
    <g id="ytick_4-2" data-name="ytick 4">
      <g id="line2d_8-2" data-name="line2d 8">
        <g class="cls-41">
          <path class="cls-7" d="M671.39,177.87c17.6,0,35.03,3.48,51.28,10.23,16.26,6.75,31.03,16.66,43.48,29.14,12.44,12.48,22.32,27.3,29.05,43.61,6.73,16.31,10.2,33.79,10.2,51.44s-3.47,35.13-10.2,51.44c-6.73,16.31-16.61,31.12-29.05,43.61-12.44,12.48-27.22,22.38-43.48,29.14-16.26,6.75-33.69,10.23-51.28,10.23s-35.03-3.48-51.28-10.23c-16.26-6.75-31.03-16.66-43.48-29.14-12.44-12.48-22.32-27.3-29.05-43.61-6.73-16.31-10.2-33.79-10.2-51.44s3.47-35.13,10.2-51.44,16.61-31.12,29.05-43.61,27.22-22.38,43.48-29.14c16.26-6.75,33.69-10.23,51.28-10.23"/>
        </g>
      </g>
      <g id="text_8-2" data-name="text 8">
        <text class="cls-19" transform="translate(671.39 176.35)"><tspan class="cls-25" x="0" y="0">0</tspan><tspan class="cls-69" x="5.54" y="0">.</tspan><tspan class="cls-25" x="8.76" y="0">8</tspan></text>
      </g>
    </g>
    <g id="ytick_5-2" data-name="ytick 5">
      <g id="line2d_9-2" data-name="line2d 9">
        <g class="cls-42">
          <path class="cls-7" d="M671.39,144.27c22,0,43.78,4.35,64.11,12.79,20.32,8.44,38.79,20.82,54.35,36.42,15.56,15.6,27.89,34.12,36.31,54.51,8.42,20.38,12.75,42.23,12.75,64.29s-4.33,43.91-12.75,64.29c-8.42,20.38-20.76,38.91-36.31,54.51-15.56,15.6-34.02,27.98-54.35,36.42s-42.11,12.79-64.11,12.79-43.78-4.35-64.11-12.79-38.79-20.82-54.35-36.42c-15.56-15.6-27.89-34.12-36.31-54.51-8.42-20.38-12.75-42.23-12.75-64.29s4.33-43.91,12.75-64.29c8.42-20.38,20.76-38.91,36.31-54.51s34.02-27.98,54.35-36.42c20.32-8.44,42.11-12.79,64.11-12.79"/>
        </g>
      </g>
      <g id="text_9-2" data-name="text 9">
        <text class="cls-19" transform="translate(671.39 142.75)"><tspan class="cls-25" x="0" y="0">1</tspan><tspan class="cls-69" x="5.54" y="0">.</tspan><tspan class="cls-25" x="8.76" y="0">0</tspan></text>
      </g>
    </g>
  </g>
  <g id="patch_9-2" data-name="patch 9">
    <path class="cls-10" d="M671.39,135.87c-23.1,0-45.97,4.56-67.31,13.43-21.34,8.87-40.73,21.86-57.06,38.24-16.33,16.38-29.29,35.83-38.13,57.23s-13.39,44.34-13.39,67.51,4.55,46.11,13.39,67.51c8.84,21.4,21.8,40.85,38.13,57.23,16.33,16.38,35.72,29.38,57.06,38.24,21.34,8.87,44.21,13.43,67.31,13.43s45.97-4.56,67.31-13.43c21.34-8.87,40.73-21.86,57.06-38.24,16.33-16.38,29.29-35.83,38.13-57.23,8.84-21.4,13.39-44.34,13.39-67.51s-4.55-46.11-13.39-67.51c-8.84-21.4-21.8-40.85-38.13-57.23-16.33-16.38-35.72-29.38-57.06-38.24-21.34-8.87-44.21-13.43-67.31-13.43"/>
  </g>
  <g id="text_10-2" data-name="text 10">
    <text class="cls-18" transform="translate(572.58 76.09)"><tspan class="cls-25" x="0" y="0">GPU</tspan><tspan class="cls-74" x="32.42" y="0"> </tspan><tspan class="cls-25" x="36.42" y="0">综合性能对比</tspan><tspan class="cls-74" x="132.42" y="0" xml:space="preserve"> (</tspan><tspan class="cls-25" x="141.22" y="0">Base模型</tspan><tspan class="cls-73" x="200.86" y="0">)</tspan></text>
  </g>
  <g id="line2d_10-2" data-name="line2d 10">
    <g class="cls-43">
      <path class="cls-8" d="M671.39,295.48l129.83,16.8-129.83,147.66-35.68-147.66,35.68-16.8"/>
    </g>
  </g>
  <g id="line2d_11-2" data-name="line2d 11">
    <g class="cls-44">
      <path class="cls-2" d="M671.39,146.44l129.83,165.85-129.83,16.8-167.52-16.8,167.52-165.85"/>
    </g>
  </g>
  <g id="line2d_12-2" data-name="line2d 12">
    <g class="cls-45">
      <path class="cls-6" d="M671.39,188.39l112.86,123.89-112.86,147.23-16.75-147.23,16.75-123.89"/>
    </g>
  </g>
  <g id="legend_1-2" data-name="legend 1">
    <g id="patch_10" data-name="patch 10">
      <path class="cls-12" d="M785.54,602.71h201.29c1.67,0,2.51-.84,2.51-2.52v-109.83c0-1.68-.84-2.52-2.51-2.52h-201.29c-1.67,0-2.51.84-2.51,2.52v109.83c0,1.68.84,2.52,2.51,2.52Z"/>
    </g>
    <g id="line2d_13-2" data-name="line2d 13">
      <path class="cls-8" d="M788.05,499.03h25.08"/>
    </g>
    <g id="text_11-2" data-name="text 11">
      <text class="cls-21" transform="translate(823.16 503.43)"><tspan class="cls-25" x="0" y="0">1</tspan><tspan class="cls-71" x="5.54" y="0">. </tspan><tspan class="cls-25" x="11.76" y="0">Base</tspan><tspan class="cls-74" x="32.5" y="0"> </tspan><tspan class="cls-25" x="35.5" y="0">Baseline</tspan><tspan class="cls-74" x="73.16" y="0" xml:space="preserve"> (</tspan><tspan class="cls-25" x="79.76" y="0">12L</tspan><tspan class="cls-74" x="97.16" y="0">, </tspan><tspan class="cls-25" x="103.38" y="0">FP32</tspan><tspan class="cls-71" x="127.13" y="0">)</tspan></text>
    </g>
    <g id="line2d_14-2" data-name="line2d 14">
      <path class="cls-2" d="M788.05,517.54h25.08"/>
    </g>
    <g id="text_12-2" data-name="text 12">
      <text class="cls-21" transform="translate(823.16 521.95)"><tspan class="cls-25" x="0" y="0">2</tspan><tspan class="cls-71" x="5.54" y="0">. </tspan><tspan class="cls-25" x="11.76" y="0">Base</tspan><tspan class="cls-74" x="32.5" y="0"> </tspan><tspan class="cls-25" x="35.5" y="0">Baseline</tspan><tspan class="cls-74" x="73.16" y="0" xml:space="preserve"> (</tspan><tspan class="cls-25" x="79.76" y="0">12L</tspan><tspan class="cls-74" x="97.16" y="0">, </tspan><tspan class="cls-25" x="103.38" y="0">INT4</tspan><tspan class="cls-71" x="129.12" y="0">)</tspan></text>
    </g>
    <g id="line2d_15-2" data-name="line2d 15">
      <path class="cls-6" d="M788.05,536.06h25.08"/>
    </g>
    <g id="text_13-2" data-name="text 13">
      <text class="cls-21" transform="translate(823.16 540.46)"><tspan class="cls-25" x="0" y="0">4</tspan><tspan class="cls-71" x="5.54" y="0">. </tspan><tspan class="cls-25" x="11.76" y="0">Base</tspan><tspan class="cls-74" x="32.5" y="0"> </tspan><tspan class="cls-25" x="35.5" y="0">Baseline</tspan><tspan class="cls-74" x="73.16" y="0" xml:space="preserve"> (</tspan><tspan class="cls-25" x="79.76" y="0">12L</tspan><tspan class="cls-74" x="97.16" y="0">, </tspan><tspan class="cls-25" x="103.38" y="0">QAT</tspan><tspan class="cls-71" x="128.13" y="0">)</tspan></text>
    </g>
    <g id="line2d_16-2" data-name="line2d 16">
      <path class="cls-9" d="M788.05,554.57h25.08"/>
    </g>
    <g id="text_14-2" data-name="text 14">
      <text class="cls-21" transform="translate(823.16 558.98)"><tspan class="cls-25" x="0" y="0">5</tspan><tspan class="cls-71" x="5.54" y="0">. </tspan><tspan class="cls-25" x="11.76" y="0">Base</tspan><tspan class="cls-74" x="32.5" y="0"> </tspan><tspan class="cls-25" x="35.5" y="0">Pruned</tspan><tspan class="cls-74" x="69.93" y="0" xml:space="preserve"> (</tspan><tspan class="cls-25" x="76.53" y="0">8L</tspan><tspan class="cls-74" x="88.39" y="0">, </tspan><tspan class="cls-25" x="94.61" y="0">FP32</tspan><tspan class="cls-74" x="118.35" y="0">)</tspan></text>
    </g>
    <g id="line2d_17-2" data-name="line2d 17">
      <path class="cls-11" d="M788.05,573.09h25.08"/>
    </g>
    <g id="text_15" data-name="text 15">
      <text class="cls-21" transform="translate(823.16 577.49)"><tspan class="cls-25" x="0" y="0">6</tspan><tspan class="cls-71" x="5.54" y="0">. </tspan><tspan class="cls-25" x="11.76" y="0">Base</tspan><tspan class="cls-74" x="32.5" y="0"> </tspan><tspan class="cls-25" x="35.5" y="0">Pruned</tspan><tspan class="cls-74" x="69.93" y="0" xml:space="preserve"> (</tspan><tspan class="cls-25" x="76.53" y="0">8L</tspan><tspan class="cls-74" x="88.39" y="0">, </tspan><tspan class="cls-25" x="94.61" y="0">FP16</tspan><tspan class="cls-74" x="118.35" y="0">)</tspan></text>
    </g>
    <g id="line2d_18-2" data-name="line2d 18">
      <path class="cls-3" d="M788.05,591.6h25.08"/>
    </g>
    <g id="text_16" data-name="text 16">
      <text class="cls-21" transform="translate(823.16 596)"><tspan class="cls-25" x="0" y="0">7</tspan><tspan class="cls-71" x="5.54" y="0">. </tspan><tspan class="cls-25" x="11.76" y="0">Base</tspan><tspan class="cls-74" x="32.5" y="0"> </tspan><tspan class="cls-25" x="35.5" y="0">Pruned</tspan><tspan class="cls-74" x="69.93" y="0" xml:space="preserve"> (</tspan><tspan class="cls-25" x="76.53" y="0">8L</tspan><tspan class="cls-74" x="88.39" y="0">, </tspan><tspan class="cls-25" x="94.61" y="0">INT4</tspan><tspan class="cls-71" x="120.35" y="0">)</tspan></text>
    </g>
  </g>
  <g id="line2d_19" data-name="line2d 19">
    <g class="cls-47">
      <path class="cls-9" d="M671.39,174.51l121.53,137.77-121.53,168.01-61.02-168.01,61.02-137.77"/>
    </g>
  </g>
  <g id="line2d_20" data-name="line2d 20">
    <g class="cls-48">
      <path class="cls-11" d="M671.39,154.65l117.01,157.63-117.01,167.58-123.44-167.58,123.44-157.63"/>
    </g>
  </g>
  <g id="line2d_21" data-name="line2d 21">
    <g class="cls-49">
      <path class="cls-3" d="M671.39,144.27l121.53,168.01-121.53,24.3-164.63-24.3,164.63-168.01"/>
    </g>
  </g>
  <text class="cls-26" transform="translate(744.34 14.08)"><tspan x="0" y="0">*所有指标已经归一化，数值越大越好</tspan></text>
</svg>