<?xml version="1.0" encoding="UTF-8"?>
<svg id="_图层_1" data-name="图层 1" xmlns="http://www.w3.org/2000/svg" xmlns:xlink="http://www.w3.org/1999/xlink" viewBox="0 0 896.31 525.7">
  <defs>
    <style>
      .cls-1, .cls-2, .cls-3, .cls-4, .cls-5, .cls-6, .cls-7, .cls-8, .cls-9 {
        fill: none;
      }

      .cls-10 {
        fill: #fff;
        opacity: .8;
        stroke: #ccc;
      }

      .cls-10, .cls-11, .cls-12, .cls-13, .cls-14, .cls-15, .cls-16, .cls-17, .cls-18, .cls-19, .cls-20, .cls-21, .cls-22, .cls-23 {
        isolation: isolate;
      }

      .cls-11 {
        fill: #08684a;
        stroke: #08684a;
      }

      .cls-11, .cls-12, .cls-13, .cls-16 {
        opacity: .1;
      }

      .cls-2 {
        stroke: rgba(16, 110, 167, .7);
      }

      .cls-2, .cls-3, .cls-4, .cls-5, .cls-6, .cls-7, .cls-8, .cls-9 {
        stroke-linecap: square;
      }

      .cls-2, .cls-3, .cls-4, .cls-5, .cls-6, .cls-7, .cls-9 {
        stroke-linejoin: round;
      }

      .cls-2, .cls-4, .cls-5, .cls-7 {
        stroke-width: 1.5px;
      }

      .cls-3 {
        stroke: #b0b0b0;
      }

      .cls-3, .cls-8 {
        stroke-width: .8px;
      }

      .cls-4 {
        stroke: rgba(137, 137, 137, .7);
      }

      .cls-12 {
        fill: #898989;
        stroke: #898989;
      }

      .cls-13 {
        fill: #106ea7;
        stroke: #106ea7;
      }

      .cls-5 {
        stroke: rgba(8, 104, 74, .7);
      }

      .cls-24 {
        clip-path: url(#clippath-17);
      }

      .cls-25 {
        clip-path: url(#clippath-19);
      }

      .cls-26 {
        clip-path: url(#clippath-11);
      }

      .cls-27 {
        clip-path: url(#clippath-16);
      }

      .cls-28 {
        clip-path: url(#clippath-18);
      }

      .cls-29 {
        clip-path: url(#clippath-10);
      }

      .cls-30 {
        clip-path: url(#clippath-15);
      }

      .cls-31 {
        clip-path: url(#clippath-13);
      }

      .cls-32 {
        clip-path: url(#clippath-14);
      }

      .cls-33 {
        clip-path: url(#clippath-12);
      }

      .cls-34 {
        clip-path: url(#clippath-31);
      }

      .cls-35 {
        clip-path: url(#clippath-32);
      }

      .cls-36 {
        clip-path: url(#clippath-33);
      }

      .cls-37 {
        clip-path: url(#clippath-34);
      }

      .cls-38 {
        clip-path: url(#clippath-30);
      }

      .cls-39 {
        clip-path: url(#clippath-27);
      }

      .cls-40 {
        clip-path: url(#clippath-29);
      }

      .cls-41 {
        clip-path: url(#clippath-26);
      }

      .cls-42 {
        clip-path: url(#clippath-28);
      }

      .cls-43 {
        clip-path: url(#clippath-20);
      }

      .cls-44 {
        clip-path: url(#clippath-21);
      }

      .cls-45 {
        clip-path: url(#clippath-22);
      }

      .cls-46 {
        clip-path: url(#clippath-23);
      }

      .cls-47 {
        clip-path: url(#clippath-24);
      }

      .cls-48 {
        clip-path: url(#clippath-25);
      }

      .cls-14, .cls-15, .cls-17, .cls-19, .cls-21 {
        fill: #040000;
      }

      .cls-14, .cls-15, .cls-18, .cls-21, .cls-23 {
        font-family: STHeitiTC-Medium, 'Heiti TC';
        font-weight: 500;
      }

      .cls-14, .cls-17 {
        font-size: 12px;
      }

      .cls-49 {
        clip-path: url(#clippath-1);
      }

      .cls-50 {
        clip-path: url(#clippath-3);
      }

      .cls-51 {
        clip-path: url(#clippath-4);
      }

      .cls-52 {
        clip-path: url(#clippath-2);
      }

      .cls-53 {
        clip-path: url(#clippath-7);
      }

      .cls-54 {
        clip-path: url(#clippath-6);
      }

      .cls-55 {
        clip-path: url(#clippath-9);
      }

      .cls-56 {
        clip-path: url(#clippath-8);
      }

      .cls-57 {
        clip-path: url(#clippath-5);
      }

      .cls-15, .cls-23 {
        font-size: 10px;
      }

      .cls-16 {
        fill: #d68b14;
        stroke: #d68b14;
      }

      .cls-17 {
        font-family: TimesNewRomanPSMT, 'Times New Roman';
      }

      .cls-18 {
        font-size: 11.25px;
      }

      .cls-18, .cls-23 {
        fill: #7f8080;
      }

      .cls-19 {
        font-family: STSongti-SC-Regular, 'Songti SC';
        font-size: 16px;
      }

      .cls-20 {
        fill: #bf75ad;
      }

      .cls-20, .cls-22 {
        opacity: .25;
      }

      .cls-20, .cls-9 {
        stroke: #bf75ad;
      }

      .cls-21 {
        font-size: 13.5px;
      }

      .cls-22 {
        fill: #cc5d17;
      }

      .cls-22, .cls-6 {
        stroke: #cc5d17;
      }

      .cls-6, .cls-9 {
        stroke-width: 2.5px;
      }

      .cls-58 {
        clip-path: url(#clippath);
      }

      .cls-7 {
        stroke: rgba(214, 139, 20, .7);
      }

      .cls-8 {
        stroke: #040000;
      }
    </style>
    <clipPath id="clippath">
      <path class="cls-1" d="M377.38,253.26c0-21.92-4.32-43.63-12.71-63.89-8.39-20.25-20.69-38.66-36.19-54.16-15.5-15.5-33.91-27.8-54.16-36.19-20.25-8.39-41.96-12.71-63.89-12.71s-43.63,4.32-63.89,12.71c-20.25,8.39-38.66,20.69-54.16,36.19-15.5,15.5-27.8,33.91-36.19,54.16-8.39,20.25-12.71,41.96-12.71,63.89s4.32,43.63,12.71,63.89c8.39,20.25,20.69,38.66,36.19,54.16,15.5,15.5,33.91,27.8,54.16,36.19,20.25,8.39,41.96,12.71,63.89,12.71s43.63-4.32,63.89-12.71c20.25-8.39,38.66-20.69,54.16-36.19s27.8-33.91,36.19-54.16c8.39-20.25,12.71-41.96,12.71-63.89M210.43,253.26h0Z"/>
    </clipPath>
    <clipPath id="clippath-1">
      <path class="cls-1" d="M377.38,253.26c0-21.92-4.32-43.63-12.71-63.89-8.39-20.25-20.69-38.66-36.19-54.16-15.5-15.5-33.91-27.8-54.16-36.19-20.25-8.39-41.96-12.71-63.89-12.71s-43.63,4.32-63.89,12.71c-20.25,8.39-38.66,20.69-54.16,36.19-15.5,15.5-27.8,33.91-36.19,54.16-8.39,20.25-12.71,41.96-12.71,63.89s4.32,43.63,12.71,63.89c8.39,20.25,20.69,38.66,36.19,54.16,15.5,15.5,33.91,27.8,54.16,36.19,20.25,8.39,41.96,12.71,63.89,12.71s43.63-4.32,63.89-12.71c20.25-8.39,38.66-20.69,54.16-36.19s27.8-33.91,36.19-54.16c8.39-20.25,12.71-41.96,12.71-63.89M210.43,253.26h0Z"/>
    </clipPath>
    <clipPath id="clippath-2">
      <path class="cls-1" d="M377.38,253.26c0-21.92-4.32-43.63-12.71-63.89-8.39-20.25-20.69-38.66-36.19-54.16-15.5-15.5-33.91-27.8-54.16-36.19-20.25-8.39-41.96-12.71-63.89-12.71s-43.63,4.32-63.89,12.71c-20.25,8.39-38.66,20.69-54.16,36.19-15.5,15.5-27.8,33.91-36.19,54.16-8.39,20.25-12.71,41.96-12.71,63.89s4.32,43.63,12.71,63.89c8.39,20.25,20.69,38.66,36.19,54.16,15.5,15.5,33.91,27.8,54.16,36.19,20.25,8.39,41.96,12.71,63.89,12.71s43.63-4.32,63.89-12.71c20.25-8.39,38.66-20.69,54.16-36.19s27.8-33.91,36.19-54.16c8.39-20.25,12.71-41.96,12.71-63.89M210.43,253.26h0Z"/>
    </clipPath>
    <clipPath id="clippath-3">
      <path class="cls-1" d="M377.38,253.26c0-21.92-4.32-43.63-12.71-63.89-8.39-20.25-20.69-38.66-36.19-54.16-15.5-15.5-33.91-27.8-54.16-36.19-20.25-8.39-41.96-12.71-63.89-12.71s-43.63,4.32-63.89,12.71c-20.25,8.39-38.66,20.69-54.16,36.19-15.5,15.5-27.8,33.91-36.19,54.16-8.39,20.25-12.71,41.96-12.71,63.89s4.32,43.63,12.71,63.89c8.39,20.25,20.69,38.66,36.19,54.16,15.5,15.5,33.91,27.8,54.16,36.19,20.25,8.39,41.96,12.71,63.89,12.71s43.63-4.32,63.89-12.71c20.25-8.39,38.66-20.69,54.16-36.19s27.8-33.91,36.19-54.16c8.39-20.25,12.71-41.96,12.71-63.89M210.43,253.26h0Z"/>
    </clipPath>
    <clipPath id="clippath-4">
      <path class="cls-1" d="M377.38,253.26c0-21.92-4.32-43.63-12.71-63.89-8.39-20.25-20.69-38.66-36.19-54.16-15.5-15.5-33.91-27.8-54.16-36.19-20.25-8.39-41.96-12.71-63.89-12.71s-43.63,4.32-63.89,12.71c-20.25,8.39-38.66,20.69-54.16,36.19-15.5,15.5-27.8,33.91-36.19,54.16-8.39,20.25-12.71,41.96-12.71,63.89s4.32,43.63,12.71,63.89c8.39,20.25,20.69,38.66,36.19,54.16,15.5,15.5,33.91,27.8,54.16,36.19,20.25,8.39,41.96,12.71,63.89,12.71s43.63-4.32,63.89-12.71c20.25-8.39,38.66-20.69,54.16-36.19s27.8-33.91,36.19-54.16c8.39-20.25,12.71-41.96,12.71-63.89M210.43,253.26h0Z"/>
    </clipPath>
    <clipPath id="clippath-5">
      <path class="cls-1" d="M377.38,253.26c0-21.92-4.32-43.63-12.71-63.89-8.39-20.25-20.69-38.66-36.19-54.16-15.5-15.5-33.91-27.8-54.16-36.19-20.25-8.39-41.96-12.71-63.89-12.71s-43.63,4.32-63.89,12.71c-20.25,8.39-38.66,20.69-54.16,36.19-15.5,15.5-27.8,33.91-36.19,54.16-8.39,20.25-12.71,41.96-12.71,63.89s4.32,43.63,12.71,63.89c8.39,20.25,20.69,38.66,36.19,54.16,15.5,15.5,33.91,27.8,54.16,36.19,20.25,8.39,41.96,12.71,63.89,12.71s43.63-4.32,63.89-12.71c20.25-8.39,38.66-20.69,54.16-36.19s27.8-33.91,36.19-54.16c8.39-20.25,12.71-41.96,12.71-63.89M210.43,253.26h0Z"/>
    </clipPath>
    <clipPath id="clippath-6">
      <path class="cls-1" d="M377.38,253.26c0-21.92-4.32-43.63-12.71-63.89-8.39-20.25-20.69-38.66-36.19-54.16-15.5-15.5-33.91-27.8-54.16-36.19-20.25-8.39-41.96-12.71-63.89-12.71s-43.63,4.32-63.89,12.71c-20.25,8.39-38.66,20.69-54.16,36.19-15.5,15.5-27.8,33.91-36.19,54.16-8.39,20.25-12.71,41.96-12.71,63.89s4.32,43.63,12.71,63.89c8.39,20.25,20.69,38.66,36.19,54.16,15.5,15.5,33.91,27.8,54.16,36.19,20.25,8.39,41.96,12.71,63.89,12.71s43.63-4.32,63.89-12.71c20.25-8.39,38.66-20.69,54.16-36.19s27.8-33.91,36.19-54.16c8.39-20.25,12.71-41.96,12.71-63.89M210.43,253.26h0Z"/>
    </clipPath>
    <clipPath id="clippath-7">
      <path class="cls-1" d="M377.38,253.26c0-21.92-4.32-43.63-12.71-63.89-8.39-20.25-20.69-38.66-36.19-54.16-15.5-15.5-33.91-27.8-54.16-36.19-20.25-8.39-41.96-12.71-63.89-12.71s-43.63,4.32-63.89,12.71c-20.25,8.39-38.66,20.69-54.16,36.19-15.5,15.5-27.8,33.91-36.19,54.16-8.39,20.25-12.71,41.96-12.71,63.89s4.32,43.63,12.71,63.89c8.39,20.25,20.69,38.66,36.19,54.16,15.5,15.5,33.91,27.8,54.16,36.19,20.25,8.39,41.96,12.71,63.89,12.71s43.63-4.32,63.89-12.71c20.25-8.39,38.66-20.69,54.16-36.19s27.8-33.91,36.19-54.16c8.39-20.25,12.71-41.96,12.71-63.89M210.43,253.26h0Z"/>
    </clipPath>
    <clipPath id="clippath-8">
      <path class="cls-1" d="M377.38,253.26c0-21.92-4.32-43.63-12.71-63.89-8.39-20.25-20.69-38.66-36.19-54.16-15.5-15.5-33.91-27.8-54.16-36.19-20.25-8.39-41.96-12.71-63.89-12.71s-43.63,4.32-63.89,12.71c-20.25,8.39-38.66,20.69-54.16,36.19-15.5,15.5-27.8,33.91-36.19,54.16-8.39,20.25-12.71,41.96-12.71,63.89s4.32,43.63,12.71,63.89c8.39,20.25,20.69,38.66,36.19,54.16,15.5,15.5,33.91,27.8,54.16,36.19,20.25,8.39,41.96,12.71,63.89,12.71s43.63-4.32,63.89-12.71c20.25-8.39,38.66-20.69,54.16-36.19s27.8-33.91,36.19-54.16c8.39-20.25,12.71-41.96,12.71-63.89M210.43,253.26h0Z"/>
    </clipPath>
    <clipPath id="clippath-9">
      <path class="cls-1" d="M377.38,253.26c0-21.92-4.32-43.63-12.71-63.89-8.39-20.25-20.69-38.66-36.19-54.16-15.5-15.5-33.91-27.8-54.16-36.19-20.25-8.39-41.96-12.71-63.89-12.71s-43.63,4.32-63.89,12.71c-20.25,8.39-38.66,20.69-54.16,36.19-15.5,15.5-27.8,33.91-36.19,54.16-8.39,20.25-12.71,41.96-12.71,63.89s4.32,43.63,12.71,63.89c8.39,20.25,20.69,38.66,36.19,54.16,15.5,15.5,33.91,27.8,54.16,36.19,20.25,8.39,41.96,12.71,63.89,12.71s43.63-4.32,63.89-12.71c20.25-8.39,38.66-20.69,54.16-36.19s27.8-33.91,36.19-54.16c8.39-20.25,12.71-41.96,12.71-63.89M210.43,253.26h0Z"/>
    </clipPath>
    <clipPath id="clippath-10">
      <path class="cls-1" d="M377.38,253.26c0-21.92-4.32-43.63-12.71-63.89-8.39-20.25-20.69-38.66-36.19-54.16-15.5-15.5-33.91-27.8-54.16-36.19-20.25-8.39-41.96-12.71-63.89-12.71s-43.63,4.32-63.89,12.71c-20.25,8.39-38.66,20.69-54.16,36.19-15.5,15.5-27.8,33.91-36.19,54.16-8.39,20.25-12.71,41.96-12.71,63.89s4.32,43.63,12.71,63.89c8.39,20.25,20.69,38.66,36.19,54.16,15.5,15.5,33.91,27.8,54.16,36.19,20.25,8.39,41.96,12.71,63.89,12.71s43.63-4.32,63.89-12.71c20.25-8.39,38.66-20.69,54.16-36.19s27.8-33.91,36.19-54.16c8.39-20.25,12.71-41.96,12.71-63.89M210.43,253.26h0Z"/>
    </clipPath>
    <clipPath id="clippath-11">
      <path class="cls-1" d="M377.38,253.26c0-21.92-4.32-43.63-12.71-63.89-8.39-20.25-20.69-38.66-36.19-54.16-15.5-15.5-33.91-27.8-54.16-36.19-20.25-8.39-41.96-12.71-63.89-12.71s-43.63,4.32-63.89,12.71c-20.25,8.39-38.66,20.69-54.16,36.19-15.5,15.5-27.8,33.91-36.19,54.16-8.39,20.25-12.71,41.96-12.71,63.89s4.32,43.63,12.71,63.89c8.39,20.25,20.69,38.66,36.19,54.16,15.5,15.5,33.91,27.8,54.16,36.19,20.25,8.39,41.96,12.71,63.89,12.71s43.63-4.32,63.89-12.71c20.25-8.39,38.66-20.69,54.16-36.19s27.8-33.91,36.19-54.16c8.39-20.25,12.71-41.96,12.71-63.89M210.43,253.26h0Z"/>
    </clipPath>
    <clipPath id="clippath-12">
      <path class="cls-1" d="M377.38,253.26c0-21.92-4.32-43.63-12.71-63.89-8.39-20.25-20.69-38.66-36.19-54.16-15.5-15.5-33.91-27.8-54.16-36.19-20.25-8.39-41.96-12.71-63.89-12.71s-43.63,4.32-63.89,12.71c-20.25,8.39-38.66,20.69-54.16,36.19-15.5,15.5-27.8,33.91-36.19,54.16-8.39,20.25-12.71,41.96-12.71,63.89s4.32,43.63,12.71,63.89c8.39,20.25,20.69,38.66,36.19,54.16,15.5,15.5,33.91,27.8,54.16,36.19,20.25,8.39,41.96,12.71,63.89,12.71s43.63-4.32,63.89-12.71c20.25-8.39,38.66-20.69,54.16-36.19s27.8-33.91,36.19-54.16c8.39-20.25,12.71-41.96,12.71-63.89M210.43,253.26h0Z"/>
    </clipPath>
    <clipPath id="clippath-13">
      <path class="cls-1" d="M377.38,253.26c0-21.92-4.32-43.63-12.71-63.89-8.39-20.25-20.69-38.66-36.19-54.16-15.5-15.5-33.91-27.8-54.16-36.19-20.25-8.39-41.96-12.71-63.89-12.71s-43.63,4.32-63.89,12.71c-20.25,8.39-38.66,20.69-54.16,36.19-15.5,15.5-27.8,33.91-36.19,54.16-8.39,20.25-12.71,41.96-12.71,63.89s4.32,43.63,12.71,63.89c8.39,20.25,20.69,38.66,36.19,54.16,15.5,15.5,33.91,27.8,54.16,36.19,20.25,8.39,41.96,12.71,63.89,12.71s43.63-4.32,63.89-12.71c20.25-8.39,38.66-20.69,54.16-36.19s27.8-33.91,36.19-54.16c8.39-20.25,12.71-41.96,12.71-63.89M210.43,253.26h0Z"/>
    </clipPath>
    <clipPath id="clippath-14">
      <path class="cls-1" d="M377.38,253.26c0-21.92-4.32-43.63-12.71-63.89-8.39-20.25-20.69-38.66-36.19-54.16-15.5-15.5-33.91-27.8-54.16-36.19-20.25-8.39-41.96-12.71-63.89-12.71s-43.63,4.32-63.89,12.71c-20.25,8.39-38.66,20.69-54.16,36.19-15.5,15.5-27.8,33.91-36.19,54.16-8.39,20.25-12.71,41.96-12.71,63.89s4.32,43.63,12.71,63.89c8.39,20.25,20.69,38.66,36.19,54.16,15.5,15.5,33.91,27.8,54.16,36.19,20.25,8.39,41.96,12.71,63.89,12.71s43.63-4.32,63.89-12.71c20.25-8.39,38.66-20.69,54.16-36.19s27.8-33.91,36.19-54.16c8.39-20.25,12.71-41.96,12.71-63.89M210.43,253.26h0Z"/>
    </clipPath>
    <clipPath id="clippath-15">
      <path class="cls-1" d="M377.38,253.26c0-21.92-4.32-43.63-12.71-63.89-8.39-20.25-20.69-38.66-36.19-54.16-15.5-15.5-33.91-27.8-54.16-36.19-20.25-8.39-41.96-12.71-63.89-12.71s-43.63,4.32-63.89,12.71c-20.25,8.39-38.66,20.69-54.16,36.19-15.5,15.5-27.8,33.91-36.19,54.16-8.39,20.25-12.71,41.96-12.71,63.89s4.32,43.63,12.71,63.89c8.39,20.25,20.69,38.66,36.19,54.16,15.5,15.5,33.91,27.8,54.16,36.19,20.25,8.39,41.96,12.71,63.89,12.71s43.63-4.32,63.89-12.71c20.25-8.39,38.66-20.69,54.16-36.19s27.8-33.91,36.19-54.16c8.39-20.25,12.71-41.96,12.71-63.89M210.43,253.26h0Z"/>
    </clipPath>
    <clipPath id="clippath-16">
      <path class="cls-1" d="M795.25,253.05c0-21.89-4.31-43.56-12.69-63.79-8.38-20.22-20.65-38.6-36.13-54.08-15.48-15.48-33.85-27.76-54.08-36.13-20.22-8.38-41.9-12.69-63.79-12.69s-43.56,4.31-63.79,12.69c-20.22,8.38-38.6,20.65-54.08,36.13-15.48,15.48-27.76,33.85-36.13,54.08-8.38,20.22-12.69,41.9-12.69,63.79s4.31,43.56,12.69,63.79c8.38,20.22,20.65,38.6,36.13,54.08,15.48,15.48,33.85,27.76,54.08,36.13,20.22,8.38,41.9,12.69,63.79,12.69s43.56-4.31,63.79-12.69,38.6-20.65,54.08-36.13c15.48-15.48,27.76-33.85,36.13-54.08,8.38-20.22,12.69-41.9,12.69-63.79M628.57,253.05h0Z"/>
    </clipPath>
    <clipPath id="clippath-17">
      <path class="cls-1" d="M795.25,253.05c0-21.89-4.31-43.56-12.69-63.79-8.38-20.22-20.65-38.6-36.13-54.08-15.48-15.48-33.85-27.76-54.08-36.13-20.22-8.38-41.9-12.69-63.79-12.69s-43.56,4.31-63.79,12.69c-20.22,8.38-38.6,20.65-54.08,36.13-15.48,15.48-27.76,33.85-36.13,54.08-8.38,20.22-12.69,41.9-12.69,63.79s4.31,43.56,12.69,63.79c8.38,20.22,20.65,38.6,36.13,54.08,15.48,15.48,33.85,27.76,54.08,36.13,20.22,8.38,41.9,12.69,63.79,12.69s43.56-4.31,63.79-12.69,38.6-20.65,54.08-36.13c15.48-15.48,27.76-33.85,36.13-54.08,8.38-20.22,12.69-41.9,12.69-63.79M628.57,253.05h0Z"/>
    </clipPath>
    <clipPath id="clippath-18">
      <path class="cls-1" d="M795.25,253.05c0-21.89-4.31-43.56-12.69-63.79-8.38-20.22-20.65-38.6-36.13-54.08-15.48-15.48-33.85-27.76-54.08-36.13-20.22-8.38-41.9-12.69-63.79-12.69s-43.56,4.31-63.79,12.69c-20.22,8.38-38.6,20.65-54.08,36.13-15.48,15.48-27.76,33.85-36.13,54.08-8.38,20.22-12.69,41.9-12.69,63.79s4.31,43.56,12.69,63.79c8.38,20.22,20.65,38.6,36.13,54.08,15.48,15.48,33.85,27.76,54.08,36.13,20.22,8.38,41.9,12.69,63.79,12.69s43.56-4.31,63.79-12.69,38.6-20.65,54.08-36.13c15.48-15.48,27.76-33.85,36.13-54.08,8.38-20.22,12.69-41.9,12.69-63.79M628.57,253.05h0Z"/>
    </clipPath>
    <clipPath id="clippath-19">
      <path class="cls-1" d="M795.25,253.05c0-21.89-4.31-43.56-12.69-63.79-8.38-20.22-20.65-38.6-36.13-54.08-15.48-15.48-33.85-27.76-54.08-36.13-20.22-8.38-41.9-12.69-63.79-12.69s-43.56,4.31-63.79,12.69c-20.22,8.38-38.6,20.65-54.08,36.13-15.48,15.48-27.76,33.85-36.13,54.08-8.38,20.22-12.69,41.9-12.69,63.79s4.31,43.56,12.69,63.79c8.38,20.22,20.65,38.6,36.13,54.08,15.48,15.48,33.85,27.76,54.08,36.13,20.22,8.38,41.9,12.69,63.79,12.69s43.56-4.31,63.79-12.69,38.6-20.65,54.08-36.13c15.48-15.48,27.76-33.85,36.13-54.08,8.38-20.22,12.69-41.9,12.69-63.79M628.57,253.05h0Z"/>
    </clipPath>
    <clipPath id="clippath-20">
      <path class="cls-1" d="M795.25,253.05c0-21.89-4.31-43.56-12.69-63.79-8.38-20.22-20.65-38.6-36.13-54.08-15.48-15.48-33.85-27.76-54.08-36.13-20.22-8.38-41.9-12.69-63.79-12.69s-43.56,4.31-63.79,12.69c-20.22,8.38-38.6,20.65-54.08,36.13-15.48,15.48-27.76,33.85-36.13,54.08-8.38,20.22-12.69,41.9-12.69,63.79s4.31,43.56,12.69,63.79c8.38,20.22,20.65,38.6,36.13,54.08,15.48,15.48,33.85,27.76,54.08,36.13,20.22,8.38,41.9,12.69,63.79,12.69s43.56-4.31,63.79-12.69,38.6-20.65,54.08-36.13c15.48-15.48,27.76-33.85,36.13-54.08,8.38-20.22,12.69-41.9,12.69-63.79M628.57,253.05h0Z"/>
    </clipPath>
    <clipPath id="clippath-21">
      <path class="cls-1" d="M795.25,253.05c0-21.89-4.31-43.56-12.69-63.79-8.38-20.22-20.65-38.6-36.13-54.08-15.48-15.48-33.85-27.76-54.08-36.13-20.22-8.38-41.9-12.69-63.79-12.69s-43.56,4.31-63.79,12.69c-20.22,8.38-38.6,20.65-54.08,36.13-15.48,15.48-27.76,33.85-36.13,54.08-8.38,20.22-12.69,41.9-12.69,63.79s4.31,43.56,12.69,63.79c8.38,20.22,20.65,38.6,36.13,54.08,15.48,15.48,33.85,27.76,54.08,36.13,20.22,8.38,41.9,12.69,63.79,12.69s43.56-4.31,63.79-12.69,38.6-20.65,54.08-36.13c15.48-15.48,27.76-33.85,36.13-54.08,8.38-20.22,12.69-41.9,12.69-63.79M628.57,253.05h0Z"/>
    </clipPath>
    <clipPath id="clippath-22">
      <path class="cls-1" d="M795.25,253.05c0-21.89-4.31-43.56-12.69-63.79-8.38-20.22-20.65-38.6-36.13-54.08-15.48-15.48-33.85-27.76-54.08-36.13-20.22-8.38-41.9-12.69-63.79-12.69s-43.56,4.31-63.79,12.69c-20.22,8.38-38.6,20.65-54.08,36.13-15.48,15.48-27.76,33.85-36.13,54.08-8.38,20.22-12.69,41.9-12.69,63.79s4.31,43.56,12.69,63.79c8.38,20.22,20.65,38.6,36.13,54.08,15.48,15.48,33.85,27.76,54.08,36.13,20.22,8.38,41.9,12.69,63.79,12.69s43.56-4.31,63.79-12.69,38.6-20.65,54.08-36.13c15.48-15.48,27.76-33.85,36.13-54.08,8.38-20.22,12.69-41.9,12.69-63.79M628.57,253.05h0Z"/>
    </clipPath>
    <clipPath id="clippath-23">
      <path class="cls-1" d="M795.25,253.05c0-21.89-4.31-43.56-12.69-63.79-8.38-20.22-20.65-38.6-36.13-54.08-15.48-15.48-33.85-27.76-54.08-36.13-20.22-8.38-41.9-12.69-63.79-12.69s-43.56,4.31-63.79,12.69c-20.22,8.38-38.6,20.65-54.08,36.13-15.48,15.48-27.76,33.85-36.13,54.08-8.38,20.22-12.69,41.9-12.69,63.79s4.31,43.56,12.69,63.79c8.38,20.22,20.65,38.6,36.13,54.08,15.48,15.48,33.85,27.76,54.08,36.13,20.22,8.38,41.9,12.69,63.79,12.69s43.56-4.31,63.79-12.69,38.6-20.65,54.08-36.13c15.48-15.48,27.76-33.85,36.13-54.08,8.38-20.22,12.69-41.9,12.69-63.79M628.57,253.05h0Z"/>
    </clipPath>
    <clipPath id="clippath-24">
      <path class="cls-1" d="M795.25,253.05c0-21.89-4.31-43.56-12.69-63.79-8.38-20.22-20.65-38.6-36.13-54.08-15.48-15.48-33.85-27.76-54.08-36.13-20.22-8.38-41.9-12.69-63.79-12.69s-43.56,4.31-63.79,12.69c-20.22,8.38-38.6,20.65-54.08,36.13-15.48,15.48-27.76,33.85-36.13,54.08-8.38,20.22-12.69,41.9-12.69,63.79s4.31,43.56,12.69,63.79c8.38,20.22,20.65,38.6,36.13,54.08,15.48,15.48,33.85,27.76,54.08,36.13,20.22,8.38,41.9,12.69,63.79,12.69s43.56-4.31,63.79-12.69,38.6-20.65,54.08-36.13c15.48-15.48,27.76-33.85,36.13-54.08,8.38-20.22,12.69-41.9,12.69-63.79M628.57,253.05h0Z"/>
    </clipPath>
    <clipPath id="clippath-25">
      <path class="cls-1" d="M795.25,253.05c0-21.89-4.31-43.56-12.69-63.79-8.38-20.22-20.65-38.6-36.13-54.08-15.48-15.48-33.85-27.76-54.08-36.13-20.22-8.38-41.9-12.69-63.79-12.69s-43.56,4.31-63.79,12.69c-20.22,8.38-38.6,20.65-54.08,36.13-15.48,15.48-27.76,33.85-36.13,54.08-8.38,20.22-12.69,41.9-12.69,63.79s4.31,43.56,12.69,63.79c8.38,20.22,20.65,38.6,36.13,54.08,15.48,15.48,33.85,27.76,54.08,36.13,20.22,8.38,41.9,12.69,63.79,12.69s43.56-4.31,63.79-12.69,38.6-20.65,54.08-36.13c15.48-15.48,27.76-33.85,36.13-54.08,8.38-20.22,12.69-41.9,12.69-63.79M628.57,253.05h0Z"/>
    </clipPath>
    <clipPath id="clippath-26">
      <path class="cls-1" d="M795.25,253.05c0-21.89-4.31-43.56-12.69-63.79-8.38-20.22-20.65-38.6-36.13-54.08-15.48-15.48-33.85-27.76-54.08-36.13-20.22-8.38-41.9-12.69-63.79-12.69s-43.56,4.31-63.79,12.69c-20.22,8.38-38.6,20.65-54.08,36.13-15.48,15.48-27.76,33.85-36.13,54.08-8.38,20.22-12.69,41.9-12.69,63.79s4.31,43.56,12.69,63.79c8.38,20.22,20.65,38.6,36.13,54.08,15.48,15.48,33.85,27.76,54.08,36.13,20.22,8.38,41.9,12.69,63.79,12.69s43.56-4.31,63.79-12.69,38.6-20.65,54.08-36.13c15.48-15.48,27.76-33.85,36.13-54.08,8.38-20.22,12.69-41.9,12.69-63.79M628.57,253.05h0Z"/>
    </clipPath>
    <clipPath id="clippath-27">
      <path class="cls-1" d="M795.25,253.05c0-21.89-4.31-43.56-12.69-63.79-8.38-20.22-20.65-38.6-36.13-54.08-15.48-15.48-33.85-27.76-54.08-36.13-20.22-8.38-41.9-12.69-63.79-12.69s-43.56,4.31-63.79,12.69c-20.22,8.38-38.6,20.65-54.08,36.13-15.48,15.48-27.76,33.85-36.13,54.08-8.38,20.22-12.69,41.9-12.69,63.79s4.31,43.56,12.69,63.79c8.38,20.22,20.65,38.6,36.13,54.08,15.48,15.48,33.85,27.76,54.08,36.13,20.22,8.38,41.9,12.69,63.79,12.69s43.56-4.31,63.79-12.69,38.6-20.65,54.08-36.13c15.48-15.48,27.76-33.85,36.13-54.08,8.38-20.22,12.69-41.9,12.69-63.79M628.57,253.05h0Z"/>
    </clipPath>
    <clipPath id="clippath-28">
      <path class="cls-1" d="M795.25,253.05c0-21.89-4.31-43.56-12.69-63.79-8.38-20.22-20.65-38.6-36.13-54.08-15.48-15.48-33.85-27.76-54.08-36.13-20.22-8.38-41.9-12.69-63.79-12.69s-43.56,4.31-63.79,12.69c-20.22,8.38-38.6,20.65-54.08,36.13-15.48,15.48-27.76,33.85-36.13,54.08-8.38,20.22-12.69,41.9-12.69,63.79s4.31,43.56,12.69,63.79c8.38,20.22,20.65,38.6,36.13,54.08,15.48,15.48,33.85,27.76,54.08,36.13,20.22,8.38,41.9,12.69,63.79,12.69s43.56-4.31,63.79-12.69,38.6-20.65,54.08-36.13c15.48-15.48,27.76-33.85,36.13-54.08,8.38-20.22,12.69-41.9,12.69-63.79M628.57,253.05h0Z"/>
    </clipPath>
    <clipPath id="clippath-29">
      <path class="cls-1" d="M795.25,253.05c0-21.89-4.31-43.56-12.69-63.79-8.38-20.22-20.65-38.6-36.13-54.08-15.48-15.48-33.85-27.76-54.08-36.13-20.22-8.38-41.9-12.69-63.79-12.69s-43.56,4.31-63.79,12.69c-20.22,8.38-38.6,20.65-54.08,36.13-15.48,15.48-27.76,33.85-36.13,54.08-8.38,20.22-12.69,41.9-12.69,63.79s4.31,43.56,12.69,63.79c8.38,20.22,20.65,38.6,36.13,54.08,15.48,15.48,33.85,27.76,54.08,36.13,20.22,8.38,41.9,12.69,63.79,12.69s43.56-4.31,63.79-12.69,38.6-20.65,54.08-36.13c15.48-15.48,27.76-33.85,36.13-54.08,8.38-20.22,12.69-41.9,12.69-63.79M628.57,253.05h0Z"/>
    </clipPath>
    <clipPath id="clippath-30">
      <path class="cls-1" d="M795.25,253.05c0-21.89-4.31-43.56-12.69-63.79-8.38-20.22-20.65-38.6-36.13-54.08-15.48-15.48-33.85-27.76-54.08-36.13-20.22-8.38-41.9-12.69-63.79-12.69s-43.56,4.31-63.79,12.69c-20.22,8.38-38.6,20.65-54.08,36.13-15.48,15.48-27.76,33.85-36.13,54.08-8.38,20.22-12.69,41.9-12.69,63.79s4.31,43.56,12.69,63.79c8.38,20.22,20.65,38.6,36.13,54.08,15.48,15.48,33.85,27.76,54.08,36.13,20.22,8.38,41.9,12.69,63.79,12.69s43.56-4.31,63.79-12.69,38.6-20.65,54.08-36.13c15.48-15.48,27.76-33.85,36.13-54.08,8.38-20.22,12.69-41.9,12.69-63.79M628.57,253.05h0Z"/>
    </clipPath>
    <clipPath id="clippath-31">
      <path class="cls-1" d="M795.25,253.05c0-21.89-4.31-43.56-12.69-63.79-8.38-20.22-20.65-38.6-36.13-54.08-15.48-15.48-33.85-27.76-54.08-36.13-20.22-8.38-41.9-12.69-63.79-12.69s-43.56,4.31-63.79,12.69c-20.22,8.38-38.6,20.65-54.08,36.13-15.48,15.48-27.76,33.85-36.13,54.08-8.38,20.22-12.69,41.9-12.69,63.79s4.31,43.56,12.69,63.79c8.38,20.22,20.65,38.6,36.13,54.08,15.48,15.48,33.85,27.76,54.08,36.13,20.22,8.38,41.9,12.69,63.79,12.69s43.56-4.31,63.79-12.69,38.6-20.65,54.08-36.13c15.48-15.48,27.76-33.85,36.13-54.08,8.38-20.22,12.69-41.9,12.69-63.79M628.57,253.05h0Z"/>
    </clipPath>
    <clipPath id="clippath-32">
      <path class="cls-1" d="M795.25,253.05c0-21.89-4.31-43.56-12.69-63.79-8.38-20.22-20.65-38.6-36.13-54.08-15.48-15.48-33.85-27.76-54.08-36.13-20.22-8.38-41.9-12.69-63.79-12.69s-43.56,4.31-63.79,12.69c-20.22,8.38-38.6,20.65-54.08,36.13-15.48,15.48-27.76,33.85-36.13,54.08-8.38,20.22-12.69,41.9-12.69,63.79s4.31,43.56,12.69,63.79c8.38,20.22,20.65,38.6,36.13,54.08,15.48,15.48,33.85,27.76,54.08,36.13,20.22,8.38,41.9,12.69,63.79,12.69s43.56-4.31,63.79-12.69,38.6-20.65,54.08-36.13c15.48-15.48,27.76-33.85,36.13-54.08,8.38-20.22,12.69-41.9,12.69-63.79M628.57,253.05h0Z"/>
    </clipPath>
    <clipPath id="clippath-33">
      <path class="cls-1" d="M795.25,253.05c0-21.89-4.31-43.56-12.69-63.79-8.38-20.22-20.65-38.6-36.13-54.08-15.48-15.48-33.85-27.76-54.08-36.13-20.22-8.38-41.9-12.69-63.79-12.69s-43.56,4.31-63.79,12.69c-20.22,8.38-38.6,20.65-54.08,36.13-15.48,15.48-27.76,33.85-36.13,54.08-8.38,20.22-12.69,41.9-12.69,63.79s4.31,43.56,12.69,63.79c8.38,20.22,20.65,38.6,36.13,54.08,15.48,15.48,33.85,27.76,54.08,36.13,20.22,8.38,41.9,12.69,63.79,12.69s43.56-4.31,63.79-12.69,38.6-20.65,54.08-36.13c15.48-15.48,27.76-33.85,36.13-54.08,8.38-20.22,12.69-41.9,12.69-63.79M628.57,253.05h0Z"/>
    </clipPath>
    <clipPath id="clippath-34">
      <path class="cls-1" d="M795.25,253.05c0-21.89-4.31-43.56-12.69-63.79-8.38-20.22-20.65-38.6-36.13-54.08-15.48-15.48-33.85-27.76-54.08-36.13-20.22-8.38-41.9-12.69-63.79-12.69s-43.56,4.31-63.79,12.69c-20.22,8.38-38.6,20.65-54.08,36.13-15.48,15.48-27.76,33.85-36.13,54.08-8.38,20.22-12.69,41.9-12.69,63.79s4.31,43.56,12.69,63.79c8.38,20.22,20.65,38.6,36.13,54.08,15.48,15.48,33.85,27.76,54.08,36.13,20.22,8.38,41.9,12.69,63.79,12.69s43.56-4.31,63.79-12.69,38.6-20.65,54.08-36.13c15.48-15.48,27.76-33.85,36.13-54.08,8.38-20.22,12.69-41.9,12.69-63.79M628.57,253.05h0Z"/>
    </clipPath>
  </defs>
  <g id="patch_1" data-name="patch 1">
    <path class="cls-1" d="M0,427.41h529.83V6.82H0v420.58Z"/>
  </g>
  <g id="patch_2" data-name="patch 2">
    <path class="cls-1" d="M377.38,253.26c0-21.92-4.32-43.63-12.71-63.89-8.39-20.25-20.69-38.66-36.19-54.16-15.5-15.5-33.91-27.8-54.16-36.19-20.25-8.39-41.96-12.71-63.89-12.71s-43.63,4.32-63.89,12.71c-20.25,8.39-38.66,20.69-54.16,36.19-15.5,15.5-27.8,33.91-36.19,54.16-8.39,20.25-12.71,41.96-12.71,63.89s4.32,43.63,12.71,63.89c8.39,20.25,20.69,38.66,36.19,54.16s33.91,27.8,54.16,36.19c20.25,8.39,41.96,12.71,63.89,12.71s43.63-4.32,63.89-12.71c20.25-8.39,38.66-20.69,54.16-36.19s27.8-33.91,36.19-54.16c8.39-20.25,12.71-41.96,12.71-63.89M210.43,253.26h0Z"/>
  </g>
  <g id="patch_3" data-name="patch 3">
    <g class="cls-58">
      <path class="cls-12" d="M210.43,237.36l106.72,77.51-128.21-49.2,21.49-28.31Z"/>
    </g>
  </g>
  <g id="patch_4" data-name="patch 4">
    <g class="cls-49">
      <path class="cls-11" d="M210.43,104.29l71.4,190.18-209.09,38.28L210.43,104.29Z"/>
    </g>
  </g>
  <g id="patch_5" data-name="patch 5">
    <g class="cls-52">
      <path class="cls-16" d="M210.43,134.54l92.77,172.28-106.54-45.61,13.77-126.66Z"/>
    </g>
  </g>
  <g id="patch_6" data-name="patch 6">
    <g class="cls-50">
      <path class="cls-22" d="M210.43,121.21l99.9,189.72-146.27-30.91,46.37-158.82Z"/>
    </g>
  </g>
  <g id="line2d_1" data-name="line2d 1">
    <g class="cls-51">
      <path class="cls-3" d="M210.43,253.26V86.31"/>
    </g>
  </g>
  <g id="text_1" data-name="text 1">
    <text class="cls-17" transform="translate(198.29 48.03)"><tspan x="0" y="0">Size</tspan></text>
    <text class="cls-17" transform="translate(197.04 61.71)"><tspan x="0" y="0">(MB)</tspan></text>
  </g>
  <g id="line2d_2" data-name="line2d 2">
    <g class="cls-57">
      <path class="cls-3" d="M210.43,253.26l144.58,83.47"/>
    </g>
  </g>
  <g id="text_2" data-name="text 2">
    <text class="cls-17" transform="translate(355.4 351.77)"><tspan x="0" y="0">Accuracy</tspan></text>
    <text class="cls-17" transform="translate(368.97 365.45)"><tspan x="0" y="0">(CPU)</tspan></text>
  </g>
  <g id="line2d_3" data-name="line2d 3">
    <g class="cls-54">
      <path class="cls-3" d="M210.43,253.26l-144.58,83.47"/>
    </g>
  </g>
  <g id="text_3" data-name="text 3">
    <text class="cls-17" transform="translate(10.04 351.7)"><tspan x="0" y="0">Latency</tspan></text>
    <text class="cls-17" transform="translate(7.2 365.38)"><tspan x="0" y="0">(CPU, ms)</tspan></text>
  </g>
  <g id="matplotlib.axis_2" data-name="matplotlib.axis 2">
    <g id="ytick_1" data-name="ytick 1">
      <g id="line2d_4" data-name="line2d 4">
        <g class="cls-53">
          <path class="cls-3" d="M210.43,221.46c4.18,0,8.31.82,12.17,2.42,3.86,1.6,7.36,3.94,10.32,6.89,2.95,2.95,5.3,6.46,6.89,10.32s2.42,7.99,2.42,12.17-.82,8.31-2.42,12.17-3.94,7.36-6.89,10.32c-2.95,2.95-6.46,5.3-10.32,6.89s-7.99,2.42-12.17,2.42-8.31-.82-12.17-2.42-7.36-3.94-10.32-6.89c-2.95-2.95-5.3-6.46-6.89-10.32-1.6-3.86-2.42-7.99-2.42-12.17s.82-8.31,2.42-12.17c1.6-3.86,3.94-7.36,6.89-10.32,2.95-2.95,6.46-5.3,10.32-6.89,3.86-1.6,7.99-2.42,12.17-2.42"/>
        </g>
      </g>
      <g id="text_4" data-name="text 4">
        <text class="cls-23" transform="translate(210.43 220.13)"><tspan x="0" y="0">0.2</tspan></text>
      </g>
    </g>
    <g id="ytick_2" data-name="ytick 2">
      <g id="line2d_5" data-name="line2d 5">
        <g class="cls-56">
          <path class="cls-3" d="M210.43,189.66c8.35,0,16.62,1.65,24.34,4.84,7.72,3.2,14.73,7.88,20.63,13.79s10.59,12.92,13.79,20.63c3.2,7.72,4.84,15.99,4.84,24.34s-1.65,16.62-4.84,24.34c-3.2,7.72-7.88,14.73-13.79,20.63-5.91,5.91-12.92,10.59-20.63,13.79-7.72,3.2-15.99,4.84-24.34,4.84s-16.62-1.65-24.34-4.84c-7.72-3.2-14.73-7.88-20.63-13.79-5.91-5.91-10.59-12.92-13.79-20.63-3.2-7.72-4.84-15.99-4.84-24.34s1.65-16.62,4.84-24.34c3.2-7.72,7.88-14.73,13.79-20.63,5.91-5.91,12.92-10.59,20.63-13.79,7.72-3.2,15.99-4.84,24.34-4.84"/>
        </g>
      </g>
      <g id="text_5" data-name="text 5">
        <text class="cls-23" transform="translate(210.43 188.33)"><tspan x="0" y="0">0.4</tspan></text>
      </g>
    </g>
    <g id="ytick_3" data-name="ytick 3">
      <g id="line2d_6" data-name="line2d 6">
        <g class="cls-55">
          <path class="cls-3" d="M210.43,157.86c12.53,0,24.93,2.47,36.51,7.26s22.09,11.82,30.95,20.68,15.89,19.38,20.68,30.95c4.79,11.57,7.26,23.98,7.26,36.51s-2.47,24.93-7.26,36.51c-4.79,11.57-11.82,22.09-20.68,30.95s-19.38,15.89-30.95,20.68-23.98,7.26-36.51,7.26-24.93-2.47-36.51-7.26-22.09-11.82-30.95-20.68-15.89-19.38-20.68-30.95c-4.79-11.57-7.26-23.98-7.26-36.51s2.47-24.93,7.26-36.51c4.79-11.57,11.82-22.09,20.68-30.95s19.38-15.89,30.95-20.68,23.98-7.26,36.51-7.26"/>
        </g>
      </g>
      <g id="text_6" data-name="text 6">
        <text class="cls-23" transform="translate(210.43 156.53)"><tspan x="0" y="0">0.6</tspan></text>
      </g>
    </g>
    <g id="ytick_4" data-name="ytick 4">
      <g id="line2d_7" data-name="line2d 7">
        <g class="cls-29">
          <path class="cls-3" d="M210.43,126.06c16.7,0,33.24,3.29,48.68,9.68,15.43,6.39,29.46,15.76,41.27,27.57,11.81,11.81,21.18,25.83,27.57,41.27,6.39,15.43,9.68,31.97,9.68,48.68s-3.29,33.24-9.68,48.68c-6.39,15.43-15.76,29.46-27.57,41.27-11.81,11.81-25.83,21.18-41.27,27.57-15.43,6.39-31.97,9.68-48.68,9.68s-33.24-3.29-48.68-9.68c-15.43-6.39-29.46-15.76-41.27-27.57-11.81-11.81-21.18-25.83-27.57-41.27s-9.68-31.97-9.68-48.68,3.29-33.24,9.68-48.68,15.76-29.46,27.57-41.27c11.81-11.81,25.83-21.18,41.27-27.57s31.97-9.68,48.68-9.68"/>
        </g>
      </g>
      <g id="text_7" data-name="text 7">
        <text class="cls-23" transform="translate(210.43 124.73)"><tspan x="0" y="0">0.8</tspan></text>
      </g>
    </g>
    <g id="ytick_5" data-name="ytick 5">
      <g id="line2d_8" data-name="line2d 8">
        <g class="cls-26">
          <path class="cls-3" d="M210.43,94.26c20.88,0,41.56,4.11,60.85,12.1,19.29,7.99,36.82,19.7,51.58,34.47,14.76,14.76,26.48,32.29,34.47,51.58,7.99,19.29,12.1,39.97,12.1,60.85s-4.11,41.56-12.1,60.85c-7.99,19.29-19.7,36.82-34.47,51.58-14.76,14.76-32.29,26.48-51.58,34.47-19.29,7.99-39.97,12.1-60.85,12.1s-41.56-4.11-60.85-12.1c-19.29-7.99-36.82-19.7-51.58-34.47-14.76-14.76-26.48-32.29-34.47-51.58s-12.1-39.97-12.1-60.85,4.11-41.56,12.1-60.85,19.7-36.82,34.47-51.58c14.76-14.76,32.29-26.48,51.58-34.47,19.29-7.99,39.97-12.1,60.85-12.1"/>
        </g>
      </g>
      <g id="text_8" data-name="text 8">
        <text class="cls-23" transform="translate(210.43 92.93)"><tspan x="0" y="0">1.0</tspan></text>
      </g>
    </g>
  </g>
  <g id="patch_7" data-name="patch 7">
    <path class="cls-8" d="M210.43,86.31c-21.92,0-43.63,4.32-63.89,12.71-20.25,8.39-38.66,20.69-54.16,36.19-15.5,15.5-27.8,33.91-36.19,54.16-8.39,20.25-12.71,41.96-12.71,63.89s4.32,43.63,12.71,63.89c8.39,20.25,20.69,38.66,36.19,54.16s33.91,27.8,54.16,36.19c20.25,8.39,41.96,12.71,63.89,12.71s43.63-4.32,63.89-12.71c20.25-8.39,38.66-20.69,54.16-36.19s27.8-33.91,36.19-54.16c8.39-20.25,12.71-41.96,12.71-63.89s-4.32-43.63-12.71-63.89c-8.39-20.25-20.69-38.66-36.19-54.16-15.5-15.5-33.91-27.8-54.16-36.19-20.25-8.39-41.96-12.71-63.89-12.71"/>
  </g>
  <g id="text_9" data-name="text 9">
    <text class="cls-19" transform="translate(110.66 12.78)"><tspan x="0" y="0">CPU 性能对比雷达图</tspan></text>
  </g>
  <g id="line2d_9" data-name="line2d 9">
    <g class="cls-33">
      <path class="cls-4" d="M210.43,237.36l106.72,77.51-128.21-49.2,21.49-28.31"/>
    </g>
  </g>
  <g id="line2d_10" data-name="line2d 10">
    <g class="cls-31">
      <path class="cls-5" d="M210.43,104.29l71.4,190.18-209.09,38.28L210.43,104.29"/>
    </g>
  </g>
  <g id="line2d_11" data-name="line2d 11">
    <g class="cls-32">
      <path class="cls-7" d="M210.43,134.54l92.77,172.28-106.54-45.61,13.77-126.66"/>
    </g>
  </g>
  <g id="legend_1" data-name="legend 1">
    <g id="patch_8" data-name="patch 8">
      <path class="cls-10" d="M275.21,509.81h160.58c1.33,0,2-.67,2-2v-58.52c0-1.33-.67-2-2-2h-160.58c-1.33,0-2,.67-2,2v58.52c0,1.33.67,2,2,2Z"/>
    </g>
    <g id="line2d_12" data-name="line2d 12">
      <path class="cls-4" d="M277.21,456.18h20"/>
    </g>
    <g id="text_10" data-name="text 10">
      <text class="cls-15" transform="translate(305.21 459.68)"><tspan x="0" y="0">1. FP32 Baseline (12L)</tspan></text>
    </g>
    <g id="line2d_13" data-name="line2d 13">
      <path class="cls-5" d="M277.21,471.54h20"/>
    </g>
    <g id="text_11" data-name="text 11">
      <text class="cls-15" transform="translate(305.21 475.04)"><tspan x="0" y="0">3. INT8 PTQ (12L, CPU-Only)</tspan></text>
    </g>
    <g id="line2d_14" data-name="line2d 14">
      <path class="cls-7" d="M277.21,486.26h20"/>
    </g>
    <g id="text_12" data-name="text 12">
      <text class="cls-15" transform="translate(305.21 489.76)"><tspan x="0" y="0">4. INT8 QAT (12L)</tspan></text>
    </g>
    <g id="line2d_15" data-name="line2d 15">
      <path class="cls-6" d="M277.21,500.98h20"/>
    </g>
    <g id="text_13" data-name="text 13">
      <text class="cls-15" transform="translate(305.21 504.48)"><tspan x="0" y="0">5. Pruned FP32 (8L)</tspan></text>
    </g>
  </g>
  <g id="line2d_16" data-name="line2d 16">
    <g class="cls-30">
      <path class="cls-6" d="M210.43,121.21l99.9,189.72-146.27-30.91,46.37-158.82"/>
    </g>
  </g>
  <text class="cls-19" transform="translate(550.02 12.78)"><tspan x="0" y="0">GPU 性能对比雷达图</tspan></text>
  <path class="cls-1" d="M377.29,465.78h505.46V40.31h-505.46v425.48Z"/>
  <g>
    <g id="patch_9" data-name="patch 9">
      <path class="cls-10" d="M691.3,525.2h202.52c1.33,0,2-.67,2-2v-73.88c0-1.33-.67-2-2-2h-202.52c-1.33,0-2,.67-2,2v73.88c0,1.33.67,2,2,2Z"/>
    </g>
    <g id="line2d_13-2" data-name="line2d 13">
      <path class="cls-4" d="M693.3,456.21h20"/>
    </g>
    <g id="text_11-2" data-name="text 11">
      <text class="cls-15" transform="translate(721.3 459.71)"><tspan x="0" y="0">1. FP32 Baseline (12L)</tspan></text>
    </g>
    <g id="line2d_14-2" data-name="line2d 14">
      <path class="cls-2" d="M693.3,471.57h20"/>
    </g>
    <g id="text_12-2" data-name="text 12">
      <text class="cls-15" transform="translate(721.3 475.07)"><tspan x="0" y="0">2. INT4 BitsAndBytes (12L, GPU-Only)</tspan></text>
    </g>
    <g id="line2d_15-2" data-name="line2d 15">
      <path class="cls-7" d="M693.3,486.29h20"/>
    </g>
    <g id="text_13-2" data-name="text 13">
      <text class="cls-15" transform="translate(721.3 489.79)"><tspan x="0" y="0">4. INT8 QAT (12L)</tspan></text>
    </g>
    <g id="line2d_16-2" data-name="line2d 16">
      <path class="cls-6" d="M693.3,501.01h20"/>
    </g>
    <g id="text_14" data-name="text 14">
      <text class="cls-15" transform="translate(721.3 504.51)"><tspan x="0" y="0">5. Pruned FP32 (8L)</tspan></text>
    </g>
    <g id="line2d_17" data-name="line2d 17">
      <path class="cls-9" d="M693.3,516.37h20"/>
    </g>
    <g id="text_15" data-name="text 15">
      <text class="cls-15" transform="translate(721.3 519.87)"><tspan x="0" y="0">6. Pruned FP16 (8L, GPU-Only)</tspan></text>
    </g>
  </g>
  <path class="cls-1" d="M795.25,253.05c0-21.89-4.31-43.56-12.69-63.79-8.38-20.22-20.65-38.6-36.13-54.08-15.48-15.48-33.85-27.76-54.08-36.13-20.22-8.38-41.9-12.69-63.79-12.69s-43.56,4.31-63.79,12.69c-20.22,8.38-38.6,20.65-54.08,36.13-15.48,15.48-27.76,33.85-36.13,54.08-8.38,20.22-12.69,41.9-12.69,63.79s4.31,43.56,12.69,63.79c8.38,20.22,20.65,38.6,36.13,54.08,15.48,15.48,33.85,27.76,54.08,36.13,20.22,8.38,41.9,12.69,63.79,12.69s43.56-4.31,63.79-12.69c20.22-8.38,38.6-20.65,54.08-36.13,15.48-15.48,27.76-33.85,36.13-54.08,8.38-20.22,12.69-41.9,12.69-63.79M628.57,253.05h0Z"/>
  <g class="cls-27">
    <path class="cls-12" d="M628.57,237.17l123.03,15.87-123.03,138.3-16.01-138.3,16.01-15.87Z"/>
  </g>
  <g class="cls-24">
    <path class="cls-13" d="M628.57,94.3l123.03,158.74-123.03,15.87-158.74-15.87,158.74-158.74Z"/>
  </g>
  <g class="cls-28">
    <path class="cls-16" d="M628.57,134.52l106.95,118.52-106.95,138.52-15.87-138.52,15.87-118.52Z"/>
  </g>
  <g class="cls-25">
    <path class="cls-22" d="M628.57,121.21l115.17,131.83-115.17,158.31-63.54-158.31,63.54-131.83Z"/>
  </g>
  <g class="cls-43">
    <path class="cls-20" d="M628.57,102.18l110.88,150.87-110.88,158.74-130.78-158.74,130.78-150.87Z"/>
  </g>
  <g id="line2d_1-2" data-name="line2d 1">
    <g class="cls-44">
      <path class="cls-3" d="M628.57,253.05V86.36"/>
    </g>
  </g>
  <g id="text_1-2" data-name="text 1">
    <text class="cls-14" transform="translate(614.92 43.32)"><tspan x="0" y="0">Size</tspan></text>
    <text class="cls-14" transform="translate(613.51 58.7)"><tspan x="0" y="0">(MB)</tspan></text>
  </g>
  <g id="line2d_2-2" data-name="line2d 2">
    <g class="cls-45">
      <path class="cls-3" d="M628.57,253.05h166.68"/>
    </g>
  </g>
  <g id="text_2-2" data-name="text 2">
    <text class="cls-14" transform="translate(801.04 250)"><tspan x="0" y="0">Accuracy</tspan></text>
    <text class="cls-14" transform="translate(815.9 265.38)"><tspan x="0" y="0">(GPU)</tspan></text>
  </g>
  <g id="xtick_3" data-name="xtick 3">
    <g id="line2d_3-2" data-name="line2d 3">
      <g class="cls-46">
        <path class="cls-3" d="M628.57,253.05v166.68"/>
      </g>
    </g>
    <g id="text_3-2" data-name="text 3">
      <text class="cls-21" transform="translate(600.39 456.53)"><tspan x="0" y="0">Latency</tspan></text>
      <text class="cls-21" transform="translate(596.79 471.91)"><tspan x="0" y="0">(GPU, ms)</tspan></text>
    </g>
  </g>
  <g id="line2d_4-2" data-name="line2d 4">
    <g class="cls-47">
      <path class="cls-3" d="M628.57,253.05h-166.68"/>
    </g>
  </g>
  <g id="text_4-2" data-name="text 4">
    <text class="cls-14" transform="translate(417.72 242.23)"><tspan x="0" y="0">Peak</tspan></text>
    <text class="cls-14" transform="translate(399.51 257.14)"><tspan x="0" y="0">GPU Mem</tspan></text>
    <text class="cls-14" transform="translate(419.04 272.53)"><tspan x="0" y="0">(MB)</tspan></text>
  </g>
  <g id="ytick_1-2" data-name="ytick 1">
    <g id="line2d_5-2" data-name="line2d 5">
      <g class="cls-48">
        <path class="cls-3" d="M628.57,221.3c4.17,0,8.3.82,12.15,2.42,3.85,1.6,7.35,3.93,10.3,6.88s5.29,6.45,6.88,10.3c1.6,3.85,2.42,7.98,2.42,12.15s-.82,8.3-2.42,12.15c-1.6,3.85-3.93,7.35-6.88,10.3-2.95,2.95-6.45,5.29-10.3,6.88-3.85,1.6-7.98,2.42-12.15,2.42s-8.3-.82-12.15-2.42c-3.85-1.6-7.35-3.93-10.3-6.88-2.95-2.95-5.29-6.45-6.88-10.3-1.6-3.85-2.42-7.98-2.42-12.15s.82-8.3,2.42-12.15c1.6-3.85,3.93-7.35,6.88-10.3,2.95-2.95,6.45-5.29,10.3-6.88,3.85-1.6,7.98-2.42,12.15-2.42"/>
      </g>
    </g>
    <g id="text_5-2" data-name="text 5">
      <text class="cls-18" transform="translate(628.57 219.8)"><tspan x="0" y="0">0.2</tspan></text>
    </g>
  </g>
  <g id="ytick_2-2" data-name="ytick 2">
    <g id="line2d_6-2" data-name="line2d 6">
      <g class="cls-41">
        <path class="cls-3" d="M628.57,189.55c8.34,0,16.6,1.64,24.3,4.83,7.7,3.19,14.7,7.87,20.6,13.76,5.9,5.9,10.57,12.9,13.76,20.6,3.19,7.7,4.83,15.96,4.83,24.3s-1.64,16.6-4.83,24.3c-3.19,7.7-7.87,14.7-13.76,20.6-5.9,5.9-12.9,10.57-20.6,13.76-7.7,3.19-15.96,4.83-24.3,4.83s-16.6-1.64-24.3-4.83c-7.7-3.19-14.7-7.87-20.6-13.76-5.9-5.9-10.57-12.9-13.76-20.6-3.19-7.7-4.83-15.96-4.83-24.3s1.64-16.6,4.83-24.3c3.19-7.7,7.87-14.7,13.76-20.6,5.9-5.9,12.9-10.57,20.6-13.76,7.7-3.19,15.96-4.83,24.3-4.83"/>
      </g>
    </g>
    <g id="text_6-2" data-name="text 6">
      <text class="cls-18" transform="translate(628.57 188.05)"><tspan x="0" y="0">0.4</tspan></text>
    </g>
  </g>
  <g id="ytick_3-2" data-name="ytick 3">
    <g id="line2d_7-2" data-name="line2d 7">
      <g class="cls-39">
        <path class="cls-3" d="M628.57,157.8c12.51,0,24.89,2.46,36.45,7.25,11.56,4.79,22.06,11.8,30.9,20.65,8.84,8.84,15.86,19.34,20.65,30.9,4.79,11.56,7.25,23.94,7.25,36.45s-2.46,24.89-7.25,36.45c-4.79,11.56-11.8,22.06-20.65,30.9-8.84,8.84-19.34,15.86-30.9,20.65-11.56,4.79-23.94,7.25-36.45,7.25s-24.89-2.46-36.45-7.25c-11.56-4.79-22.06-11.8-30.9-20.65-8.84-8.84-15.86-19.34-20.65-30.9-4.79-11.56-7.25-23.94-7.25-36.45s2.46-24.89,7.25-36.45c4.79-11.56,11.8-22.06,20.65-30.9,8.84-8.84,19.34-15.86,30.9-20.65,11.56-4.79,23.94-7.25,36.45-7.25"/>
      </g>
    </g>
    <g id="text_7-2" data-name="text 7">
      <text class="cls-18" transform="translate(628.57 156.3)"><tspan x="0" y="0">0.6</tspan></text>
    </g>
  </g>
  <g id="ytick_4-2" data-name="ytick 4">
    <g id="line2d_8-2" data-name="line2d 8">
      <g class="cls-42">
        <path class="cls-3" d="M628.57,126.05c16.68,0,33.19,3.28,48.6,9.67,15.41,6.38,29.41,15.74,41.2,27.53s21.15,25.79,27.53,41.2c6.38,15.41,9.67,31.92,9.67,48.6s-3.28,33.19-9.67,48.6c-6.38,15.41-15.74,29.41-27.53,41.2-11.79,11.79-25.79,21.15-41.2,27.53-15.41,6.38-31.92,9.67-48.6,9.67s-33.19-3.28-48.6-9.67c-15.41-6.38-29.41-15.74-41.2-27.53-11.79-11.79-21.15-25.79-27.53-41.2-6.38-15.41-9.67-31.92-9.67-48.6s3.28-33.19,9.67-48.6c6.38-15.41,15.74-29.41,27.53-41.2,11.79-11.79,25.79-21.15,41.2-27.53,15.41-6.38,31.92-9.67,48.6-9.67"/>
      </g>
    </g>
    <g id="text_8-2" data-name="text 8">
      <text class="cls-18" transform="translate(628.57 124.55)"><tspan x="0" y="0">0.8</tspan></text>
    </g>
  </g>
  <g id="ytick_5-2" data-name="ytick 5">
    <g id="line2d_9-2" data-name="line2d 9">
      <g class="cls-40">
        <path class="cls-3" d="M628.57,94.3c20.85,0,41.49,4.11,60.75,12.08,19.26,7.98,36.76,19.67,51.5,34.41,14.74,14.74,26.43,32.24,34.41,51.5,7.98,19.26,12.08,39.9,12.08,60.75s-4.11,41.49-12.08,60.75c-7.98,19.26-19.67,36.76-34.41,51.5-14.74,14.74-32.24,26.43-51.5,34.41-19.26,7.98-39.9,12.08-60.75,12.08s-41.49-4.11-60.75-12.08c-19.26-7.98-36.76-19.67-51.5-34.41-14.74-14.74-26.43-32.24-34.41-51.5-7.98-19.26-12.08-39.9-12.08-60.75s4.11-41.49,12.08-60.75c7.98-19.26,19.67-36.76,34.41-51.5,14.74-14.74,32.24-26.43,51.5-34.41,19.26-7.98,39.9-12.08,60.75-12.08"/>
      </g>
    </g>
    <g id="text_9-2" data-name="text 9">
      <text class="cls-18" transform="translate(628.57 92.81)"><tspan x="0" y="0">1.0</tspan></text>
    </g>
  </g>
  <path class="cls-8" d="M628.57,86.36c-21.89,0-43.56,4.31-63.79,12.69-20.22,8.38-38.6,20.65-54.08,36.13-15.48,15.48-27.76,33.85-36.13,54.08-8.38,20.22-12.69,41.9-12.69,63.79s4.31,43.56,12.69,63.79c8.38,20.22,20.65,38.6,36.13,54.08,15.48,15.48,33.85,27.76,54.08,36.13,20.22,8.38,41.9,12.69,63.79,12.69s43.56-4.31,63.79-12.69c20.22-8.38,38.6-20.65,54.08-36.13,15.48-15.48,27.76-33.85,36.13-54.08,8.38-20.22,12.69-41.9,12.69-63.79s-4.31-43.56-12.69-63.79c-8.38-20.22-20.65-38.6-36.13-54.08-15.48-15.48-33.85-27.76-54.08-36.13-20.22-8.38-41.9-12.69-63.79-12.69"/>
  <g class="cls-38">
    <path class="cls-4" d="M628.57,237.17l123.03,15.87-123.03,138.3-16.01-138.3,16.01-15.87"/>
  </g>
  <g class="cls-34">
    <path class="cls-2" d="M628.57,94.3l123.03,158.74-123.03,15.87-158.74-15.87,158.74-158.74"/>
  </g>
  <g class="cls-35">
    <path class="cls-7" d="M628.57,134.52l106.95,118.52-106.95,138.52-15.87-138.52,15.87-118.52"/>
  </g>
  <g class="cls-36">
    <path class="cls-6" d="M628.57,121.21l115.17,131.83-115.17,158.31-63.54-158.31,63.54-131.83"/>
  </g>
  <g class="cls-37">
    <path class="cls-9" d="M628.57,102.18l110.88,150.87-110.88,158.74-130.78-158.74,130.78-150.87"/>
  </g>
</svg>